<ttFont>
          <CharString index="0">
            rmoveto
            24 hlineto
            20 14 5 13 9 hvcurveto
            38 55 28 -56 rlineto
            -12 5 14 -5 20 hhcurveto
            26 hlineto
            12 8 5 7 1 hvcurveto
            4 -2 7 -4 6 vhcurveto
            -47 96 rlineto
            16 -9 -16 4 -24 hhcurveto
            -7 hlineto
            -24 -18 -4 -16 -12 hvcurveto
            -67 -96 rlineto
            -3 -6 -5 -8 -3 vvcurveto
            -7 -1 7 -5 13 hhcurveto
            return
          </CharString>
          <CharString index="1">
            rmoveto
            42 19 -66 callsubr
            6 57 -68 callsubr
            -18 10 -42 hhcurveto
            -41 -52 callsubr
            -6 -57 rlineto
            -19 -2 17 -9 42 hhcurveto
            return
          </CharString>
          <CharString index="2">
            41 14 10 12 9 hvcurveto
            77 103 7 -6 callsubr
            -7 -19 -9 vhcurveto
            -40 -80 -14 -2 callsubr
            return
          </CharString>
          <CharString index="3">
            -1 4 5 -1 4 hhcurveto
            10 6 6 10 8 hvcurveto
            17 11 9 3 9 30 53 -33 38 hhcurveto
            41 30 28 42 17 hvcurveto
            1 4 2 41 callgsubr
            -5 7 -14 5 vhcurveto
            -9 3 rlineto
            1 -5 -3 1 -5 hhcurveto
            -10 -7 -5 -11 -7 hvcurveto
            -17 -12 -9 -2 -9 -30 -53 33 -37 hhcurveto
            -42 -30 -27 -42 -16 hvcurveto
            -2 -7 -1 -4 -4 vvcurveto
            -8 4 -9 14 -4 vhcurveto
            return
          </CharString>
          <CharString index="4">
            rmoveto
            24 hlineto
            17 16 2 15 10 hvcurveto
            33 56 21 -56 rlineto
            -11 5 15 -6 20 hhcurveto
            25 hlineto
            12 8 5 7 1 hvcurveto
            5 -1 5 -4 6 vhcurveto
            -42 97 rlineto
            17 -8 -17 3 -23 hhcurveto
            -8 hlineto
            -23 -19 -3 -17 -11 hvcurveto
            -64 -97 rlineto
            -2 -6 -4 -5 -5 vvcurveto
            -8 -1 6 -4 14 hhcurveto
            return
          </CharString>
          <CharString index="5">
            rmoveto
            172 98 110 248 25 hvcurveto
            247 26 -92 109 -153 39 callgsubr
            -248 -25 94 -110 151 hhcurveto
            13 111 rmoveto
            -81 -36 63 184 19 hvcurveto
            183 20 48 62 82 hhcurveto
            80 36 -62 -183 -20 hvcurveto
            -184 -19 -48 -63 -81 hhcurveto
            return
          </CharString>
          <CharString index="6">
            rmoveto
            131 78 94 174 18 hvcurveto
            174 18 -58 95 -131 hhcurveto
            -132 -78 -95 -174 -18 hvcurveto
            -173 -18 59 -95 131 hhcurveto
            10 100 rmoveto
            -51 -16 48 121 13 hvcurveto
            120 12 26 48 51 hhcurveto
            51 17 -48 -120 -13 hvcurveto
            -121 -13 -27 -48 -50 hhcurveto
            return
          </CharString>
          <CharString index="7">
            rmoveto
            -73 callgsubr
            114 86 67 116 51 -28 89 -129 -166 -75 -146 -179 hvcurveto
            -148 -1 77 -64 120 hhcurveto
            42 79 15 37 24 hvcurveto
            -61 callgsubr
            -105 291 rmoveto
            30 18 -21 -34 -63 -50 -23 -59 hvcurveto
            -39 hlineto
            78 12 28 63 60 hhcurveto
            return
          </CharString>
          <CharString index="8">
            rmoveto
            81 50 50 59 6 hvcurveto
            20 2 -13 7 -18 hhcurveto
            -14 -7 -8 -11 -7 hvcurveto
            -17 -9 -13 -18 -49 hhcurveto
            -46 -11 16 17 -7 hvcurveto
            13 -4 -5 8 -15 hhcurveto
            -18 -15 -7 -20 -2 hvcurveto
            -59 -6 39 -50 81 hhcurveto
            return
          </CharString>
          <CharString index="9">
            -22 callsubr
            21 9 12 110 16 144 hvcurveto
            93 10 -36 52 -76 hhcurveto
            -57 -48 -34 -41 -31 hvcurveto
            34 -3 5 33 -31 hhcurveto
            -17 -78 -6 -25 -2 hvcurveto
            -1 -11 6 -30 -9 -92 -36 -332 rcurveline
            -18 -1 14 -10 35 hhcurveto
            26 hlineto
            34 17 9 19 2 hvcurveto
            37 354 rlineto
            25 16 25 21 28 hhcurveto
            35 10 -23 -42 -4 hvcurveto
            -21 -208 rlineto
            -2 -23 -2 -22 -11 vvcurveto
            -79 -1 43 -25 48 hhcurveto
            55 31 31 47 13 -4 14 -9 hvcurveto
            return
          </CharString>
          <CharString index="10">
            rmoveto
            21 5 3 10 10 -12 24 -40 81 hvcurveto
            19 -11 -28 7 -33 hhcurveto
            -33 -17 -3 -10 -12 6 -5 80 -102 hvcurveto
            -11 8 13 -11 41 hhcurveto
            return
          </CharString>
          <CharString index="11">
            rmoveto
            -23 hlineto
            -25 -20 -5 -14 -4 hvcurveto
            -78 -239 -9 -28 -9 -39 -10 -34 rlinecurve
            -5 hlineto
            -1 34 -2 38 -3 29 -25 238 rcurveline
            17 -1 -19 3 -23 hhcurveto
            -33 hlineto
            -31 -16 -8 -13 -1 hvcurveto
            -1 -4 1 -7 2 -9 75 -413 rcurveline
            -17 3 13 -2 14 hhcurveto
            -87 -222 rlineto
            -4 -9 -2 -5 -4 vvcurveto
            -11 -1 14 -8 33 hhcurveto
            20 hlineto
            26 20 6 15 6 hvcurveto
            250 673 rlineto
            2 8 2 5 5 vvcurveto
            13 2 -15 7 -35 hhcurveto
            return
          </CharString>
          <CharString index="12">
            -94 callgsubr
            endchar
          </CharString>
          <CharString index="13">
            rmoveto
            141 69 59 101 10 hvcurveto
            8 79 -54 38 -67 14 -59 13 -58 0 5 44 3 30 26 14 35 2 97 3 70 61 11 106 4 32 -5 28 -10 20 3 3 rcurveline
            -2 10 16 -1 15 hhcurveto
            15 8 11 26 3 hvcurveto
            2 15 rlineto
            27 2 -6 12 -17 hhcurveto
            -138 hlineto
            5 -17 -20 2 -20 hhcurveto
            -106 -76 -60 -116 -12 hvcurveto
            -8 -72 21 -50 43 -28 -32 -21 -20 -30 -4 -37 -4 -32 10 -27 24 -16 -1 -2 rcurveline
            -51 -25 -33 -40 -6 -56 rrcurveto
            -90 -9 80 -40 102 hhcurveto
            53 479 rmoveto
            -38 -29 16 72 8 hvcurveto
            72 8 32 17 37 hhcurveto
            38 30 -17 -72 -8 hvcurveto
            -72 -8 -32 -16 -38 hhcurveto
            -33 -388 rmoveto
            -48 -40 14 45 5 hvcurveto
            3 30 20 23 26 14 67 -15 66 4 -6 -55 rrcurveto
            -38 -3 -31 -22 -59 hhcurveto
            endchar
          </CharString>
          <CharString index="14">
            -7 callgsubr
            -37 -352 rlineto
            -26 -15 -27 -22 -29 hhcurveto
            -36 -14 23 41 5 hvcurveto
            35 336 -23 callgsubr
            -37 hhcurveto
            -20 hlineto
            -36 -35 callgsubr
            -3 hvcurveto
            -36 -351 rlineto
            -101 -11 33 -53 85 hhcurveto
            57 47 36 44 29 hvcurveto
            -4 -39 rlineto
            -96 -10 -44 -48 -69 -70 -40 39 -10 hhcurveto
            -9 -6 -15 -26 callsubr
            -11 -1 -14 1 -15 vhcurveto
            -32 4 65 -28 84 hhcurveto
            141 72 93 202 19 hvcurveto
            return
          </CharString>
          <CharString index="15">
            rmoveto
            46 hlineto
            24 20 6 13 4 hvcurveto
            112 378 28 117 2 -117 39 -378 rlineto
            -13 1 18 -6 23 hhcurveto
            47 hlineto
            26 19 6 13 4 hvcurveto
            196 648 3 5 -1 5 1 4 rlinecurve
            14 1 -14 9 -37 hhcurveto
            -19 hlineto
            -33 -20 -8 -18 -4 hvcurveto
            -101 -410 -12 -47 -10 -42 -13 -49 rlinecurve
            -1 43 -1 52 -3 43 -33 416 rcurveline
            15 -1 -16 5 -28 hhcurveto
            -32 hlineto
            -28 -16 -5 -15 -4 hvcurveto
            -114 -415 -10 -42 -14 -47 -12 -48 rlinecurve
            -1 44 1 47 -3 45 -20 410 rcurveline
            18 -1 -18 8 -34 hhcurveto
            -23 hlineto
            -36 -16 -9 -14 -2 hvcurveto
            -4 -2 -5 1 -5 vhcurveto
            73 -648 rlineto
            -13 1 16 -6 27 hhcurveto
            endchar
          </CharString>
          <CharString index="16">
            -15 callgsubr
            -30 -19 rlineto
            -7 -5 -54 callgsubr
            -22 -15 -12 -20 -16 -14 7 11 -18 vhcurveto
            21 -36 -37 16 -59 hhcurveto
            -172 -96 -114 -242 -26 hvcurveto
            -248 -25 94 -110 151 35 callsubr
            118 -15 87 -35 58 rrcurveto
            71 3 32 36 53 vvcurveto
            -200 -355 rmoveto
            -184 -19 -48 -63 -81 hhcurveto
            -81 -36 63 184 19 hvcurveto
            183 20 48 62 82 hhcurveto
            80 36 -62 -183 -20 hvcurveto
            return
          </CharString>
          <CharString index="17">
            rmoveto
            30 -21 50 -25 -5 -4 -1 -4 -5 vhcurveto
            -29 6 callgsubr
            -30 callgsubr
            -13 -15 -20 -10 -13 3 7 -12 vhcurveto
            16 -30 -29 11 40 callgsubr
            -173 -18 59 -95 131 40 callsubr
            83 -9 65 -25 46 rrcurveto
            65 5 28 36 50 vvcurveto
            -285 -453 rmoveto
            -51 -16 48 121 13 hvcurveto
            120 12 26 48 51 hhcurveto
            51 17 -48 -120 -13 hvcurveto
            -121 -13 -27 -48 -50 hhcurveto
            return
          </CharString>
          <CharString index="18">
            388 hlineto
            17 10 13 31 3 hvcurveto
            2 23 rlineto
            31 3 -6 13 -18 hhcurveto
            -252 hlineto
            329 502 rlineto
            1 2 0 3 4 vvcurveto
            24 3 -11 54 -15 hhcurveto
            -365 hlineto
            -18 -8 -13 -31 -3 hvcurveto
            -3 -23 rlineto
            -31 -3 5 -13 18 hhcurveto
            232 hlineto
            -331 -502 rlineto
            -2 -3 -1 -4 -4 vvcurveto
            -25 -2 12 -51 15 hhcurveto
            return
          </CharString>
          <CharString index="19">
            rmoveto
            101 72 66 95 10 hvcurveto
            9 82 -39 38 -51 30 -36 22 -35 18 5 41 rrcurveto
            29 3 23 14 30 35 22 -20 8 hhcurveto
            15 28 50 21 2 hvcurveto
            36 4 -71 17 -51 hhcurveto
            -92 -72 -59 -95 -11 hvcurveto
            -8 -85 43 -36 49 -27 40 -23 29 -19 -4 -41 rrcurveto
            -33 -3 -23 -17 -34 -43 -23 31 -11 hhcurveto
            -16 -36 -49 -22 -2 hvcurveto
            -35 -4 69 -29 68 hhcurveto
            return
          </CharString>
          <CharString index="20">
            rmoveto
            -10 hlineto
            -42 -5 -15 -32 -11 hvcurveto
            21 -17 -33 31 -50 hhcurveto
            -99 -75 -92 -171 -18 hvcurveto
            -126 -14 22 -138 120 hhcurveto
            43 38 22 40 27 hvcurveto
            -3 -23 rlineto
            -107 -10 -36 -46 -65 -66 -34 37 -13 hhcurveto
            -19 -4 -53 -23 6 hvcurveto
            -32 7 62 -30 84 hhcurveto
            129 66 87 207 22 hvcurveto
            44 419 rlineto
            15 -14 9 -32 vhcurveto
            -96 -185 rmoveto
            -17 -162 rlineto
            -51 -20 -27 -21 -25 hhcurveto
            -55 -3 75 86 9 hvcurveto
            113 12 28 49 54 hhcurveto
            25 17 -11 callsubr
          </CharString>
          <CharString index="21">
            rmoveto
            26 hlineto
            37 29 callgsubr
            27 249 rlineto
            38 hlineto
            43 14 -15 -46 11 hvcurveto
            36 -192 rlineto
            -17 3 19 -6 27 hhcurveto
            28 hlineto
            38 17 8 15 2 hvcurveto
            3 -1 5 -1 4 vhcurveto
            -40 194 -10 50 -18 43 -28 16 rlinecurve
            4 vlineto
            58 30 44 51 9 88 rrcurveto
            142 16 -78 48 -118 hhcurveto
            -160 hlineto
            -25 -41 callsubr
            -68 -638 rlineto
            -18 -1 14 -10 37 hhcurveto
            120 397 rmoveto
            20 194 rlineto
            68 hlineto
            41 26 -26 -68 -7 hvcurveto
            -62 -7 -34 -38 -34 hhcurveto
            return
          </CharString>
          <CharString index="22">
            rmoveto
            35 34 6 10 22 hvcurveto
            23 12 12 17 1 28 1 34 -10 33 -29 -9 rrcurveto
            -9 -22 -22 -7 -34 hhcurveto
            -93 -38 80 163 17 hvcurveto
            164 18 52 78 93 hhcurveto
            31 23 -7 -7 17 hvcurveto
            24 -11 21 52 4 34 2 18 -4 15 -20 6 rrcurveto
            8 -20 -34 6 -37 hhcurveto
            -188 -92 -116 -240 -25 hvcurveto
            -246 -26 83 -112 181 hhcurveto
            endchar
          </CharString>
          <CharString index="23">
            rmoveto
            54 92 28 34 3 hvcurveto
            19 2 -16 48 -19 hhcurveto
            -3 -6 -4 -3 -8 hvcurveto
            -8 -17 -25 -14 -36 hhcurveto
            -64 -24 48 122 13 hvcurveto
            122 13 37 45 62 hhcurveto
            32 23 -14 -8 13 hvcurveto
            -4 7 4 -2 5 hhcurveto
            16 29 48 20 2 hvcurveto
            32 3 -67 28 -68 hhcurveto
            -137 -84 -80 -189 -20 hvcurveto
            -186 -19 63 -82 140 hhcurveto
            endchar
          </CharString>
          <CharString index="24">
            -103 callsubr
            -15 -82 callsubr
          </CharString>
          <CharString index="25">
            -581 -105 callgsubr
          </CharString>
          <CharString index="26">
            rmoveto
            40 14 10 12 10 hvcurveto
            77 103 6 4 12 vvcurveto
            10 -16 3 -33 -33 -29 -6 -20 -9 vhcurveto
            -37 13 callgsubr
            5 -3 21 vhcurveto
            151 hmoveto
            42 13 10 12 9 hvcurveto
            79 103 5 -6 callsubr
            -6 -20 -9 vhcurveto
            -38 -80 -16 -2 callsubr
            return
          </CharString>
          <CharString index="27">
            rmoveto
            29 58 71 78 22 -12 16 -29 hvcurveto
            -16 hlineto
            -36 -15 -16 -24 hvcurveto
            -78 -17 -30 -20 vvcurveto
            -14 23 -5 15 vhcurveto
            return
          </CharString>
          <CharString index="28">
            rmoveto
            39 14 9 13 8 hvcurveto
            46 84 14 24 10 vvcurveto
            11 -16 3 -33 -33 -32 -4 -22 -6 vhcurveto
            -23 -79 -7 -26 -10 vvcurveto
            -10 6 -3 23 vhcurveto
            return
          </CharString>
          <CharString index="29">
            rmoveto
            58 40 39 55 6 hvcurveto
            55 5 -31 39 -58 hhcurveto
            -58 -39 -39 -55 -6 hvcurveto
            -55 -6 31 -39 58 hhcurveto
            6 52 rmoveto
            -26 -13 15 26 3 hvcurveto
            26 3 16 16 26 hhcurveto
            26 13 -16 -26 -3 hvcurveto
            -26 -3 -17 -15 -25 hhcurveto
            return
          </CharString>
          <CharString index="30">
            39 hlineto
            22 18 5 14 5 hvcurveto
            46 137 rlineto
            179 hlineto
            return
          </CharString>
          <CharString index="31">
            -103 callsubr
            32 -28 callgsubr
          </CharString>
          <CharString index="32">
            hlineto
            9 85 rlineto
            39 4 14 11 22 13 10 -5 7 hhcurveto
            19 15 54 8 1 hvcurveto
            34 3 -56 10 -30 hhcurveto
            -17 callgsubr
            -18 7 callgsubr
            -4 hvcurveto
            -1 -15 rlineto
            -30 -3 6 -13 19 hhcurveto
            18 hlineto
            -42 -396 0 callgsubr
            return
          </CharString>
          <CharString index="33">
            22 callsubr
            6 23 5 7 61 8 77 hvcurveto
            9 return
          </CharString>
          <CharString index="34">
            -366 rmoveto
            114 86 67 116 51 -28 89 -129 -166 -75 -146 -179 hvcurveto
            -148 -1 77 -64 120 hhcurveto
            42 79 15 37 24 hvcurveto
            -61 callgsubr
            -73 callgsubr
            35 223 -38 callsubr
          </CharString>
          <CharString index="35">
            756 -99 callsubr
            return
          </CharString>
          <CharString index="36">
            -24 50 7 -30 vvcurveto
            -15 -12 -6 -13 vhcurveto
            -30 -20 21 -17 hhcurveto
            -10 -17 -16 -21 -27 51 -21 50 58 44 25 62 48 -34 20 -34 4 hvcurveto
            return
          </CharString>
          <CharString index="37">
            rmoveto
            126 61 78 132 14 hvcurveto
            49 471 33 callsubr
            11 -35 hhcurveto
            -32 hlineto
            -35 -16 -11 -61 callsubr
            -48 -459 rlineto
            -76 -8 -21 -33 -48 -26 -14 7 -10 hhcurveto
            -20 -1 -21 -51 -3 -27 rrcurveto
            -26 -2 56 -15 48 hhcurveto
            return
          </CharString>
          <CharString index="38">
            852 rmoveto
            28 12 6 10 8 hvcurveto
            61 79 11 13 10 vvcurveto
            16 -12 4 -25 -31 -26 -6 -21 -10 vhcurveto
            -28 -69 -10 -20 -9 vvcurveto
            -10 6 -3 16 vhcurveto
            -204 -68 callgsubr
            return
          </CharString>
          <CharString index="39">
            rlineto
            18 2 return
          </CharString>
          <CharString index="40">
            40 97 106 115 12 hvcurveto
            22 2 -15 16 -36 hhcurveto
            -15 hlineto
            -37 -18 -16 -24 -3 hvcurveto
            -8 -87 -25 -49 -20 -36 -6 -11 -4 -9 -1 -8 rrcurveto
            -14 -1 23 -5 15 hhcurveto
            return
          </CharString>
          <CharString index="41">
            10 -39 callgsubr
            return
          </CharString>
          <CharString index="42">
            vvcurveto
            -26 9 -66 86 21 21 5 10 18 vhcurveto
            11 6 4 10 13 vvcurveto
            21 -9 7 -17 vhcurveto
            return
          </CharString>
          <CharString index="43">
            -103 callsubr
            -190 -752 -106 callgsubr
            endchar
          </CharString>
          <CharString index="44">
            -59 callsubr
            -11 return
          </CharString>
          <CharString index="45">
            rmoveto
            206 hlineto
            10 5 8 17 2 hvcurveto
            1 9 rlineto
            17 2 -4 7 -11 hhcurveto
            -129 hlineto
            107 137 42 49 15 28 4 36 rlinecurve
            61 7 -39 42 -74 hhcurveto
            -48 -63 -19 -31 -4 hvcurveto
            -13 -1 12 -23 14 10 25 27 40 hhcurveto
            31 19 -16 -32 -3 hvcurveto
            -2 -19 -9 -17 -23 -29 -150 -188 rcurveline
            -1 -2 -1 -3 -1 -4 rrcurveto
            -15 -1 4 -27 8 hhcurveto
            return
          </CharString>
          <CharString index="46">
            -18 -2 hvcurveto
            return
          </CharString>
          <CharString index="47">
            hmoveto
            -89 callsubr
            return
          </CharString>
          <CharString index="48">
            -4 -3 -9 hhcurveto
            return
          </CharString>
          <CharString index="49">
            335 707 rmoveto
            -154 -106 -122 -228 -24 hvcurveto
            -11 -110 14 -88 41 -63 rrcurveto
            3 -5 -30 9 -25 hhcurveto
            -18 -9 -13 -30 -3 hvcurveto
            -2 -22 22 callgsubr
            199 hlineto
            18 8 7 callsubr
            2 18 1 17 -1 8 -9 5 rlinecurve
            -53 22 -24 84 16 154 rrcurveto
            160 17 51 85 82 hhcurveto
            81 33 -85 -160 -17 hvcurveto
            -16 -154 -42 -83 -57 -23 -8 -6 -4 -7 -2 -17 -2 -18 rcurveline
            -30 -4 8 -13 18 hhcurveto
            198 hlineto
            19 7 7 callsubr
            2 22 rlineto
            30 4 -6 13 -19 hhcurveto
            -25 -33 -9 -3 -6 hvcurveto
            56 63 33 88 11 110 rrcurveto
            228 24 -80 122 -177 hhcurveto
            endchar
          </CharString>
          <CharString index="50">
            rmoveto
            5 7 2 5 6 vvcurveto
            15 -29 19 -14 -6 -7 -4 -7 -5 vhcurveto
            -18 -27 rlineto
            17 -26 -33 9 40 callgsubr
            -9 -83 9 -65 27 -45 -20 -29 rcurveline
            -6 -8 -2 -4 -6 vvcurveto
            -15 29 -20 13 6 7 4 8 5 vhcurveto
            14 21 rlineto
            -17 26 33 -9 40 40 callsubr
            82 -9 65 -25 45 rrcurveto
            -246 -191 rmoveto
            120 12 26 48 51 hhcurveto
            19 15 -7 -15 10 hvcurveto
            -137 -199 1 16 1 18 2 19 rlinecurve
            144 hmoveto
            -121 -13 -27 -48 -50 hhcurveto
            -19 -14 7 14 -10 hvcurveto
            137 198 -1 -15 -1 -17 -2 -18 rlinecurve
            endchar
          </CharString>
          <CharString index="51">
            27 346 593 rmoveto
            70 28 -32 12 hhcurveto
            21 38 55 24 2 hvcurveto
            31 4 -83 36 -86 hhcurveto
            -7 -8 0 -1 -7 hvcurveto
            1 vlineto
            3 31 rlineto
            21 2 -8 9 -21 hhcurveto
            -18 -10 -9 -21 -2 hvcurveto
            -3 -32 -1 -8 -132 -30 -75 -115 -21 -204 rlinecurve
            -22 -208 51 -112 126 -28 -1 -8 rcurveline
            -5 -44 rlineto
            -21 -2 8 -9 21 hhcurveto
            18 10 9 21 2 hvcurveto
            5 44 rlineto
            17 hlineto
            79 112 25 52 5 hvcurveto
            31 293 rlineto
            26 3 -10 11 -22 hhcurveto
            -128 6 callsubr
            -2 -26 22 callgsubr
            32 hlineto
            -19 -175 rlineto
            -4 -18 -18 -2 -23 hhcurveto
            return
          </CharString>
          <CharString index="52">
            30 -21 50 -25 -5 -5 -1 -4 -4 vhcurveto
            return
          </CharString>
          <CharString index="53">
            -21 callsubr
            2 return
          </CharString>
          <CharString index="54">
            -107 callsubr
            39 -51 callgsubr
            return
          </CharString>
          <CharString index="55">
            -19 -75 callgsubr
            return
          </CharString>
          <CharString index="56">
            859 -59 callgsubr
            -224 -29 callsubr
            return
          </CharString>
          <CharString index="57">
            rmoveto
            -43 -16 54 112 12 hvcurveto
            117 12 29 50 49 hhcurveto
            23 18 -10 -15 13 hvcurveto
            -27 -257 rlineto
            -30 -20 -24 -21 -26 hhcurveto
            return
          </CharString>
          <CharString index="58">
            -86 callsubr
            endchar
          </CharString>
          <CharString index="59">
            rmoveto
            25 2 51 68 76 vvcurveto
            22 -13 16 -27 vhcurveto
            -16 hlineto
            -36 -16 -16 -24 hvcurveto
            -48 -8 -36 -40 vvcurveto
            -15 24 -5 16 vhcurveto
            return
          </CharString>
          <CharString index="60">
            -35 -62 callgsubr
            return
          </CharString>
          <CharString index="61">
            -11 -26 callsubr
            return
          </CharString>
          <CharString index="62">
            -1 89 -2 rmoveto
            30 hlineto
            36 17 10 18 1 hvcurveto
            30 307 rlineto
            5 hlineto
            133 -318 rlineto
            -14 6 19 -3 25 hhcurveto
            41 hlineto
            33 15 5 10 1 hvcurveto
            4 0 6 -4 9 vhcurveto
            -151 321 205 314 rlineto
            5 8 4 8 5 vvcurveto
            8 1 -14 6 -33 hhcurveto
            -41 hlineto
            -25 -18 -3 -14 -8 hvcurveto
            -188 -307 rlineto
            -6 hlineto
            34 296 33 callsubr
            34 callsubr
            -68 -648 -52 callgsubr
            return
          </CharString>
          <CharString index="63">
            -7 -63 callsubr
            return
          </CharString>
          <CharString index="64">
            147 95 77 131 13 hvcurveto
            return
          </CharString>
          <CharString index="65">
            -1 rmoveto
            15 hlineto
            21 8 6 10 2 hvcurveto
            7 73 rlineto
            22 hlineto
            11 6 8 17 1 hvcurveto
            1 9 rlineto
            17 2 -3 8 -11 hhcurveto
            -22 hlineto
            26 246 rlineto
            10 -7 6 -21 vhcurveto
            -23 hlineto
            -13 -12 -1 -11 -6 hvcurveto
            -164 -257 -1 -2 0 -2 -1 -3 rlinecurve
            -14 -2 7 -31 9 hhcurveto
            129 hlineto
            -7 -73 rlineto
            -10 -2 8 -6 20 hhcurveto
            -90 148 rmoveto
            96 155 rlineto
            2 hlineto
            -6 -27 -4 -22 -3 -28 -8 -78 rcurveline
            endchar
          </CharString>
          <CharString index="66">
            -11 -46 callsubr
            return
          </CharString>
          <CharString index="67">
            -39 callsubr
            -10 return
          </CharString>
          <CharString index="68">
            -30 callsubr
            14 return
          </CharString>
          <CharString index="69">
            rmoveto
            30 18 -21 -34 -63 -50 -23 -59 hvcurveto
            -39 hlineto
            78 12 28 63 60 hhcurveto
            endchar
          </CharString>
          <CharString index="70">
            13 2 -1 24 return
          </CharString>
          <CharString index="71">
            -21 callgsubr
            -16 callsubr
            -12 -6 return
          </CharString>
          <CharString index="72">
            15 hlineto
            37 17 16 24 2 hvcurveto
            10 89 26 49 19 37 5 9 5 9 1 7 rrcurveto
            15 1 -24 4 -15 hhcurveto
            -40 -96 -105 -115 -12 hvcurveto
            -22 -2 15 -17 36 hhcurveto
            return
          </CharString>
          <CharString index="73">
            31 hmoveto
            462 hlineto
            19 11 12 21 2 hvcurveto
            4 34 1 15 0 11 -4 14 rlinecurve
            -133 577 rlineto
            19 -4 -11 7 -16 hhcurveto
            -60 hlineto
            -16 -12 -8 -18 -8 hvcurveto
            -245 -577 -6 -15 -4 -10 -1 -16 rlinecurve
            -5 -34 rlineto
            -21 -1 9 -11 18 hhcurveto
            113 107 rmoveto
            171 436 rlineto
            9 hlineto
            77 -436 rlineto
            endchar
          </CharString>
          <CharString index="74">
            -68 callsubr
            -14 return
          </CharString>
          <CharString index="75">
            -7 -9 -5 -14 hhcurveto
            -22 -27 5 38 return
          </CharString>
          <CharString index="76">
            -76 callgsubr
            endchar
          </CharString>
          <CharString index="77">
            rlineto
            -18 -2 return
          </CharString>
          <CharString index="78">
            -109 -103 callsubr
            return
          </CharString>
          <CharString index="79">
            19 -26 callgsubr
            return
          </CharString>
          <CharString index="80">
            -23 callgsubr
            -36 hhcurveto
            return
          </CharString>
          <CharString index="81">
            -25 -3 hvcurveto
            return
          </CharString>
          <CharString index="82">
            306 -7 rmoveto
            158 128 124 234 235 -128 123 -158 -158 -128 -123 -235 -234 128 -124 158 hvcurveto
            58 vmoveto
            -124 -102 99 201 202 102 98 124 124 102 -98 -202 -201 -102 -99 -124 hvcurveto
            return
          </CharString>
          <CharString index="83">
            rlineto
            103 hlineto
            18 8 7 callsubr
            1 12 rlineto
            30 3 -6 13 -18 hhcurveto
            -104 hlineto
            18 162 rlineto
            18 1 -12 10 -28 hhcurveto
            -14 hlineto
            -29 -13 20 callgsubr
            -18 -162 rlineto
            -104 8 callgsubr
            -1 -12 22 callgsubr
            105 hlineto
            return
          </CharString>
          <CharString index="84">
            hvcurveto
            -37 callsubr
            return
          </CharString>
          <CharString index="85">
            rmoveto
            -6 -10 callsubr
            6 return
          </CharString>
          <CharString index="86">
            13 30 3 hvcurveto
            3 25 rlineto
            30 return
          </CharString>
          <CharString index="87">
            10 -36 hhcurveto
            return
          </CharString>
          <CharString index="88">
            rmoveto
            34 30 23 40 3 hvcurveto
            41 5 -24 23 -35 hhcurveto
            -34 -29 -23 -41 -5 hvcurveto
            -40 -4 24 -23 35 hhcurveto
            endchar
          </CharString>
          <CharString index="89">
            rmoveto
            -16 callgsubr
            return
          </CharString>
          <CharString index="90">
            9 -21 callsubr
            3 return
          </CharString>
          <CharString index="91">
            -6 -59 callsubr
            return
          </CharString>
          <CharString index="92">
            rlineto
            30 2 -6 13 -17 hhcurveto
            return
          </CharString>
          <CharString index="93">
            hvcurveto
            2 13 rlineto
            25 return
          </CharString>
          <CharString index="94">
            -18 -2 19 callsubr
            return
          </CharString>
          <CharString index="95">
            467 rmoveto
            12 hlineto
            18 10 7 16 4 hvcurveto
            16 62 25 113 1 9 rrcurveto
            18 2 -15 10 -37 hhcurveto
            -10 -47 callgsubr
            -1 hvcurveto
            -1 -8 3 -176 rlineto
            -16 1 8 -7 18 hhcurveto
            return
          </CharString>
          <CharString index="96">
            -14 -13 12 hvcurveto
            -3 -14 -4 -22 -3 -26 rrcurveto
            endchar
          </CharString>
          <CharString index="97">
            -63 callsubr
            -6 return
          </CharString>
          <CharString index="98">
            -10 -13 callgsubr
            return
          </CharString>
          <CharString index="99">
            hhcurveto
            -25 hlineto
            return
          </CharString>
          <CharString index="100">
            rmoveto
            27 -36 callgsubr
            3 hvcurveto
            8 30 callgsubr
            -13 -20 callsubr
            -28 -31 callgsubr
            -8 -83 rlineto
            -18 -3 14 -10 36 hhcurveto
            endchar
          </CharString>
          <CharString index="101">
            4 12 vvcurveto
            10 -17 3 -33 -33 -28 return
          </CharString>
          <CharString index="102">
            -36 callgsubr
            3 hvcurveto
            8 83 -27 callsubr
            -23 -31 callgsubr
            -9 -83 -40 callsubr
            return
          </CharString>
          <CharString index="103">
            rlineto
            4 callsubr
            return
          </CharString>
          <CharString index="104">
            16 hlineto
            36 15 16 24 hvcurveto
            78 17 30 20 vvcurveto
            14 -23 5 -15 return
          </CharString>
          <CharString index="105">
            -25 -10 vvcurveto
            -10 6 -3 20 vhcurveto
            return
          </CharString>
          <CharString index="106">
            -36 callgsubr
            1 hvcurveto
            return
          </CharString>
          <CharString index="107">
            35 16 -33 callgsubr
            return
          </CharString>
          <CharString index="108">
            -37 callsubr
            -12 return
          </CharString>
          <CharString index="109">
            rmoveto
            81 238 8 23 6 25 6 23 rlinecurve
            5 hlineto
            -23 2 -25 3 -23 vhcurveto
            29 -238 rlineto
            endchar
          </CharString>
          <CharString index="110">
            hlineto
            18 9 13 30 3 hvcurveto
            2 15 rlineto
            return
          </CharString>
          <CharString index="111">
            18 3 -15 10 -37 hhcurveto
            return
          </CharString>
          <CharString index="112">
            rmoveto
            334 hlineto
            17 8 13 30 3 hvcurveto
            1 9 rlineto
            29 3 -6 14 -16 hhcurveto
            -335 hlineto
            -17 return
          </CharString>
          <CharString index="113">
            10 callgsubr
            -3 hvcurveto
            return
          </CharString>
          <CharString index="114">
            13 30 4 hvcurveto
            return
          </CharString>
          <CharString index="115">
            24 callsubr
            -19 hhcurveto
            return
          </CharString>
          <CharString index="116">
            27 callgsubr
            -13 return
          </CharString>
          <CharString index="117">
            -14 10 -35 hhcurveto
            return
          </CharString>
          <CharString index="118">
            -2 -40 -18 -19 6 -10 17 hvcurveto
            return
          </CharString>
          <CharString index="119">
            3 41 17 19 -7 10 -16 hvcurveto
            return
          </CharString>
          <CharString index="120">
            rlinecurve
            95 -154 rlineto
            -10 6 7 -5 9 hhcurveto
            21 30 22 12 2 hvcurveto
            return
          </CharString>
          <CharString index="121">
            -75 callgsubr
            -68 -648 -30 callsubr
            return
          </CharString>
          <CharString index="122">
            rmoveto
            27 callsubr
            26 hvcurveto
            return
          </CharString>
          <CharString index="123">
            -31 callgsubr
            -9 -83 -52 callgsubr
            return
          </CharString>
          <CharString index="124">
            hlineto
            -17 -9 -13 -30 -2 hvcurveto
            -1 -7 rlineto
            -29 -3 5 -14 18 hhcurveto
            return
          </CharString>
          <CharString index="125">
            208 rlineto
            -21 18 27 -16 42 hhcurveto
            102 74 95 171 18 hvcurveto
            return
          </CharString>
          <CharString index="126">
            15 -10 37 hhcurveto
            return
          </CharString>
          <CharString index="127">
            -32 callsubr
            21 6 29 14 27 hvcurveto
            return
          </CharString>
          <CharString index="128">
            28 callgsubr
            -17 hhcurveto
            return
          </CharString>
          <CharString index="129">
            -7 -10 callsubr
            return
          </CharString>
          <CharString index="130">
            hvcurveto
            37 354 rlineto
            18 11 return
          </CharString>
          <CharString index="131">
            rlineto
            30 4 -7 13 return
          </CharString>
          <CharString index="132">
            35 16 10 18 return
          </CharString>
          <CharString index="133">
            -54 -112 -12 hvcurveto
            -117 -12 -29 -50 -49 hhcurveto
            endchar
          </CharString>
          <CharString index="134">
            32 callgsubr
            13 return
          </CharString>
          <CharString index="135">
            6 2 4 4 vvcurveto
            return
          </CharString>
          <CharString index="136">
            -16 -10 -18 -3 hvcurveto
            return
          </CharString>
          <CharString index="137">
            hlineto
            -69 -667 rlineto
            -19 10 -9 39 vhcurveto
            17 hlineto
            return
          </CharString>
          <CharString index="138">
            6 hlineto
            20 9 10 17 2 hvcurveto
            82 783 rlineto
            return
          </CharString>
          <CharString index="139">
            -34 callgsubr
            9 30 callgsubr
            return
          </CharString>
          <CharString index="140">
            -68 callsubr
            -15 return
          </CharString>
          <CharString index="141">
            -20 callsubr
            -30 -31 callgsubr
            return
          </CharString>
          <CharString index="142">
            hhcurveto
            172 98 110 248 25 hvcurveto
            13 return
          </CharString>
          <CharString index="143">
            rlineto
            -30 -4 7 -13 return
          </CharString>
          <CharString index="144">
            648 rlineto
            18 return
          </CharString>
          <CharString index="145">
            9 11 25 2 hvcurveto
            1 10 rlineto
            25 3 return
          </CharString>
          <CharString index="146">
            -9 -9 -4 -10 -10 hvcurveto
            -139 -154 return
          </CharString>
          <CharString index="147">
            hhcurveto
            131 78 94 174 18 hvcurveto
            9 return
          </CharString>
        <CharString name=".notdef">
          3 -20 hmoveto
          500 hlineto
          73 700 rlineto
          -500 hlineto
          218 -305 rmoveto
          -144 255 rlineto
          340 hlineto
          -428 -555 rmoveto
          53 510 144 -255 rlineto
          203 -255 rmoveto
          -143 255 196 255 rlineto
          -427 -555 rmoveto
          196 255 144 -255 rlineto
          endchar
        </CharString>
        <CharString name="A">
          -6 23 -2 -106 callgsubr
          endchar
        </CharString>
        <CharString name="AE">
          235 26 -2 -56 callgsubr
        </CharString>
        <CharString name="AEacute">
          235 417 756 rmoveto
          -105 callsubr
          -391 -758 -56 callgsubr
        </CharString>
        <CharString name="Aacute">
          -6 276 756 rmoveto
          -105 callsubr
          -253 -758 -106 callgsubr
          endchar
        </CharString>
        <CharString name="Abreve">
          -6 306 -72 callsubr
          -283 -758 -106 callgsubr
          endchar
        </CharString>
        <CharString name="Acircumflex">
          -6 206 750 -107 callsubr
          -183 -752 -106 callgsubr
          endchar
        </CharString>
        <CharString name="Adieresis">
          -6 233 766 -101 callgsubr
          -359 -768 -106 callgsubr
          endchar
        </CharString>
        <CharString name="Agrave">
          -6 326 756 -97 callsubr
          -303 -758 -106 callgsubr
          endchar
        </CharString>
        <CharString name="Amacron">
          -6 211 779 -86 callgsubr
          -188 -781 -106 callgsubr
          endchar
        </CharString>
        <CharString name="Aogonek">
          -6 460 -98 4 callgsubr
          16 4 21 8 21 hvcurveto
          38 hlineto
          29 13 8 12 1 hvcurveto
          5 0 5 -1 6 vhcurveto
          -101 643 rlineto
          17 -3 -16 8 -32 hhcurveto
          -47 hlineto
          -30 -19 -8 -17 -7 hvcurveto
          -233 -643 rlineto
          -2 -6 -2 -5 -5 vvcurveto
          -12 -1 12 -8 31 hhcurveto
          -77 callsubr
          17 -128 rlineto
          -26 -38 -7 -42 -24 -65 callsubr
          -278 356 2 callsubr
        </CharString>
        <CharString name="Aring">
          -6 303 732 -78 callsubr
          -286 -786 -106 callgsubr
          endchar
        </CharString>
        <CharString name="Aringacute">
          -6 291 816 rmoveto
          37 19 10 12 12 hvcurveto
          79 68 7 3 8 vvcurveto
          10 1 -18 3 -37 hhcurveto
          -37 -28 -6 -20 -15 hvcurveto
          -16 -23 -11 -16 -20 -36 rrcurveto
          -10 -1 7 -3 21 hhcurveto
          182 -782 rmoveto
          -97 617 10 14 6 17 2 19 rlinecurve
          55 5 -31 39 -58 hhcurveto
          -58 -39 -39 -55 -6 hvcurveto
          -2 -16 2 -15 4 -12 -226 -624 rcurveline
          -2 -6 -2 -5 -5 vvcurveto
          -12 -1 12 -8 31 hhcurveto
          -77 callsubr
          18 -137 rlineto
          -12 callgsubr
          23 hhcurveto
          38 hlineto
          29 13 8 12 1 hvcurveto
          5 0 5 -1 6 vhcurveto
          -213 666 rmoveto
          26 3 16 16 26 hhcurveto
          26 13 -16 -26 -3 hvcurveto
          -26 -3 -17 -15 -25 hhcurveto
          -26 -13 15 26 3 hvcurveto
          -78 -442 2 callsubr
        </CharString>
        <CharString name="Atilde">
          -6 174 761 rmoveto
          -104 callsubr
          -141 -767 -106 callgsubr
          endchar
        </CharString>
        <CharString name="B">
          28 72 hmoveto
          178 hlineto
          160 71 76 122 12 hvcurveto
          11 101 -54 49 -50 16 rrcurveto
          4 vlineto
          53 25 45 58 9 77 rrcurveto
          107 11 -56 65 -143 hhcurveto
          -173 hlineto
          -24 -41 callsubr
          -66 -628 rlineto
          -25 -3 9 -11 24 hhcurveto
          136 409 rmoveto
          20 187 rlineto
          82 hlineto
          53 21 -27 -64 -6 hvcurveto
          -61 -6 -32 -35 -50 hhcurveto
          -114 -304 rmoveto
          21 200 rlineto
          90 hlineto
          59 26 -30 -66 -7 hvcurveto
          -70 -7 -32 -34 -55 hhcurveto
          endchar
        </CharString>
        <CharString name="C">
          -52 289 -7 -85 callsubr
        </CharString>
        <CharString name="CR">
          -271 endchar
        </CharString>
        <CharString name="Cacute">
          -52 296 756 rmoveto
          -105 callsubr
          -7 -763 -85 callsubr
        </CharString>
        <CharString name="Cacute.loclPLK">
          -52 306 756 -79 callsubr
          -17 -763 -85 callsubr
        </CharString>
        <CharString name="Ccaron">
          -52 321 753 -102 callgsubr
          -32 -760 -85 callsubr
        </CharString>
        <CharString name="Ccedilla">
          -52 447 693 rmoveto
          8 -20 -34 6 -37 hhcurveto
          -188 -92 -116 -240 -25 hvcurveto
          -21 -203 52 -112 121 -33 rrcurveto
          -20 -57 -6 -16 -9 -71 callsubr
          14 46 rlineto
          -1 10 11 0 11 hhcurveto
          35 34 6 10 22 hvcurveto
          23 12 12 17 1 28 1 34 -10 33 -29 -9 rrcurveto
          -9 -22 -22 -7 -34 hhcurveto
          -93 -38 80 163 17 hvcurveto
          164 18 52 78 93 hhcurveto
          31 23 -7 -7 17 hvcurveto
          24 -11 21 52 4 34 2 18 -4 15 -20 6 rrcurveto
          endchar
        </CharString>
        <CharString name="Ccircumflex">
          -52 226 750 -107 callsubr
          63 -757 -85 callsubr
        </CharString>
        <CharString name="Cdotaccent">
          -52 327 766 -106 callsubr
          -38 -773 -85 callsubr
        </CharString>
        <CharString name="D">
          -29 callgsubr
          endchar
        </CharString>
        <CharString name="Dcaron">
          66 324 753 -102 callgsubr
          -256 -753 rmoveto
          -74 callgsubr
          endchar
        </CharString>
        <CharString name="Dcroat">
          -46 callgsubr
        </CharString>
        <CharString name="E">
          -54 71 hmoveto
          -104 callgsubr
          endchar
        </CharString>
        <CharString name="Eacute">
          -54 270 756 rmoveto
          -105 callsubr
          -199 -756 rmoveto
          -104 callgsubr
          endchar
        </CharString>
        <CharString name="Ebreve">
          -54 300 -72 callsubr
          -229 -756 rmoveto
          -104 callgsubr
          endchar
        </CharString>
        <CharString name="Ecaron">
          -54 295 753 -102 callgsubr
          -224 -753 rmoveto
          -104 callgsubr
          endchar
        </CharString>
        <CharString name="Ecircumflex">
          -54 200 750 -107 callsubr
          -129 -750 rmoveto
          -104 callgsubr
          endchar
        </CharString>
        <CharString name="Edieresis">
          -54 227 766 -101 callgsubr
          -305 -766 rmoveto
          -104 callgsubr
          endchar
        </CharString>
        <CharString name="Edotaccent">
          -54 301 766 -106 callsubr
          -230 -766 rmoveto
          -104 callgsubr
          endchar
        </CharString>
        <CharString name="Egrave">
          -54 320 756 -97 callsubr
          -249 -756 rmoveto
          -104 callgsubr
          endchar
        </CharString>
        <CharString name="Emacron">
          -54 205 779 -86 callgsubr
          -134 -779 rmoveto
          -104 callgsubr
          endchar
        </CharString>
        <CharString name="Eng">
          79 526 702 rmoveto
          -20 -14 callgsubr
          -41 -373 -3 -25 1 -25 2 -25 rlinecurve
          -4 -2 -7 25 -7 24 -10 24 rlinecurve
          -158 380 rlineto
          21 -8 -15 4 -21 hhcurveto
          -26 hlineto
          -36 -15 14 callsubr
          13 -10 36 hhcurveto
          20 hlineto
          36 17 10 18 1 hvcurveto
          42 383 2 23 -1 22 -2 23 rlinecurve
          5 2 6 -21 5 -22 9 -20 rlinecurve
          160 -382 -10 -93 rlineto
          -40 -4 -11 -12 -19 -16 -10 4 -6 hhcurveto
          -19 -13 -44 34 callgsubr
          -3 37 -9 50 hhcurveto
          63 66 41 110 12 hvcurveto
          77 735 rlineto
          18 -25 callgsubr
          endchar
        </CharString>
        <CharString name="Eogonek">
          -54 443 -105 15 callsubr
          6 7 3 12 2 16 3 25 rcurveline
          30 2 -5 13 -18 hhcurveto
          -194 hlineto
          20 192 rlineto
          173 hlineto
          17 10 -54 callsubr
          -6 13 -17 hhcurveto
          -173 hlineto
          18 175 rlineto
          194 hlineto
          17 11 13 30 2 38 callgsubr
          -293 -10 callgsubr
          -66 -628 -4 callgsubr
          250 hlineto
          -17 -33 -5 -32 -20 -65 callsubr
          endchar
        </CharString>
        <CharString name="Eth">
          -46 callgsubr
        </CharString>
        <CharString name="Euro">
          -8 282 -7 rmoveto
          94 83 43 36 4 hvcurveto
          16 1 -16 56 -28 -15 -38 -37 -67 hhcurveto
          -59 -36 41 86 -7 hvcurveto
          190 hlineto
          19 9 10 23 2 hvcurveto
          1 7 rlineto
          23 2 -7 9 -18 hhcurveto
          -199 hlineto
          15 2 14 1 16 vhcurveto
          2 12 2 13 1 12 rrcurveto
          200 hlineto
          18 9 10 23 2 hvcurveto
          1 7 rlineto
          23 3 -7 9 -19 hhcurveto
          -192 hlineto
          91 25 45 42 63 64 25 -31 12 hhcurveto
          21 38 54 24 3 hvcurveto
          27 3 -68 40 -90 hhcurveto
          -145 -92 -81 -166 -40 hvcurveto
          -35 hlineto
          -18 -9 -9 -23 -3 hvcurveto
          -1 -7 rlineto
          -23 -2 7 -10 19 hhcurveto
          28 hlineto
          -1 -12 -1 -12 -2 -13 -1 -15 -2 -15 -1 -15 rrcurveto
          -29 hlineto
          -19 -9 -9 -23 -2 hvcurveto
          -1 -7 rlineto
          -23 -2 7 -10 18 hhcurveto
          36 hlineto
          -165 5 71 -76 145 hhcurveto
          endchar
        </CharString>
        <CharString name="F">
          -88 89 -2 -18 callsubr
          29 276 rlineto
          159 hlineto
          18 9 13 30 3 38 callgsubr
          -159 hlineto
          18 176 rlineto
          171 hlineto
          18 9 13 30 3 38 callgsubr
          -270 -10 callgsubr
          -67 -638 -52 callgsubr
          endchar
        </CharString>
        <CharString name="G">
          41 354 593 -83 callgsubr
          endchar
        </CharString>
        <CharString name="Gbreve">
          41 349 -72 callsubr
          5 -163 -83 callgsubr
          endchar
        </CharString>
        <CharString name="Gcircumflex">
          41 249 750 -107 callsubr
          105 -157 -83 callgsubr
          endchar
        </CharString>
        <CharString name="Gcommaaccent">
          41 354 593 -83 callgsubr
          -62 -644 rmoveto
          -16 hlineto
          -36 -15 -16 -24 hvcurveto
          -78 -17 -30 -20 vvcurveto
          -14 23 -5 15 29 58 71 78 22 -12 16 -29 vhcurveto
          endchar
        </CharString>
        <CharString name="Gdotaccent">
          41 350 766 -106 callsubr
          4 -173 -83 callgsubr
          endchar
        </CharString>
        <CharString name="H">
          90 89 -2 -63 callgsubr
          endchar
        </CharString>
        <CharString name="Hbar">
          90 634 568 rmoveto
          -66 hlineto
          11 106 -27 callsubr
          -31 -31 callgsubr
          -11 -106 rlineto
          -204 hlineto
          11 106 -23 callgsubr
          -35 hhcurveto
          -32 -31 callgsubr
          -11 -106 rlineto
          -72 hlineto
          -31 11 callsubr
          73 hlineto
          -48 -455 -52 callgsubr
          32 hlineto
          25 callsubr
          1 hvcurveto
          30 276 rlineto
          204 hlineto
          -29 -276 21 callgsubr
          48 455 rlineto
          67 hlineto
          29 12 callsubr
          -215 -154 rmoveto
          -204 hlineto
          7 67 rlineto
          204 hlineto
          endchar
        </CharString>
        <CharString name="Hcircumflex">
          90 253 750 -107 callsubr
          -164 -752 -63 callgsubr
          endchar
        </CharString>
        <CharString name="I">
          -249 88 -3 -85 callgsubr
          endchar
        </CharString>
        <CharString name="IJ">
          106 88 -3 -85 callgsubr
          251 -4 -70 callsubr
          endchar
        </CharString>
        <CharString name="Iacute">
          -249 154 756 rmoveto
          -105 callsubr
          -66 -759 -85 callgsubr
          endchar
        </CharString>
        <CharString name="Iacute_J.loclNLD">
          106 154 756 rmoveto
          -105 callsubr
          346 hmoveto
          -105 callsubr
          -412 -759 -85 callgsubr
          251 -4 -70 callsubr
          endchar
        </CharString>
        <CharString name="Ibreve">
          -249 184 -72 callsubr
          -96 -759 -85 callgsubr
          endchar
        </CharString>
        <CharString name="Icircumflex">
          -249 84 750 -107 callsubr
          4 -753 -85 callgsubr
          endchar
        </CharString>
        <CharString name="Idieresis">
          -249 111 766 -101 callgsubr
          -172 -769 -85 callgsubr
          endchar
        </CharString>
        <CharString name="Idotaccent">
          -249 185 766 -106 callsubr
          -97 -769 -85 callgsubr
          endchar
        </CharString>
        <CharString name="Igrave">
          -249 204 756 -97 callsubr
          -116 -759 -85 callgsubr
          endchar
        </CharString>
        <CharString name="Imacron">
          -249 89 779 -86 callgsubr
          -1 -782 -85 callgsubr
          endchar
        </CharString>
        <CharString name="Iogonek">
          -249 227 -101 4 callgsubr
          20 6 28 13 27 hvcurveto
          3 4 2 4 6 vvcurveto
          69 648 -33 callsubr
          11 -35 hhcurveto
          -32 hlineto
          -36 -16 -11 -61 callsubr
          -68 -648 -39 callsubr
          -11 36 hhcurveto
          13 hlineto
          -14 -30 -4 -30 -18 -65 callsubr
          endchar
        </CharString>
        <CharString name="Itilde">
          -249 65 761 rmoveto
          -79 callgsubr
          32 -768 -85 callgsubr
          endchar
        </CharString>
        <CharString name="J">
          -156 77 -7 -70 callsubr
          endchar
        </CharString>
        <CharString name="Jcircumflex">
          -156 168 750 -107 callsubr
          -91 -757 -70 callsubr
          endchar
        </CharString>
        <CharString name="K">
          -45 callsubr
          endchar
        </CharString>
        <CharString name="Kcommaaccent">
          -45 callsubr
          112 -236 -80 callsubr
          endchar
        </CharString>
        <CharString name="L">
          -103 71 hmoveto
          -71 callgsubr
          endchar
        </CharString>
        <CharString name="Lacute">
          -103 156 757 rmoveto
          -105 callsubr
          -85 -757 rmoveto
          -71 callgsubr
          endchar
        </CharString>
        <CharString name="Lcaron">
          -103 71 hmoveto
          -71 callgsubr
          266 516 -48 callsubr
          endchar
        </CharString>
        <CharString name="Lcommaaccent">
          -103 71 hmoveto
          -71 callgsubr
          91 -238 -80 callsubr
          endchar
        </CharString>
        <CharString name="Ldot">
          -103 71 hmoveto
          -71 callgsubr
          240 296 -19 callsubr
        </CharString>
        <CharString name="Lslash">
          -103 351 111 rmoveto
          -170 hlineto
          59 563 rlineto
          18 2 -14 34 callsubr
          -67 -638 -4 callgsubr
          269 hlineto
          19 -17 callsubr
          -6 13 -19 hhcurveto
          endchar
        </CharString>
        <CharString name="M">
          178 330 229 rmoveto
          23 hlineto
          17 10 6 14 8 hvcurveto
          108 171 11 18 10 19 9 18 rlinecurve
          4 -1 -5 -20 -5 -21 -2 -20 rlinecurve
          -41 -387 rlineto
          -19 -2 14 -9 35 hhcurveto
          26 hlineto
          36 16 9 19 3 hvcurveto
          68 648 rlineto
          19 1 -14 9 -36 hhcurveto
          -27 hlineto
          -28 -15 -7 -17 -12 hvcurveto
          -164 -264 -10 -15 -7 -17 -5 -16 rlinecurve
          -3 16 -4 17 -6 15 -110 264 rcurveline
          17 -7 -15 7 -27 hhcurveto
          -28 hlineto
          -36 -15 3 callgsubr
          -68 -648 rlineto
          -19 -2 13 -9 36 hhcurveto
          26 hlineto
          36 16 9 19 3 hvcurveto
          40 387 2 20 0 21 -1 20 rlinecurve
          4 1 6 -18 5 -19 7 -18 rlinecurve
          72 -171 rlineto
          -14 6 8 -6 18 hhcurveto
          endchar
        </CharString>
        <CharString name="N">
          79 -48 callgsubr
          endchar
        </CharString>
        <CharString name="NULL">
          -511 endchar
        </CharString>
        <CharString name="Nacute">
          79 317 756 rmoveto
          -105 callsubr
          -235 -758 -98 callgsubr
          endchar
        </CharString>
        <CharString name="Nacute.loclPLK">
          79 327 756 -79 callsubr
          -245 -758 -98 callgsubr
          endchar
        </CharString>
        <CharString name="Ncaron">
          79 342 753 -102 callgsubr
          -260 -755 -98 callgsubr
          endchar
        </CharString>
        <CharString name="Ncommaaccent">
          79 -48 callgsubr
          156 -236 -80 callsubr
          endchar
        </CharString>
        <CharString name="Ntilde">
          79 215 761 rmoveto
          -104 callsubr
          -123 -767 -98 callgsubr
          endchar
        </CharString>
        <CharString name="O">
          88 271 -7 -102 callsubr
          endchar
        </CharString>
        <CharString name="OE">
          312 804 700 rmoveto
          -303 -10 callgsubr
          -1 -10 rlineto
          38 -32 -44 15 -59 hhcurveto
          -157 -93 -113 -243 -27 hvcurveto
          -248 -26 93 -110 138 hhcurveto
          54 48 14 29 39 hvcurveto
          -25 -2 9 -11 23 hhcurveto
          303 hlineto
          18 9 -54 callsubr
          -5 13 -18 hhcurveto
          -204 hlineto
          20 192 rlineto
          183 hlineto
          17 10 -54 callsubr
          -6 13 -17 hhcurveto
          -183 hlineto
          18 175 rlineto
          204 hlineto
          17 11 13 30 2 hvcurveto
          3 25 -15 callsubr
          -520 -596 rmoveto
          -81 -36 63 184 19 hvcurveto
          183 20 48 62 82 hhcurveto
          80 36 -62 -183 -20 hvcurveto
          -184 -19 -48 -63 -81 hhcurveto
          endchar
        </CharString>
        <CharString name="Oacute">
          88 322 756 rmoveto
          -105 callsubr
          -51 -763 -102 callsubr
          endchar
        </CharString>
        <CharString name="Oacute.loclPLK">
          88 332 756 -79 callsubr
          -61 -763 -102 callsubr
          endchar
        </CharString>
        <CharString name="Obreve">
          88 352 -72 callsubr
          -81 -763 -102 callsubr
          endchar
        </CharString>
        <CharString name="Ocircumflex">
          88 252 750 -107 callsubr
          19 -757 -102 callsubr
          endchar
        </CharString>
        <CharString name="Odieresis">
          88 279 766 -101 callgsubr
          -157 -773 -102 callsubr
          endchar
        </CharString>
        <CharString name="Ograve">
          88 372 756 -97 callsubr
          -101 -763 -102 callsubr
          endchar
        </CharString>
        <CharString name="Ohorn">
          88 632 706 -91 callsubr
          endchar
        </CharString>
        <CharString name="Ohungarumlaut">
          88 260 756 -81 callsubr
          -140 -763 -102 callsubr
          endchar
        </CharString>
        <CharString name="Omacron">
          88 257 779 -86 callgsubr
          14 -786 -102 callsubr
          endchar
        </CharString>
        <CharString name="Oslash">
          88 520 628 -58 callgsubr
        </CharString>
        <CharString name="Oslashacute">
          88 319 756 rmoveto
          -105 callsubr
          201 -128 -58 callgsubr
        </CharString>
        <CharString name="Otilde">
          88 220 761 rmoveto
          -104 callsubr
          61 -772 -102 callsubr
          endchar
        </CharString>
        <CharString name="P">
          90 -2 rmoveto
          27 hlineto
          36 17 10 18 1 hvcurveto
          27 249 rlineto
          84 hlineto
          44 143 25 189 20 hvcurveto
          185 19 -118 26 -73 hhcurveto
          -170 hlineto
          -24 -12 -46 callsubr
          -67 -638 -40 callsubr
          37 hhcurveto
          119 387 rmoveto
          21 204 rlineto
          70 hlineto
          30 38 -18 -82 -8 hvcurveto
          -86 -9 -43 -18 -27 hhcurveto
          endchar
        </CharString>
        <CharString name="Q">
          88 480 -163 rmoveto
          29 37 71 14 3 hvcurveto
          1 7 -2 6 -9 4 -167 76 rcurveline
          4 vlineto
          106 43 67 107 20 181 rrcurveto
          247 26 -86 110 -159 hhcurveto
          -176 -94 -109 -248 -26 hvcurveto
          -19 -182 42 -100 86 -54 rrcurveto
          -50 79 228 -127 14 hhcurveto
          -197 265 rmoveto
          -81 -36 64 184 19 hvcurveto
          183 20 49 63 81 hhcurveto
          80 36 -63 -183 -20 hvcurveto
          -184 -19 -49 -64 -80 hhcurveto
          endchar
        </CharString>
        <CharString name="R">
          2 87 -2 -49 callsubr
        </CharString>
        <CharString name="Racute">
          2 274 756 rmoveto
          -105 callsubr
          -187 -758 -49 callsubr
        </CharString>
        <CharString name="Rcaron">
          2 299 753 -102 callgsubr
          -212 -755 -49 callsubr
        </CharString>
        <CharString name="Rcommaaccent">
          2 87 -2 -86 callsubr
          -83 -633 -80 callsubr
          endchar
        </CharString>
        <CharString name="S">
          -43 callgsubr
          endchar
        </CharString>
        <CharString name="Sacute">
          -74 245 756 rmoveto
          -105 callsubr
          -70 -763 rmoveto
          -92 callgsubr
          endchar
        </CharString>
        <CharString name="Sacute.loclPLK">
          -74 255 756 -79 callsubr
          -80 -763 rmoveto
          -92 callgsubr
          endchar
        </CharString>
        <CharString name="Scaron">
          -74 270 753 -102 callgsubr
          -95 -760 rmoveto
          -92 callgsubr
          endchar
        </CharString>
        <CharString name="Scedilla">
          -74 282 400 rmoveto
          -52 32 -42 27 55 vvcurveto
          44 30 39 66 21 25 -5 -12 30 vhcurveto
          -2 7 10 -4 7 hhcurveto
          22 17 56 24 10 -6 10 -11 6 hvcurveto
          19 -32 -56 10 -45 hhcurveto
          -124 -92 -83 -134 -93 53 -45 71 -44 hvcurveto
          49 -30 44 -27 -54 vvcurveto
          -70 -48 -24 -51 -41 -34 12 22 -37 vhcurveto
          4 -5 -5 3 -6 hhcurveto
          -23 -18 -53 -29 -22 24 -14 21 -9 hvcurveto
          26 -15 30 -7 32 -3 rrcurveto
          -18 -50 -5 -15 -8 -71 callsubr
          13 46 rlineto
          132 7 79 83 138 vvcurveto
          90 -51 43 -73 45 vhcurveto
          endchar
        </CharString>
        <CharString name="Scircumflex">
          -74 175 750 -107 callsubr
          -757 vmoveto
          -92 callgsubr
          endchar
        </CharString>
        <CharString name="Scommaaccent">
          -43 callgsubr
          -39 -231 -80 callsubr
          endchar
        </CharString>
        <CharString name="T">
          -57 184 -2 -65 callgsubr
          endchar
        </CharString>
        <CharString name="Tbar">
          -57 463 700 rmoveto
          -379 6 callsubr
          -3 -25 -3 callgsubr
          123 hlineto
          -20 -194 rlineto
          -116 hlineto
          -30 11 callsubr
          116 hlineto
          -30 -282 21 callgsubr
          30 282 rlineto
          111 hlineto
          30 12 callsubr
          -112 hlineto
          21 194 rlineto
          123 hlineto
          18 10 13 30 2 hvcurveto
          4 24 callgsubr
          -18 hhcurveto
          endchar
        </CharString>
        <CharString name="Tcaron">
          -57 274 753 -102 callgsubr
          -90 -755 -65 callgsubr
          endchar
        </CharString>
        <CharString name="Thorn">
          84 -2 rmoveto
          31 hlineto
          35 -5 callgsubr
          14 136 rlineto
          83 hlineto
          44 142 25 189 21 hvcurveto
          184 19 -118 27 -73 hhcurveto
          -73 hlineto
          9 87 33 callsubr
          10 -35 hhcurveto
          -31 hlineto
          -36 -15 14 callsubr
          13 -10 36 hhcurveto
          110 273 rmoveto
          22 205 rlineto
          67 hlineto
          32 37 -18 -82 -9 hvcurveto
          -87 -9 -42 -18 -28 hhcurveto
          endchar
        </CharString>
        <CharString name="U">
          72 264 -7 rmoveto
          -43 callsubr
          50 473 -27 callsubr
          -30 -99 callgsubr
          endchar
        </CharString>
        <CharString name="Uacute">
          72 314 756 rmoveto
          -105 callsubr
          -50 -763 rmoveto
          -43 callsubr
          50 473 -27 callsubr
          -30 -99 callgsubr
          endchar
        </CharString>
        <CharString name="Ubreve">
          72 344 -72 callsubr
          -80 -763 rmoveto
          -43 callsubr
          50 473 -27 callsubr
          -30 -99 callgsubr
          endchar
        </CharString>
        <CharString name="Ucircumflex">
          72 244 750 -107 callsubr
          20 -757 rmoveto
          -43 callsubr
          50 473 -27 callsubr
          -30 -99 callgsubr
          endchar
        </CharString>
        <CharString name="Udieresis">
          72 271 766 -101 callgsubr
          -156 -773 rmoveto
          -43 callsubr
          50 473 -27 callsubr
          -30 -99 callgsubr
          endchar
        </CharString>
        <CharString name="Ugrave">
          72 364 756 -97 callsubr
          -100 -763 rmoveto
          -43 callsubr
          50 473 -27 callsubr
          -30 -99 callgsubr
          endchar
        </CharString>
        <CharString name="Uhorn">
          72 650 755 -15 callgsubr
          -29 -20 rlineto
          -8 -4 -54 callgsubr
          -18 -14 -15 -29 vhcurveto
          -44 -99 callgsubr
          -43 callsubr
          49 464 rlineto
          57 9 25 34 47 vvcurveto
          endchar
        </CharString>
        <CharString name="Uhungarumlaut">
          72 252 756 -81 callsubr
          -139 -763 rmoveto
          -43 callsubr
          50 473 -27 callsubr
          -30 -99 callgsubr
          endchar
        </CharString>
        <CharString name="Umacron">
          72 249 779 -86 callgsubr
          15 -786 rmoveto
          -43 callsubr
          50 473 -27 callsubr
          -30 -99 callgsubr
          endchar
        </CharString>
        <CharString name="Uogonek">
          72 521 702 rmoveto
          -30 -99 callgsubr
          26 24 2 5 22 hvcurveto
          -11 -27 -4 -26 -17 -65 callsubr
          32 callgsubr
          14 27 hvcurveto
          65 34 40 61 8 82 50 473 rcurveline
          18 2 25 callgsubr
          endchar
        </CharString>
        <CharString name="Uring">
          72 341 732 -78 callsubr
          -83 -791 rmoveto
          -43 callsubr
          50 473 -27 callsubr
          -30 -99 callgsubr
          endchar
        </CharString>
        <CharString name="Utilde">
          72 212 761 rmoveto
          -104 callsubr
          62 -772 rmoveto
          -43 callsubr
          50 473 -27 callsubr
          -30 -99 callgsubr
          endchar
        </CharString>
        <CharString name="V">
          -3 198 -2 rmoveto
          58 hlineto
          25 20 5 14 5 hvcurveto
          230 648 2 7 2 5 1 5 rlinecurve
          13 1 -15 7 -35 hhcurveto
          -28 hlineto
          -25 -20 -6 -18 -6 hvcurveto
          -156 -481 -16 -63 rlineto
          -3 hlineto
          -2 63 -53 481 rlineto
          18 -2 -19 6 -25 hhcurveto
          -29 hlineto
          -35 -18 -8 -12 -1 hvcurveto
          -1 -5 2 -5 1 -6 97 -649 rcurveline
          -12 callgsubr
          25 hhcurveto
          endchar
        </CharString>
        <CharString name="W">
          241 172 -2 -92 callsubr
        </CharString>
        <CharString name="Wacute">
          241 397 756 rmoveto
          -105 callsubr
          -225 -758 -92 callsubr
        </CharString>
        <CharString name="Wcircumflex">
          241 327 750 -107 callsubr
          -155 -752 -92 callsubr
        </CharString>
        <CharString name="Wdieresis">
          241 354 766 -101 callgsubr
          -331 -768 -92 callsubr
        </CharString>
        <CharString name="Wgrave">
          241 447 756 -97 callsubr
          -275 -758 -92 callsubr
        </CharString>
        <CharString name="X">
          -5 38 -2 rmoveto
          34 hlineto
          25 18 1 17 8 hvcurveto
          135 262 72 -262 rlineto
          -14 4 19 -4 24 hhcurveto
          35 hlineto
          36 17 7 11 1 hvcurveto
          1 7 -3 6 -3 10 -116 325 rcurveline
          176 297 rlineto
          5 10 4 7 6 vvcurveto
          12 2 -18 6 -35 hhcurveto
          -35 hlineto
          -25 -19 -2 -16 -7 hvcurveto
          -118 -238 -61 238 rlineto
          15 -3 -20 3 -23 hhcurveto
          -37 hlineto
          -37 -18 -7 -11 -1 hvcurveto
          -7 3 -7 4 -9 vhcurveto
          105 -295 -190 -327 -6 -11 -3 -6 -1 -6 rlinecurve
          -12 -1 15 -6 37 hhcurveto
          endchar
        </CharString>
        <CharString name="Y">
          -27 199 -2 -90 callgsubr
          endchar
        </CharString>
        <CharString name="Y.loclGUA">
          -13 441 701 -96 callgsubr
          endchar
        </CharString>
        <CharString name="Yacute">
          -27 264 756 rmoveto
          -105 callsubr
          -65 -758 -90 callgsubr
          endchar
        </CharString>
        <CharString name="Yacute.loclGUA">
          -13 271 756 rmoveto
          -105 callsubr
          170 -55 -96 callgsubr
          endchar
        </CharString>
        <CharString name="Ycircumflex">
          -27 194 750 -107 callsubr
          5 -752 -90 callgsubr
          endchar
        </CharString>
        <CharString name="Ycircumflex.loclGUA">
          -13 201 750 -107 callsubr
          240 -49 -96 callgsubr
          endchar
        </CharString>
        <CharString name="Ydieresis">
          -27 221 766 -101 callgsubr
          -171 -768 -90 callgsubr
          endchar
        </CharString>
        <CharString name="Ydieresis.loclGUA">
          -13 228 766 -101 callgsubr
          64 -65 -96 callgsubr
          endchar
        </CharString>
        <CharString name="Ygrave">
          -27 314 756 -97 callsubr
          -115 -758 -90 callgsubr
          endchar
        </CharString>
        <CharString name="Ygrave.loclGUA">
          -13 321 756 -97 callsubr
          120 -55 -96 callgsubr
          endchar
        </CharString>
        <CharString name="Z">
          -4 32 -60 callsubr
          endchar
        </CharString>
        <CharString name="Zacute">
          -4 278 756 rmoveto
          -105 callsubr
          -246 -756 rmoveto
          -89 callsubr
          endchar
        </CharString>
        <CharString name="Zacute.loclPLK">
          -4 288 756 -79 callsubr
          -256 -756 rmoveto
          -89 callsubr
          endchar
        </CharString>
        <CharString name="Zcaron">
          -4 303 753 -102 callgsubr
          -271 -753 rmoveto
          -89 callsubr
          endchar
        </CharString>
        <CharString name="Zdotaccent">
          -4 309 766 -106 callsubr
          -277 -766 rmoveto
          -89 callsubr
          endchar
        </CharString>
        <CharString name="a">
          -30 162 -8 -105 callgsubr
        </CharString>
        <CharString name="aacute">
          -30 240 579 rmoveto
          -105 callsubr
          -78 -50 callgsubr
        </CharString>
        <CharString name="abreve">
          -30 270 579 -95 callsubr
        </CharString>
        <CharString name="acircumflex">
          -30 170 -100 callgsubr
          -8 -82 callsubr
        </CharString>
        <CharString name="acute">
          -255 66 579 rmoveto
          -105 callsubr
          endchar
        </CharString>
        <CharString name="acute.loclPLK">
          -255 74 579 -79 callsubr
          endchar
        </CharString>
        <CharString name="acutecomb">
          -511 13 579 rmoveto
          -105 callsubr
          endchar
        </CharString>
        <CharString name="adieresis">
          -30 197 589 -101 callgsubr
          -184 -597 -105 callgsubr
        </CharString>
        <CharString name="ae">
          153 146 -7 -60 callgsubr
        </CharString>
        <CharString name="aeacute">
          153 338 579 rmoveto
          -105 callsubr
          -192 -586 -60 callgsubr
        </CharString>
        <CharString name="agrave">
          -30 290 579 -97 callsubr
          -128 -50 callgsubr
        </CharString>
        <CharString name="amacron">
          -30 175 602 -86 callgsubr
          -13 -610 -105 callgsubr
        </CharString>
        <CharString name="ampersand">
          9 491 419 rmoveto
          -35 hlineto
          10 99 rlineto
          19 2 -11 9 -30 hhcurveto
          -27 hlineto
          -29 -17 -9 -19 -4 hvcurveto
          -22 -99 rlineto
          -72 hlineto
          -47 -25 47 50 5 hvcurveto
          45 4 20 46 44 19 13 -8 6 hhcurveto
          13 20 38 32 4 hvcurveto
          27 2 -51 11 -38 hhcurveto
          -101 -71 -63 -109 -11 hvcurveto
          -8 -71 23 -52 43 -24 -1 -4 rcurveline
          -68 -24 -32 -66 -10 -90 rrcurveto
          -141 -15 63 -70 112 hhcurveto
          54 46 16 25 50 hvcurveto
          -30 17 27 -11 41 hhcurveto
          25 54 3 39 5 hvcurveto
          8 1 -5 55 -16 -5 -5 -5 -12 hhcurveto
          -18 -5 14 41 4 hvcurveto
          19 171 rlineto
          34 3 callsubr
          30 3 -7 12 -17 hhcurveto
          -354 -214 rmoveto
          79 8 27 35 66 hhcurveto
          80 hlineto
          -20 -188 rlineto
          -3 0 -4 -1 -3 vhcurveto
          -18 -41 -27 -10 -31 hhcurveto
          -47 -22 33 79 8 hvcurveto
          endchar
        </CharString>
        <CharString name="aogonek">
          -30 463 -115 15 callsubr
          32 11 18 27 35 vvcurveto
          13 -3 14 -9 vhcurveto
          -44 callsubr
          -7 7 24 1 hvcurveto
          3 37 14 123 10 103 rrcurveto
          4 37 8 62 13 vvcurveto
          15 -14 9 -32 vhcurveto
          -10 hlineto
          -42 -5 -15 -32 -11 hvcurveto
          21 -18 -30 31 -55 hhcurveto
          -95 -75 -92 -171 -19 hvcurveto
          -131 -14 24 -144 115 hhcurveto
          52 40 28 53 27 hvcurveto
          6 -49 25 -22 32 -7 rrcurveto
          -19 -34 -6 -35 -21 -65 callsubr
          -162 455 rmoveto
          -17 -162 rlineto
          -55 -16 -28 -28 -30 hhcurveto
          -52 -4 86 86 9 hvcurveto
          111 12 28 51 53 hhcurveto
          27 16 -11 callsubr
        </CharString>
        <CharString name="approxequal">
          -73 221 291 rmoveto
          -10 28 30 -9 24 hhcurveto
          47 33 26 43 18 hvcurveto
          3 7 1 5 3 vvcurveto
          7 -3 6 -9 5 vhcurveto
          -8 4 -20 10 -6 -9 -15 -14 rlinecurve
          -15 -13 -13 -5 -14 hhcurveto
          -20 -24 8 8 -25 hvcurveto
          9 -29 -30 10 -23 hhcurveto
          -48 -33 -27 -42 -18 hvcurveto
          -3 -7 16 callgsubr
          15 15 rlinecurve
          15 13 13 5 14 hhcurveto
          20 24 -8 -8 25 hvcurveto
          -14 -181 rmoveto
          -9 28 30 -9 24 hhcurveto
          47 33 26 43 19 hvcurveto
          3 6 1 5 4 vvcurveto
          -1 6 -3 7 -8 4 -9 5 rcurveline
          -20 10 -6 -9 -15 -14 rrcurveto
          -15 -13 31 callgsubr
          -31 9 -23 hhcurveto
          -48 -33 -26 -43 -18 hvcurveto
          -3 -6 -1 -5 -4 vvcurveto
          1 -6 3 -7 8 -4 9 -5 rcurveline
          19 -10 7 9 15 14 rrcurveto
          15 13 13 6 14 hhcurveto
          20 24 -9 -8 25 hvcurveto
          endchar
        </CharString>
        <CharString name="aring">
          -30 267 -44 callgsubr
          -111 -615 -105 callgsubr
        </CharString>
        <CharString name="aringacute">
          -30 286 769 rmoveto
          -105 callsubr
          -19 -214 -78 callsubr
          -111 -615 -105 callgsubr
        </CharString>
        <CharString name="arrowdown">
          18 499 341 rmoveto
          -203 -184 55 523 rlineto
          19 2 -11 10 -27 hhcurveto
          -16 hlineto
          -27 -13 -9 callsubr
          -54 -520 -156 179 -9 11 -11 -2 -2 -18 rlinecurve
          -8 -69 -3 -23 3 -7 14 -15 rlinecurve
          188 -212 rlineto
          -5 5 4 -2 8 hhcurveto
          9 4 2 5 6 hvcurveto
          233 212 17 16 4 9 2 20 rlinecurve
          8 71 2 14 -12 5 -10 -10 rlinecurve
          endchar
        </CharString>
        <CharString name="arrowleft">
          89 569 306 rmoveto
          -406 hlineto
          175 191 rlineto
          19 18 -1 12 -27 hhcurveto
          -61 hlineto
          -20 -13 -5 -14 -13 hvcurveto
          -210 -228 rlineto
          -6 -5 -2 -5 -7 vvcurveto
          -1 -9 1 -4 4 -6 163 -226 rcurveline
          -14 10 12 -5 20 hhcurveto
          54 hlineto
          24 6 11 21 -15 hvcurveto
          -131 180 rlineto
          410 hlineto
          18 11 12 27 3 hvcurveto
          2 16 rlineto
          27 2 -8 12 -19 hhcurveto
          endchar
        </CharString>
        <CharString name="arrowright">
          89 589 282 rmoveto
          -163 227 rlineto
          14 -10 -12 5 -20 hhcurveto
          -54 hlineto
          -24 -5 -12 -20 14 hvcurveto
          132 -181 rlineto
          -411 hlineto
          -18 -11 -11 -27 -3 hvcurveto
          -1 -16 rlineto
          -28 -3 8 -11 19 hhcurveto
          407 hlineto
          -175 -191 rlineto
          -19 -18 1 -12 27 hhcurveto
          60 hlineto
          20 13 5 14 13 hvcurveto
          210 227 6 6 2 5 1 7 rlinecurve
          1 9 -1 4 -5 5 rrcurveto
          endchar
        </CharString>
        <CharString name="arrowup">
          -6 504 490 rmoveto
          -188 212 rlineto
          5 -4 -5 2 -8 hhcurveto
          -8 -5 -2 -5 -6 hvcurveto
          -233 -213 -16 -15 -4 -9 -3 -20 rlinecurve
          -8 -71 -1 -14 11 -5 10 10 rlinecurve
          204 185 -55 -524 rlineto
          -19 -3 11 -10 27 hhcurveto
          16 hlineto
          27 13 10 19 2 hvcurveto
          54 520 156 -179 10 -11 10 2 2 18 rlinecurve
          8 69 3 23 -3 7 -14 15 rlinecurve
          endchar
        </CharString>
        <CharString name="asciicircum">
          -151 342 351 rmoveto
          -73 308 rlineto
          19 -3 -11 7 -17 hhcurveto
          -27 hlineto
          -16 -12 -7 -19 -9 hvcurveto
          -136 -308 rlineto
          -3 -6 -1 -5 -4 vvcurveto
          -11 -1 7 -6 18 hhcurveto
          20 hlineto
          21 15 8 19 8 hvcurveto
          93 233 41 -233 rlineto
          -19 3 15 -8 22 hhcurveto
          19 hlineto
          19 8 6 11 1 hvcurveto
          4 -1 5 6 vvcurveto
          endchar
        </CharString>
        <CharString name="asciitilde">
          -74 294 221 rmoveto
          48 33 26 43 18 hvcurveto
          3 6 1 5 4 vvcurveto
          6 -3 7 -9 4 vhcurveto
          -9 5 -19 10 -7 -9 -14 -14 rlinecurve
          -15 -14 31 callgsubr
          -30 9 -24 hhcurveto
          -47 -33 -26 -43 -18 hvcurveto
          -3 -6 16 callgsubr
          14 14 rlinecurve
          15 14 12 6 14 hhcurveto
          20 24 -9 -8 25 hvcurveto
          -9 29 30 -9 23 hhcurveto
          endchar
        </CharString>
        <CharString name="asterisk">
          -212 95 421 rmoveto
          6 9 4 10 7 hvcurveto
          56 77 41 -77 rlineto
          -9 5 7 -5 7 hhcurveto
          12 18 12 11 2 hvcurveto
          1 6 -2 6 -4 8 -43 83 rcurveline
          74 27 12 5 7 5 1 10 rlinecurve
          17 2 -8 15 -15 hhcurveto
          -4 -4 0 -3 -7 hvcurveto
          -66 -24 9 30 callgsubr
          -7 8 -19 hhcurveto
          -18 -9 -8 -61 callsubr
          -8 -83 -62 24 rlineto
          3 -6 -5 0 -3 hhcurveto
          -17 -9 -18 -14 -2 hvcurveto
          -1 -10 6 -5 12 -5 66 -27 rcurveline
          -59 -83 -6 -8 -4 -6 1 -6 rlinecurve
          -11 -2 16 -12 13 hhcurveto
          endchar
        </CharString>
        <CharString name="at">
          281 441 707 rmoveto
          -217 -169 -205 -264 -214 112 -148 163 44 98 11 39 20 -5 9 -9 hvcurveto
          -18 -32 -29 -73 hhcurveto
          -132 -88 126 185 237 143 183 181 136 92 -108 -170 -132 -52 -118 -57 -14 -16 8 27 hvcurveto
          27 26 278 11 vvcurveto
          13 -9 10 -29 vhcurveto
          -9 hlineto
          -30 -5 -10 -29 -10 hvcurveto
          18 -15 -30 25 -41 hhcurveto
          -98 -66 -110 -159 -129 55 -52 59 44 36 24 41 21 hvcurveto
          -40 11 32 -25 51 hhcurveto
          119 87 144 179 199 -114 128 -172 hvcurveto
          -14 -504 rmoveto
          -42 -18 -22 -18 -21 hhcurveto
          -29 -19 23 79 105 23 72 57 21 15 -11 -11 11 hvcurveto
          -9 -47 -7 -99 -2 -51 rrcurveto
          endchar
        </CharString>
        <CharString name="atilde">
          -30 138 584 rmoveto
          -104 callsubr
          34 -596 -105 callgsubr
        </CharString>
        <CharString name="b">
          256 -7 rmoveto
          92 73 100 169 18 hvcurveto
          173 18 -53 95 -103 hhcurveto
          -43 -30 -17 -20 -23 hvcurveto
          26 232 rlineto
          18 1 25 callgsubr
          -22 hlineto
          -37 -62 callgsubr
          -74 -699 -30 callsubr
          15 -10 35 hhcurveto
          10 hlineto
          25 16 4 17 7 hvcurveto
          13 46 rlineto
          -44 21 39 -28 46 hhcurveto
          -27 103 rmoveto
          -26 -20 19 28 -14 hvcurveto
          28 260 rlineto
          16 16 21 10 23 hhcurveto
          47 19 -45 -121 -13 hvcurveto
          -116 -11 -27 -51 -43 hhcurveto
          endchar
        </CharString>
        <CharString name="backslash">
          -222 203 -21 rmoveto
          29 hlineto
          20 13 8 13 1 hvcurveto
          1 4 -1 4 -1 18 -112 649 rcurveline
          18 -3 -12 9 -22 hhcurveto
          -27 hlineto
          -22 -11 -8 -13 -2 hvcurveto
          -4 0 -3 2 -16 vhcurveto
          110 -652 rlineto
          -19 2 14 -8 21 hhcurveto
          endchar
        </CharString>
        <CharString name="bar">
          -311 159 769 rmoveto
          -13 hlineto
          -28 -13 -9 -61 callsubr
          -90 -854 rlineto
          -18 -1 11 -9 28 hhcurveto
          13 hlineto
          29 13 9 18 1 hvcurveto
          90 854 -68 callsubr
          -11 9 -29 hhcurveto
          endchar
        </CharString>
        <CharString name="baraccent">
          -194 65 275 -86 callgsubr
          endchar
        </CharString>
        <CharString name="baraccentlong">
          6 568 362 rmoveto
          -608 hlineto
          -31 11 callsubr
          609 hlineto
          29 12 callsubr
          endchar
        </CharString>
        <CharString name="baraccentmedium">
          -94 392 362 rmoveto
          -360 hlineto
          -30 11 callsubr
          359 hlineto
          30 12 callsubr
          endchar
        </CharString>
        <CharString name="braceleft">
          -262 130 -138 rmoveto
          41 hlineto
          19 38 callsubr
          -6 11 -18 hhcurveto
          -6 hlineto
          -21 -6 16 30 4 hvcurveto
          19 186 8 77 -29 45 -26 17 rlinecurve
          31 18 37 45 8 76 20 187 rcurveline
          30 3 9 15 23 hhcurveto
          5 hlineto
          17 38 callsubr
          -7 11 -19 hhcurveto
          -41 hlineto
          -46 -49 -38 -78 -8 hvcurveto
          -19 -182 -6 -58 -12 -32 -32 -14 rlinecurve
          -20 -10 -11 -12 -2 -23 -1 -12 rcurveline
          -3 -23 9 -12 17 -10 28 -14 6 -32 -6 -58 -19 -182 rcurveline
          -79 -8 41 -37 46 hhcurveto
          endchar
        </CharString>
        <CharString name="braceright">
          -262 -4 -138 rmoveto
          41 hlineto
          46 49 37 79 8 hvcurveto
          20 182 5 58 12 32 33 14 rlinecurve
          19 10 11 12 2 23 1 12 rcurveline
          3 23 -9 12 -16 10 -30 14 -5 32 6 58 19 182 rcurveline
          78 8 -41 38 -46 hhcurveto
          -41 hlineto
          -18 -9 -8 callgsubr
          -10 rlineto
          -25 -2 5 -11 17 hhcurveto
          5 hlineto
          24 5 -15 -30 -3 hvcurveto
          -20 -187 -8 -76 29 -45 28 -18 rlinecurve
          -31 -17 -39 -45 -8 -77 -20 -186 rcurveline
          -30 -3 -8 -16 -21 hhcurveto
          -6 hlineto
          -18 -8 -46 callsubr
          -2 -10 rlineto
          -25 -2 7 -11 18 hhcurveto
          endchar
        </CharString>
        <CharString name="bracketleft">
          -272 29 -138 rmoveto
          104 hlineto
          19 8 11 25 2 hvcurveto
          2 11 rlineto
          25 3 -6 11 -19 hhcurveto
          -40 hlineto
          78 740 rlineto
          40 hlineto
          18 8 10 26 3 hvcurveto
          1 11 rlineto
          25 3 -6 11 -19 hhcurveto
          -104 hlineto
          -24 -11 -11 -25 -2 hvcurveto
          -88 -834 rlineto
          -25 -3 9 -11 24 hhcurveto
          endchar
        </CharString>
        <CharString name="bracketright">
          -272 21 -138 rmoveto
          105 hlineto
          23 11 11 25 2 hvcurveto
          88 834 rlineto
          25 3 -9 11 -23 hhcurveto
          -105 hlineto
          -18 -9 -11 -25 -2 hvcurveto
          -2 -11 rlineto
          -26 -2 7 -10 17 hhcurveto
          41 hlineto
          -78 -740 rlineto
          -40 hlineto
          -18 -9 -8 callgsubr
          -11 rlineto
          -25 -3 7 -11 18 hhcurveto
          endchar
        </CharString>
        <CharString name="breve">
          -255 160 -81 callgsubr
          endchar
        </CharString>
        <CharString name="brokenbar">
          -311 160 770 rmoveto
          -13 hlineto
          -29 -13 20 callgsubr
          -12 -110 -23 -209 -9 vvcurveto
          -17 11 -9 27 vhcurveto
          13 hlineto
          28 14 10 19 2 hvcurveto
          11 108 23 207 10 vvcurveto
          17 -8 11 -30 vhcurveto
          -55 -529 rmoveto
          -13 hlineto
          -29 -14 20 callgsubr
          -11 -108 -23 -205 -12 vvcurveto
          -18 8 -10 30 vhcurveto
          13 hlineto
          28 13 -66 callsubr
          11 109 23 204 12 vvcurveto
          18 -8 10 -29 vhcurveto
          endchar
        </CharString>
        <CharString name="bullet">
          -213 142 197 rmoveto
          65 58 41 88 10 hvcurveto
          88 9 -49 42 -65 hhcurveto
          -66 -58 -42 -88 -9 hvcurveto
          -88 -9 49 -41 65 hhcurveto
          endchar
        </CharString>
        <CharString name="c">
          -103 222 -7 -84 callsubr
        </CharString>
        <CharString name="cacute">
          -103 235 579 rmoveto
          -105 callsubr
          -13 -586 -84 callsubr
        </CharString>
        <CharString name="cacute.loclPLK">
          -103 245 579 -79 callsubr
          -23 -586 -84 callsubr
        </CharString>
        <CharString name="caron">
          -255 154 576 -102 callgsubr
          endchar
        </CharString>
        <CharString name="caron.alt">
          -255 109 516 -48 callsubr
          endchar
        </CharString>
        <CharString name="ccaron">
          -103 260 576 -102 callgsubr
          -38 -583 -84 callsubr
        </CharString>
        <CharString name="ccedilla">
          -103 279 530 rmoveto
          -137 -84 -80 -189 -20 hvcurveto
          -17 -170 51 -83 116 -13 rrcurveto
          -18 -51 -5 -15 -8 -71 callsubr
          14 46 53 6 70 25 3 30 rlinecurve
          19 2 -16 48 -19 hhcurveto
          -3 -6 -4 -3 -8 hvcurveto
          -8 -17 -25 -14 -36 hhcurveto
          -64 -24 48 122 13 hvcurveto
          122 13 37 45 62 hhcurveto
          32 23 -14 -8 13 hvcurveto
          -4 7 4 -2 5 hhcurveto
          16 29 48 20 2 hvcurveto
          32 3 -67 28 -68 hhcurveto
          endchar
        </CharString>
        <CharString name="ccircumflex">
          -103 165 -100 callgsubr
          57 -580 -84 callsubr
        </CharString>
        <CharString name="cdotaccent">
          -103 266 -82 callgsubr
          -44 -596 -84 callsubr
        </CharString>
        <CharString name="cedilla">
          -255 156 -52 rmoveto
          17 58 rlineto
          -56 hlineto
          -21 -60 -6 -16 -9 -71 callsubr
          endchar
        </CharString>
        <CharString name="cent">
          -71 297 529 rmoveto
          4 37 rlineto
          14 -4 6 -14 vhcurveto
          -11 hlineto
          -14 -6 -6 -14 -1 hvcurveto
          -4 -38 -118 -12 -73 -81 -18 -174 rlinecurve
          -17 -171 52 -83 117 -12 -5 -49 rcurveline
          -14 3 -6 15 vhcurveto
          11 hlineto
          13 7 7 13 2 hvcurveto
          5 48 54 5 73 26 3 30 rlinecurve
          19 2 -16 48 -19 hhcurveto
          -3 -6 -4 -3 -8 hvcurveto
          -16 -7 -22 -13 -32 -2 36 337 rcurveline
          28 -2 21 -13 12 -7 rrcurveto
          -4 7 4 -2 5 hhcurveto
          16 29 48 20 2 hvcurveto
          3 29 -56 26 -61 4 rrcurveto
          -129 -266 rmoveto
          10 89 22 48 35 20 -33 -317 rcurveline
          -33 19 -11 50 10 91 rrcurveto
          endchar
        </CharString>
        <CharString name="circumflex">
          -255 60 -100 callgsubr
          endchar
        </CharString>
        <CharString name="colon">
          -323 93 386 rmoveto
          27 32 callsubr
          -14 10 -36 hhcurveto
          -27 16 callsubr
          -41 -388 -7 callsubr
        </CharString>
        <CharString name="comma">
          -323 -5 -122 -11 callgsubr
        </CharString>
        <CharString name="commaaccentinvert">
          -158 190 766 rmoveto
          -29 -58 -71 -78 -22 12 -16 29 hvcurveto
          -3 callsubr
          vhcurveto
          endchar
        </CharString>
        <CharString name="copyright">
          81 -25 callsubr
          9 96 rmoveto
          33 67 18 27 8 -12 35 -16 hvcurveto
          -6 -23 -26 -43 hhcurveto
          -48 -23 47 96 95 23 45 49 hvcurveto
          43 16 -21 6 hhcurveto
          12 18 33 13 21 -54 18 -40 -98 -49 -68 -136 -141 47 -64 98 hvcurveto
          endchar
        </CharString>
        <CharString name="currency">
          -49 78 98 rmoveto
          8 8 3 8 8 hvcurveto
          24 22 rlineto
          -18 24 29 -11 32 hhcurveto
          33 32 11 19 28 hvcurveto
          19 -23 rlineto
          -8 7 8 -3 7 hhcurveto
          9 7 4 7 7 hvcurveto
          22 19 8 7 5 9 1 7 rlinecurve
          1 8 -3 8 -7 8 -26 29 rcurveline
          16 29 12 33 4 35 4 36 -5 33 -12 30 36 32 rcurveline
          9 8 4 8 1 8 1 8 -3 7 -7 7 -18 20 rcurveline
          7 -6 -7 4 -8 hhcurveto
          -7 -9 -4 -7 -9 hvcurveto
          -28 -27 rlineto
          18 -23 -29 11 -32 hhcurveto
          -32 -30 -11 -17 -26 hvcurveto
          -24 25 rlineto
          8 -6 -8 4 -8 hhcurveto
          -7 -9 -3 -7 -7 hvcurveto
          -23 -21 -7 -7 -4 -8 -1 -7 rlinecurve
          -1 -8 3 -8 7 -8 28 -30 rcurveline
          -19 -30 -12 -35 -4 -36 -4 -36 6 -33 11 -29 -31 -28 rcurveline
          -9 -8 -5 -8 -1 -8 rrcurveto
          -8 2 -8 7 -6 vhcurveto
          17 -20 rlineto
          -8 7 8 -3 7 hhcurveto
          143 99 rmoveto
          -41 -29 35 69 7 hvcurveto
          69 7 37 35 41 hhcurveto
          41 29 -35 -69 -8 hvcurveto
          -69 -7 -36 -35 -41 hhcurveto
          endchar
        </CharString>
        <CharString name="d">
          -30 -80 callgsubr
          51 103 -24 callgsubr
        </CharString>
        <CharString name="dagger">
          26 callgsubr
          56 526 -24 callsubr
          -56 -526 -30 callsubr
          11 -10 28 hhcurveto
          endchar
        </CharString>
        <CharString name="daggerdbl">
          26 callgsubr
          17 161 rlineto
          103 hlineto
          19 8 12 30 3 hvcurveto
          1 12 rlineto
          30 4 -6 13 -19 hhcurveto
          -103 hlineto
          29 268 -24 callsubr
          -29 -268 rlineto
          -105 hlineto
          -17 -9 -13 -30 -4 hvcurveto
          -1 -12 27 callgsubr
          -12 17 hhcurveto
          105 hlineto
          -17 -161 -30 callsubr
          11 -10 28 hhcurveto
          endchar
        </CharString>
        <CharString name="dcaron">
          -30 -80 callgsubr
          365 523 -48 callsubr
          -314 -420 -24 callgsubr
        </CharString>
        <CharString name="dcroat">
          -30 493 674 rmoveto
          -29 hlineto
          1 18 2 17 2 16 rrcurveto
          18 1 -15 -20 callsubr
          -22 -31 callgsubr
          -5 -51 rlineto
          -39 hlineto
          -17 -9 -8 callgsubr
          -13 rlineto
          -26 -2 6 -11 17 hhcurveto
          39 hlineto
          -10 -95 rlineto
          21 -20 -26 16 -41 hhcurveto
          -103 -74 -95 -171 -17 hvcurveto
          -171 -19 53 -100 89 hhcurveto
          51 44 31 47 27 hvcurveto
          -59 8 36 -19 42 hhcurveto
          -36 callsubr
          7 27 1 hvcurveto
          6 69 22 208 20 182 rrcurveto
          30 hlineto
          19 8 11 26 2 -14 callsubr
          2 -5 11 -19 hhcurveto
          -211 -527 rmoveto
          -30 -20 -24 -21 -26 hhcurveto
          -43 -16 54 112 12 hvcurveto
          117 12 29 50 49 hhcurveto
          23 18 -10 -15 13 hvcurveto
          endchar
        </CharString>
        <CharString name="degree">
          -235 157 442 rmoveto
          59 51 44 88 10 hvcurveto
          89 9 -42 44 -59 hhcurveto
          -59 -52 -44 -89 -9 hvcurveto
          -88 -10 43 -44 59 hhcurveto
          5 56 rmoveto
          -27 -18 25 51 6 hvcurveto
          51 5 23 26 27 hhcurveto
          27 18 -26 -51 -6 hvcurveto
          -51 -5 -23 -25 -27 hhcurveto
          endchar
        </CharString>
        <CharString name="dieresis">
          -255 89 589 -101 callgsubr
          endchar
        </CharString>
        <CharString name="divide">
          -63 226 336 rmoveto
          10 hlineto
          36 15 10 19 2 hvcurveto
          7 63 rlineto
          19 2 25 callgsubr
          -9 hlineto
          -36 -16 -9 callsubr
          -6 -63 rlineto
          -19 -2 13 -10 36 hhcurveto
          -190 -155 rmoveto
          360 hlineto
          18 7 14 29 4 hvcurveto
          1 7 rlineto
          29 2 -4 14 -18 hhcurveto
          -360 hlineto
          -18 -8 -14 -29 -3 hvcurveto
          -1 -7 rlineto
          -29 -3 6 -14 17 hhcurveto
          154 -183 rmoveto
          10 -34 callgsubr
          7 64 rlineto
          19 1 -14 9 -36 hhcurveto
          -9 hlineto
          -36 -16 -9 -19 -1 hvcurveto
          -7 -64 -40 callsubr
          35 hhcurveto
          endchar
        </CharString>
        <CharString name="dollar">
          -71 178 -72 rmoveto
          11 hlineto
          13 8 6 14 1 hvcurveto
          5 48 rlineto
          118 14 71 79 119 vvcurveto
          99 -47 47 -98 51 vhcurveto
          20 192 23 -1 23 -5 27 -11 rlinecurve
          -2 7 10 -4 7 hhcurveto
          22 17 56 24 10 -6 10 -11 6 hvcurveto
          -26 16 -42 9 -39 3 rrcurveto
          1 11 2 18 4 vvcurveto
          14 -4 6 -13 vhcurveto
          -12 hlineto
          -15 -5 -6 -14 -2 hvcurveto
          -3 -34 rlineto
          -110 -10 -81 -77 -113 vvcurveto
          -120 79 -43 69 -37 vhcurveto
          -21 -202 rlineto
          -46 -32 12 22 -36 hvcurveto
          4 -6 -5 3 -6 hhcurveto
          -23 -18 -53 -29 1 hvcurveto
          -22 23 -14 21 -9 vhcurveto
          33 -18 38 -7 44 -1 rrcurveto
          -2 -18 -2 -23 -4 vvcurveto
          -14 3 -6 14 vhcurveto
          33 504 rmoveto
          -27 19 -15 23 31 vvcurveto
          39 18 33 41 14 vhcurveto
          1 -478 rmoveto
          17 166 rlineto
          24 -18 16 -23 -33 vvcurveto
          -52 -24 -28 -33 -12 vhcurveto
          endchar
        </CharString>
        <CharString name="dotaccent">
          -255 164 -82 callgsubr
          endchar
        </CharString>
        <CharString name="dotbelowcomb">
          -511 -47 -193 -106 callsubr
          endchar
        </CharString>
        <CharString name="dotlessi">
          -257 130 -6 -97 callgsubr
          endchar
        </CharString>
        <CharString name="e">
          -57 376 139 -100 callsubr
          endchar
        </CharString>
        <CharString name="eacute">
          -57 249 579 rmoveto
          -105 callsubr
          127 -440 -100 callsubr
          endchar
        </CharString>
        <CharString name="ebreve">
          -57 279 -81 callgsubr
          97 -440 -100 callsubr
          endchar
        </CharString>
        <CharString name="ecaron">
          -57 226 596 rmoveto
          -16 8 16 -4 24 hhcurveto
          9 hlineto
          24 16 4 16 12 hvcurveto
          68 96 rlineto
          4 6 4 7 4 vvcurveto
          7 1 -6 5 -13 -8 callsubr
          -21 -15 -5 -12 -8 hvcurveto
          -38 -56 -27 55 rlineto
          13 -7 -13 5 -19 -8 callsubr
          -13 -7 -5 -7 -1 hvcurveto
          -4 2 -7 3 -6 vhcurveto
          197 -553 -100 callsubr
          endchar
        </CharString>
        <CharString name="ecircumflex">
          -57 179 -100 callgsubr
          197 -434 -100 callsubr
          endchar
        </CharString>
        <CharString name="edieresis">
          -57 206 589 -101 callgsubr
          21 -450 -100 callsubr
          endchar
        </CharString>
        <CharString name="edotaccent">
          -57 280 -82 callgsubr
          96 -450 -100 callsubr
          endchar
        </CharString>
        <CharString name="egrave">
          -57 299 579 -97 callsubr
          77 -440 -100 callsubr
          endchar
        </CharString>
        <CharString name="eight">
          -52 202 -7 rmoveto
          133 75 92 110 12 hvcurveto
          11 102 -42 48 -50 33 47 25 46 44 9 87 rrcurveto
          107 11 -66 66 -108 hhcurveto
          -115 -80 -70 -110 -11 hvcurveto
          -9 -79 30 -43 40 -32 -53 -28 -49 -52 -11 -97 rrcurveto
          -119 -12 61 -84 131 hhcurveto
          58 436 rmoveto
          -38 23 -29 26 5 54 rrcurveto
          51 6 31 24 33 hhcurveto
          34 24 -25 -52 -5 hvcurveto
          -5 -45 -22 -32 -34 -24 rrcurveto
          -49 -336 rmoveto
          -41 -29 33 75 8 hvcurveto
          6 59 23 33 35 25 47 -27 42 -28 -8 -71 rrcurveto
          -55 -5 -33 -44 -45 hhcurveto
          endchar
        </CharString>
        <CharString name="ellipsis">
          41 54 -2 rmoveto
          23 -5 callsubr
          36 hhcurveto
          183 hmoveto
          24 -5 callsubr
          35 hhcurveto
          184 hmoveto
          25 hlineto
          35 29 callgsubr
          9 83 -23 callgsubr
          -35 hhcurveto
          -24 11 callgsubr
        </CharString>
        <CharString name="emacron">
          -57 184 602 -86 callgsubr
          192 -463 -100 callsubr
          endchar
        </CharString>
        <CharString name="emdash">
          375 21 219 rmoveto
          835 hlineto
          18 9 12 30 3 hvcurveto
          1 8 21 callsubr
          -835 8 callgsubr
          -1 -8 27 callgsubr
          -12 17 hhcurveto
          endchar
        </CharString>
        <CharString name="endash">
          -68 21 219 rmoveto
          392 hlineto
          18 9 12 30 3 hvcurveto
          1 8 21 callsubr
          -392 8 callgsubr
          -1 -8 27 callgsubr
          -12 17 hhcurveto
          endchar
        </CharString>
        <CharString name="eng">
          244 -212 rmoveto
          64 66 41 110 11 hvcurveto
          48 446 rlineto
          93 10 -36 52 -76 hhcurveto
          -57 -48 -34 -41 -31 hvcurveto
          34 -3 5 33 -31 hhcurveto
          -17 -78 -6 -25 -2 hvcurveto
          -1 -11 6 -30 -9 -92 -36 -332 rcurveline
          -18 -1 14 -10 35 hhcurveto
          26 hlineto
          34 17 9 19 2 hvcurveto
          37 354 rlineto
          25 16 25 21 28 hhcurveto
          35 10 -23 -42 -4 hvcurveto
          -42 -420 rlineto
          -39 -4 -12 -13 -19 -15 -10 4 -7 hhcurveto
          -18 -14 -44 -18 -1 hvcurveto
          -34 -4 38 -9 49 hhcurveto
          endchar
        </CharString>
        <CharString name="eogonek">
          -57 426 -81 4 callgsubr
          20 5 27 13 26 hvcurveto
          6 4 4 6 4 5 rrcurveto
          -61 callgsubr
          -73 callgsubr
          114 86 67 116 51 -28 89 -129 -166 -75 -146 -179 hvcurveto
          -148 -1 77 -64 120 hhcurveto
          16 22 2 5 21 hvcurveto
          -8 -24 -3 -22 -15 -65 callsubr
          -155 511 -38 callsubr
        </CharString>
        <CharString name="equal">
          -62 58 268 rmoveto
          336 17 callgsubr
          -337 17 callsubr
          -19 -174 rmoveto
          337 19 callgsubr
          -337 18 callgsubr
          endchar
        </CharString>
        <CharString name="estimated">
          104 312 707 rmoveto
          -159 -131 -125 -227 -232 135 -130 163 81 77 39 65 55 hvcurveto
          6 8 4 6 8 vvcurveto
          11 -14 16 -15 -8 -6 -6 -9 -8 vhcurveto
          -52 -38 -73 -31 -61 hhcurveto
          -56 -50 17 34 -41 hvcurveto
          256 420 vlineto
          227 -127 125 -154 vhcurveto
          -139 -99 rmoveto
          32 39 48 17 52 hhcurveto
          49 47 -17 -33 38 hvcurveto
          -202 -273 vlineto
          endchar
        </CharString>
        <CharString name="eth">
          -34 419 670 rmoveto
          -3 -35 -5 -4 -34 hvcurveto
          -12 18 -10 14 -11 10 rrcurveto
          7 -9 -9 5 -14 hhcurveto
          -51 -6 -12 -2 -6 -4 -1 -6 rlinecurve
          -1 -9 18 -22 11 -19 -53 -8 rcurveline
          -14 -2 -6 -4 -1 -9 rrcurveto
          -18 -2 15 -20 17 hhcurveto
          3 3 0 10 65 hvcurveto
          11 -24 10 -24 8 -25 rrcurveto
          2 -11 -11 1 -12 hhcurveto
          -130 -75 -94 -171 -18 hvcurveto
          -173 -18 67 -95 123 hhcurveto
          140 69 95 173 18 hvcurveto
          14 133 -30 124 -47 92 53 7 rcurveline
          12 2 7 5 1 8 rrcurveto
          15 2 -13 23 -18 hhcurveto
          -108 -408 rmoveto
          -121 -13 -27 -48 -50 hhcurveto
          -51 -17 48 121 13 hvcurveto
          117 13 26 46 51 hhcurveto
          51 17 -46 -117 -13 hvcurveto
          endchar
        </CharString>
        <CharString name="exclam">
          -265 104 215 rmoveto
          8 hlineto
          36 7 10 18 4 hvcurveto
          88 433 rlineto
          17 1 -17 9 -32 hhcurveto
          -38 hlineto
          -47 callsubr
          -45 -431 -30 callsubr
          8 -10 35 hhcurveto
          -34 -217 rmoveto
          28 32 callsubr
          -14 10 -36 hhcurveto
          -27 11 callgsubr
        </CharString>
        <CharString name="exclamdown">
          -265 137 386 rmoveto
          28 -34 callgsubr
          8 83 rlineto
          18 3 25 callgsubr
          -28 hlineto
          -35 29 callsubr
          -8 -83 -30 callsubr
          13 -10 36 hhcurveto
          -86 -566 rmoveto
          37 hlineto
          36 16 10 19 2 hvcurveto
          45 430 rlineto
          19 2 -7 -20 callsubr
          -9 hlineto
          -35 -6 -10 -19 -4 hvcurveto
          -31 -144 -56 -266 -2 -23 rrcurveto
          -16 -2 18 -10 32 hhcurveto
          endchar
        </CharString>
        <CharString name="f">
          -225 98 -2 -6 callgsubr
          42 396 rlineto
          45 36 callgsubr
          1 15 8 callsubr
          -45 -75 callsubr
          endchar
        </CharString>
        <CharString name="f_f">
          61 542 759 rmoveto
          -17 callgsubr
          -161 -75 callsubr
          -28 callsubr
          42 396 rlineto
          161 hlineto
          -42 -396 0 callgsubr
          -28 callsubr
          42 396 rlineto
          45 36 callgsubr
          1 15 8 callsubr
          -45 hlineto
          9 85 rlineto
          39 4 14 11 22 13 10 -5 7 hhcurveto
          19 15 54 8 1 hvcurveto
          34 3 -56 10 -30 hhcurveto
          endchar
        </CharString>
        <CharString name="f_t">
          73 526 422 rmoveto
          38 15 56 25 14 -3 6 -13 hvcurveto
          -55 hlineto
          10 99 rlineto
          16 -14 12 -36 vhcurveto
          -19 hlineto
          -34 -19 3 callgsubr
          -11 -99 rlineto
          -20 hlineto
          -1 hlineto
          -137 -75 callsubr
          -28 callsubr
          42 396 rlineto
          158 hlineto
          -18 -169 -13 -119 -24 5 callgsubr
          27 10 90 20 181 hvcurveto
          endchar
        </CharString>
        <CharString name="fi">
          29 489 99 rmoveto
          -16 callsubr
          -12 -6 8 26 2 hvcurveto
          4 65 14 113 20 189 rrcurveto
          16 -15 10 -35 vhcurveto
          -217 -75 callsubr
          -28 callsubr
          42 396 rlineto
          144 hlineto
          -27 -257 -2 -18 -2 -27 -1 -16 rlinecurve
          -87 -3 43 -23 49 hhcurveto
          -21 callgsubr
          hhcurveto
          -39 603 -70 callgsubr
        </CharString>
        <CharString name="five">
          -52 169 -7 rmoveto
          106 123 52 169 18 hvcurveto
          170 18 -95 49 -121 hhcurveto
          -26 hlineto
          29 166 rlineto
          183 hlineto
          19 8 11 26 3 hvcurveto
          2 21 8 callsubr
          -260 hlineto
          -26 -11 -11 -25 -5 hvcurveto
          -49 -295 rlineto
          -25 -3 6 -11 26 hhcurveto
          88 hlineto
          84 33 -43 -78 -8 hvcurveto
          -77 -8 -48 -42 -58 -69 -37 36 -11 hhcurveto
          -19 -34 -50 -13 callgsubr
          -34 -3 68 -33 101 hhcurveto
          endchar
        </CharString>
        <CharString name="fl">
          45 98 -2 -6 callgsubr
          42 396 rlineto
          45 36 callgsubr
          1 15 8 callsubr
          -45 -75 callsubr
          342 -5 -20 callgsubr
        </CharString>
        <CharString name="florin">
          -182 267 759 rmoveto
          -79 -69 -44 -108 -13 hvcurveto
          -11 -84 rlineto
          -28 hlineto
          -28 -7 -37 -35 -19 6 -10 15 hvcurveto
          27 hlineto
          -83 -601 rlineto
          -16 14 -12 36 vhcurveto
          19 hlineto
          34 19 10 19 3 hvcurveto
          83 600 rlineto
          43 hlineto
          38 19 56 25 14 -3 6 -13 hvcurveto
          -70 hlineto
          12 82 rlineto
          40 5 17 13 27 24 7 -6 6 hhcurveto
          17 18 56 12 33 -49 6 -36 hvcurveto
          endchar
        </CharString>
        <CharString name="four">
          -52 280 -2 rmoveto
          26 hlineto
          35 15 -33 callgsubr
          12 125 rlineto
          38 hlineto
          18 10 13 30 3 hvcurveto
          1 15 rlineto
          30 4 -6 13 -19 hhcurveto
          -37 hlineto
          44 422 rlineto
          18 1 -13 10 -35 hhcurveto
          -40 hlineto
          -23 -20 -2 -18 -11 hvcurveto
          -281 -442 -1 -3 -1 -3 -1 -5 rlinecurve
          -24 -3 12 -54 15 hhcurveto
          221 hlineto
          -12 -125 rlineto
          -18 -3 14 -10 34 hhcurveto
          -154 254 rmoveto
          165 267 3 -1 -10 -46 -8 -38 -4 -48 rlinecurve
          -14 -134 rlineto
          endchar
        </CharString>
        <CharString name="fraction">
          -247 376 700 rmoveto
          -20 hlineto
          -18 -13 -8 -15 -10 hvcurveto
          -431 -654 rlineto
          -5 -6 -1 -5 -4 vvcurveto
          -6 6 -3 11 vhcurveto
          20 hlineto
          18 12 7 17 11 hvcurveto
          432 654 rlineto
          4 28 callsubr
          5 -6 4 -12 vhcurveto
          endchar
        </CharString>
        <CharString name="g">
          -40 397 525 -87 callsubr
        </CharString>
        <CharString name="g.ss01">
          -40 185 -212 -94 callsubr
        </CharString>
        <CharString name="gbreve">
          -40 264 -81 callgsubr
          133 -54 -87 callsubr
        </CharString>
        <CharString name="gbreve.ss01">
          -40 274 -81 callgsubr
          -89 -791 -94 callsubr
        </CharString>
        <CharString name="gcircumflex">
          -40 164 -100 callgsubr
          233 -48 -87 callsubr
        </CharString>
        <CharString name="gcircumflex.ss01">
          -40 174 -100 callgsubr
          11 -785 -94 callsubr
        </CharString>
        <CharString name="gcommaaccent">
          -40 256 579 rmoveto
          -3 callsubr
          -29 -58 -71 -78 -22 12 -16 29 vhcurveto
          141 -54 -87 callsubr
        </CharString>
        <CharString name="gcommaaccent.ss01">
          -40 312 766 rmoveto
          -29 -58 -71 -78 -22 12 -16 29 hvcurveto
          -3 callsubr
          vhcurveto
          -127 -978 -94 callsubr
        </CharString>
        <CharString name="gdotaccent">
          -40 265 -82 callgsubr
          132 -64 -87 callsubr
        </CharString>
        <CharString name="gdotaccent.ss01">
          -40 275 -82 callgsubr
          -90 -801 -94 callsubr
        </CharString>
        <CharString name="germandbls">
          -31 83 -2 rmoveto
          22 -36 callgsubr
          3 hvcurveto
          52 498 rlineto
          48 5 26 30 40 hhcurveto
          38 18 -27 -62 -6 hvcurveto
          -62 -7 -28 -36 -33 hhcurveto
          -5 hlineto
          -15 -9 -14 -29 -4 hvcurveto
          -2 -15 rlineto
          -30 -2 6 -12 18 hhcurveto
          8 hlineto
          43 25 -35 -75 -8 hvcurveto
          -73 -8 -30 -31 -39 hhcurveto
          -13 hlineto
          -18 -10 -13 -30 -2 hvcurveto
          -2 -15 rlineto
          -30 -4 8 -13 18 hhcurveto
          19 hlineto
          112 80 71 134 14 hvcurveto
          10 91 -27 54 -61 26 rrcurveto
          4 vlineto
          53 25 35 55 8 70 rrcurveto
          125 13 -78 52 -102 hhcurveto
          -121 -77 -77 -118 -13 hvcurveto
          -50 -486 rlineto
          -18 -3 14 -10 37 hhcurveto
          endchar
        </CharString>
        <CharString name="grave">
          -255 188 579 -97 callsubr
          endchar
        </CharString>
        <CharString name="gravecomb">
          -511 20 579 -97 callsubr
          endchar
        </CharString>
        <CharString name="greater">
          -63 7 45 rmoveto
          -2 -28 2 -16 28 14 347 174 rcurveline
          18 10 8 10 1 20 1 19 rcurveline
          1 19 -2 11 -16 9 -311 174 rcurveline
          -21 11 -8 -6 -3 -34 -2 -15 rcurveline
          -3 -33 2 -11 18 -10 221 -119 rcurveline
          -248 -127 -22 -11 -4 -15 -3 -31 rlinecurve
          endchar
        </CharString>
        <CharString name="greaterequal">
          -58 22 159 rmoveto
          -5 -38 6 -3 28 13 343 161 rcurveline
          18 8 9 11 2 20 2 18 rcurveline
          2 19 -7 11 -15 9 -312 161 rcurveline
          -25 12 -2 -8 -4 -33 -1 -12 rcurveline
          -3 -26 4 -13 15 -10 214 -119 rcurveline
          -239 -121 -21 -10 -5 -9 -2 -20 rlinecurve
          6 -180 5 callsubr
          -9 -14 -29 -2 hvcurveto
          -1 -9 rlineto
          -30 -3 5 -13 18 hhcurveto
          endchar
        </CharString>
        <CharString name="guillemotleft">
          -40 113 251 rmoveto
          14 callgsubr
          39 callsubr
          -24 -23 -8 -29 17 -24 13 callsubr
          5 -1 6 -4 7 vhcurveto
          206 361 rmoveto
          39 callsubr
          -22 -21 -11 -27 18 -28 13 callsubr
          1 5 -2 6 -3 7 -84 148 rcurveline
          14 callgsubr
          endchar
        </CharString>
        <CharString name="guillemotright">
          -40 265 295 rmoveto
          -95 154 rlineto
          10 -6 -7 5 -9 hhcurveto
          -21 -30 -22 -12 -2 hvcurveto
          -1 -5 2 -6 3 -7 84 -148 rcurveline
          -1 callgsubr
          22 21 11 27 -18 28 rlinecurve
          189 hmoveto
          -95 154 rlineto
          10 -6 -7 5 -9 hhcurveto
          -21 -30 -22 -12 -2 hvcurveto
          -5 1 -6 4 -7 vhcurveto
          83 -148 -1 callgsubr
          24 23 8 29 -17 24 rlinecurve
          endchar
        </CharString>
        <CharString name="guilsinglleft">
          -264 142 52 rmoveto
          17 38 20 19 2 hvcurveto
          1 7 -2 6 -4 8 -75 146 rcurveline
          106 145 6 9 2 6 1 7 rlinecurve
          20 3 -35 19 -17 hhcurveto
          -8 -8 -3 -11 -8 hvcurveto
          -118 -154 -10 -13 -5 -10 -2 -15 rlinecurve
          -1 -15 3 -10 7 -13 86 -154 rcurveline
          -11 6 7 -3 8 hhcurveto
          endchar
        </CharString>
        <CharString name="guilsinglright">
          -264 65 52 rmoveto
          8 8 3 11 8 hvcurveto
          119 154 9 13 6 10 2 15 rlinecurve
          1 15 -4 10 -7 13 -86 154 rcurveline
          11 -6 -7 3 -7 hhcurveto
          -17 -38 -19 -20 -3 hvcurveto
          -1 -7 2 -6 4 -9 77 -145 rcurveline
          -108 -146 -5 -8 -3 -6 -1 -7 rlinecurve
          -19 -2 33 -20 18 hhcurveto
          endchar
        </CharString>
        <CharString name="h">
          -26 370 -6 -69 callgsubr
          endchar
        </CharString>
        <CharString name="hbar">
          -26 444 99 rmoveto
          22 callsubr
          7 21 19 19 162 9 80 hvcurveto
          99 11 -44 46 -71 hhcurveto
          -55 -45 -30 -37 -31 hvcurveto
          13 125 rlineto
          63 hlineto
          21 9 11 26 3 -14 callsubr
          2 -5 11 -22 hhcurveto
          -63 hlineto
          5 51 rlineto
          18 2 33 callgsubr
          -35 29 callsubr
          -5 -51 rlineto
          -29 hlineto
          -19 -10 -8 callgsubr
          -13 rlineto
          -26 -3 7 -11 19 hhcurveto
          30 hlineto
          -59 -562 -40 callsubr
          35 hhcurveto
          26 hlineto
          34 17 9 19 3 23 callsubr
          26 28 33 hhcurveto
          36 12 -24 -41 -5 hvcurveto
          -21 -206 rlineto
          -2 -25 -2 -23 -10 vvcurveto
          -78 42 -25 48 56 30 31 48 12 -4 14 -8 vhcurveto
          endchar
        </CharString>
        <CharString name="hcircumflex">
          -26 72 780 -107 callsubr
          298 -786 -69 callgsubr
          endchar
        </CharString>
        <CharString name="hookabovecomb">
          -511 -222 567 -89 callgsubr
          endchar
        </CharString>
        <CharString name="hungarumlaut">
          -204 11 579 -81 callsubr
          endchar
        </CharString>
        <CharString name="hyphen">
          -255 41 219 rmoveto
          165 hlineto
          18 9 12 30 3 hvcurveto
          1 8 -15 callsubr
          -166 10 callgsubr
          -2 hvcurveto
          -1 -8 rlineto
          -30 -4 7 -12 18 hhcurveto
          endchar
        </CharString>
        <CharString name="i">
          -257 152 -82 callgsubr
          -22 -595 -97 callgsubr
          endchar
        </CharString>
        <CharString name="i.loclTRK">
          -257 154 -82 callgsubr
          -24 -595 -97 callgsubr
          endchar
        </CharString>
        <CharString name="iacute">
          -257 123 579 rmoveto
          -105 callsubr
          7 -585 -97 callgsubr
          endchar
        </CharString>
        <CharString name="iacute_j.loclNLD">
          -8 123 579 rmoveto
          -105 callsubr
          256 hmoveto
          -105 callsubr
          -249 -585 -97 callgsubr
          134 -206 -84 callgsubr
        </CharString>
        <CharString name="ibreve">
          -257 153 -81 callgsubr
          -23 -585 -97 callgsubr
          endchar
        </CharString>
        <CharString name="icircumflex">
          -257 53 -100 callgsubr
          77 -579 -97 callgsubr
          endchar
        </CharString>
        <CharString name="idieresis">
          -257 80 589 -101 callgsubr
          -99 -595 -97 callgsubr
          endchar
        </CharString>
        <CharString name="igrave">
          -257 173 579 -97 callsubr
          -43 -585 -97 callgsubr
          endchar
        </CharString>
        <CharString name="ij">
          -8 152 -82 callgsubr
          257 hmoveto
          42 19 -66 callsubr
          6 57 -68 callsubr
          -18 10 -42 hhcurveto
          -41 -52 callsubr
          -6 -57 rlineto
          -19 -2 17 -9 42 hhcurveto
          -279 -595 -97 callgsubr
          134 -206 -84 callgsubr
        </CharString>
        <CharString name="imacron">
          -257 58 602 -86 callgsubr
          72 -608 -97 callgsubr
          endchar
        </CharString>
        <CharString name="infinity">
          119 478 447 rmoveto
          -53 -58 -31 -78 -42 hvcurveto
          65 -19 -44 44 -61 hhcurveto
          -84 -67 -69 -98 -10 hvcurveto
          -96 -10 49 -72 79 hhcurveto
          53 59 31 78 41 hvcurveto
          -65 19 45 -44 61 hhcurveto
          83 67 69 98 11 hvcurveto
          96 10 -50 72 -79 hhcurveto
          -299 -240 rmoveto
          -34 -14 32 42 4 hvcurveto
          43 5 25 31 31 hhcurveto
          25 22 -20 -59 15 hvcurveto
          -42 -22 -30 -27 -27 hhcurveto
          322 71 rmoveto
          -43 -4 -26 -31 -31 hhcurveto
          -24 -23 20 59 -15 hvcurveto
          42 23 29 27 28 hhcurveto
          33 15 -32 -42 -5 hvcurveto
          endchar
        </CharString>
        <CharString name="integral">
          -213 23 -167 rmoveto
          94 59 84 172 18 hvcurveto
          18 176 7 178 18 165 rrcurveto
          126 14 18 50 35 20 7 -7 7 hhcurveto
          15 17 26 30 3 hvcurveto
          40 4 -61 6 -22 hhcurveto
          -94 -59 -83 -172 -18 hvcurveto
          -19 -179 -6 -176 -17 -164 rrcurveto
          -126 -14 -18 -51 -36 -20 -7 8 -7 hhcurveto
          -15 -17 -26 -30 -3 hvcurveto
          -40 -5 62 -7 22 hhcurveto
          endchar
        </CharString>
        <CharString name="iogonek">
          -257 152 -82 callgsubr
          102 -688 rmoveto
          20 callsubr
          -2 1 12 11 7 16 2 18 rlinecurve
          1 callsubr
          -16 callsubr
          -12 -6 8 26 2 hvcurveto
          4 65 14 113 20 189 rrcurveto
          16 -15 12 -35 vhcurveto
          -20 hlineto
          -34 -19 3 callgsubr
          -5 -44 -19 -177 -11 -111 -2 -18 -2 -27 -1 -16 -3 -85 41 -24 47 -1 rrcurveto
          -12 -28 -4 -28 -17 -65 callsubr
          endchar
        </CharString>
        <CharString name="itilde">
          -257 34 584 rmoveto
          -79 callgsubr
          105 -594 -97 callgsubr
          endchar
        </CharString>
        <CharString name="j">
          -262 154 -82 callgsubr
          -144 -801 -84 callgsubr
        </CharString>
        <CharString name="jcircumflex">
          -262 55 -100 callgsubr
          -45 -785 -84 callgsubr
        </CharString>
        <CharString name="k">
          -45 callgsubr
          endchar
        </CharString>
        <CharString name="kcommaaccent">
          -45 callgsubr
          -191 -576 rmoveto
          -16 hlineto
          -36 -15 -16 -24 hvcurveto
          -78 -17 -30 -20 vvcurveto
          -14 23 -5 15 29 58 71 78 22 -12 16 -29 vhcurveto
          endchar
        </CharString>
        <CharString name="kgreenlandic">
          24 167 525 rmoveto
          -19 hlineto
          -38 -62 callgsubr
          -49 -471 rlineto
          -18 12 -10 38 vhcurveto
          19 hlineto
          37 29 callgsubr
          24 221 rlineto
          4 hlineto
          144 -232 rlineto
          -14 8 22 -3 26 hhcurveto
          28 hlineto
          41 13 6 11 5 -2 4 -4 8 hvcurveto
          -160 253 181 206 rlineto
          7 8 5 8 5 vvcurveto
          7 -16 6 -32 vhcurveto
          -25 hlineto
          -26 -21 -2 -15 -12 hvcurveto
          -171 -198 rlineto
          -4 hlineto
          20 187 rlineto
          18 -12 10 -38 vhcurveto
          endchar
        </CharString>
        <CharString name="l">
          -241 154 -7 -20 callgsubr
        </CharString>
        <CharString name="lacute">
          -241 149 776 rmoveto
          -105 callsubr
          5 -783 -20 callgsubr
        </CharString>
        <CharString name="lcaron">
          -241 154 -7 -77 callgsubr
          146 524 -48 callsubr
          endchar
        </CharString>
        <CharString name="lcommaaccent">
          -241 154 -7 -77 callgsubr
          -68 -231 -80 callsubr
          endchar
        </CharString>
        <CharString name="ldot">
          -241 154 -7 -77 callgsubr
          122 303 -19 callsubr
        </CharString>
        <CharString name="less">
          -63 365 13 rmoveto
          17 -11 5 13 3 30 2 15 rcurveline
          2 28 -1 13 -19 13 -215 125 rcurveline
          240 125 18 10 9 12 3 31 rlinecurve
          2 15 2 25 -1 19 -28 -14 rlinecurve
          -349 -174 -17 -9 -7 -11 -3 -20 rlinecurve
          -1 -18 -2 -20 5 -12 15 -8 rlinecurve
          endchar
        </CharString>
        <CharString name="lessequal">
          -58 369 129 rmoveto
          22 -11 6 7 3 34 3 21 rcurveline
          2 20 -6 11 -15 8 -214 121 rcurveline
          239 119 15 9 9 10 3 33 rlinecurve
          1 9 4 37 -6 4 -24 -11 rlinecurve
          -346 -162 -17 -8 -8 -12 -2 -19 rlinecurve
          -2 -18 -1 -20 5 -12 15 -7 rlinecurve
          -29 -292 5 callsubr
          -8 -14 -29 -3 hvcurveto
          -1 -9 rlineto
          -30 -3 5 -13 18 hhcurveto
          endchar
        </CharString>
        <CharString name="logicalnot">
          -62 338 74 rmoveto
          34 hlineto
          24 10 -66 callsubr
          22 207 rlineto
          25 3 -9 11 -24 hhcurveto
          -343 hlineto
          -18 -8 -13 -30 -4 hvcurveto
          -1 -9 -3 callgsubr
          277 hlineto
          -15 -148 -30 callsubr
          9 -10 22 hhcurveto
          endchar
        </CharString>
        <CharString name="longs">
          -238 97 -2 -6 callgsubr
          61 582 rlineto
          39 4 14 11 22 13 10 -5 8 hhcurveto
          18 15 54 8 1 hvcurveto
          34 3 -56 10 -30 hhcurveto
          -17 callgsubr
          -18 hlineto
          -19 -8 -13 -30 -4 hvcurveto
          -2 -15 rlineto
          -30 -2 6 -13 19 hhcurveto
          18 hlineto
          -41 -396 rlineto
          -18 -3 19 callsubr
          endchar
        </CharString>
        <CharString name="lozenge">
          -65 424 370 rmoveto
          -97 320 rlineto
          18 -5 -19 5 -26 hhcurveto
          -12 hlineto
          -24 -21 -5 -18 -8 hvcurveto
          -164 -320 -5 -7 -2 -8 -1 -7 rlinecurve
          -1 -8 1 -7 3 -8 93 -316 rcurveline
          -18 5 19 -5 25 hhcurveto
          20 hlineto
          26 19 5 18 9 hvcurveto
          160 316 5 8 1 7 1 8 rlinecurve
          1 7 -1 8 -2 7 rrcurveto
          -213 -242 rmoveto
          -54 220 101 213 50 -213 rlineto
          endchar
        </CharString>
        <CharString name="lslash">
          -241 261 508 rmoveto
          -4 -4 -1 -3 -6 hvcurveto
          -37 -22 26 243 rlineto
          18 2 -67 callgsubr
          -2 hvcurveto
          -34 -323 -29 -18 rlineto
          -16 -9 -7 -13 -18 vvcurveto
          -15 vlineto
          -12 3 -6 6 4 4 2 4 6 vhcurveto
          22 13 -21 -197 rlineto
          -103 -11 49 -37 67 hhcurveto
          47 33 20 42 4 hvcurveto
          19 3 -4 24 -13 -6 -9 -5 -11 hhcurveto
          -18 -10 11 31 4 hvcurveto
          29 275 44 26 rlineto
          16 10 8 11 19 vvcurveto
          15 vlineto
          12 -4 5 -6 vhcurveto
          endchar
        </CharString>
        <CharString name="m">
          209 678 99 rmoveto
          -6 -4 -3 -10 hhcurveto
          -10 -7 6 22 1 hvcurveto
          9 16 144 10 106 vhcurveto
          100 11 -40 47 -70 hhcurveto
          -59 -49 -33 -39 -32 hvcurveto
          50 -11 -37 22 -50 hhcurveto
          -59 -47 -36 -39 -30 hvcurveto
          34 -3 5 33 -31 hhcurveto
          -17 -78 -6 -25 -2 hvcurveto
          -1 -11 6 -30 -9 -92 -36 -332 rcurveline
          -18 -1 14 -10 35 hhcurveto
          26 hlineto
          34 17 9 19 2 23 callsubr
          25 28 32 hhcurveto
          36 10 -24 -44 -4 hvcurveto
          -35 -332 -52 callgsubr
          25 -1 callsubr
          38 358 rlineto
          22 16 24 20 27 hhcurveto
          35 10 -24 -44 -5 hvcurveto
          -19 -193 -6 -52 -16 vvcurveto
          -78 42 -25 48 56 30 31 48 12 -3 14 -9 vhcurveto
          endchar
        </CharString>
        <CharString name="macron">
          -256 65 602 -86 callgsubr
          endchar
        </CharString>
        <CharString name="minus">
          -62 38 177 rmoveto
          355 hlineto
          19 8 13 30 3 hvcurveto
          1 9 rlineto
          30 3 -5 13 -19 hhcurveto
          -355 10 callgsubr
          -2 hvcurveto
          -2 -9 -3 callgsubr
          endchar
        </CharString>
        <CharString name="multiply">
          -63 398 436 rmoveto
          -19 17 -12 10 -13 12 -18 -21 rlinecurve
          -122 -147 -93 148 -10 16 -10 -4 -24 -18 rlinecurve
          -12 -10 -23 -19 -1 -11 11 -17 rlinecurve
          99 -155 -131 -156 -16 -17 -1 -11 20 -19 rlinecurve
          10 -10 20 -18 9 -6 14 16 rlinecurve
          126 150 90 -147 14 -20 15 11 13 10 rlinecurve
          23 17 17 14 4 6 -13 21 rlinecurve
          -99 158 132 156 17 22 -3 8 -14 14 rlinecurve
          endchar
        </CharString>
        <CharString name="n">
          441 98 -98 callsubr
          endchar
        </CharString>
        <CharString name="nacute">
          244 579 rmoveto
          -105 callsubr
          197 -481 -98 callsubr
          endchar
        </CharString>
        <CharString name="nacute.loclPLK">
          254 579 -79 callsubr
          187 -481 -98 callsubr
          endchar
        </CharString>
        <CharString name="napostrophe">
          62 534 -80 callsubr
          379 -436 -98 callsubr
          endchar
        </CharString>
        <CharString name="ncaron">
          269 576 -102 callgsubr
          172 -478 -98 callsubr
          endchar
        </CharString>
        <CharString name="ncommaaccent">
          441 98 -98 callsubr
          -249 -336 -80 callsubr
          endchar
        </CharString>
        <CharString name="nine">
          -52 83 -6 rmoveto
          31 294 102 352 36 hvcurveto
          178 19 -83 78 -109 hhcurveto
          -103 -106 -68 -150 -16 hvcurveto
          -147 -15 84 -61 75 hhcurveto
          32 31 7 20 33 hvcurveto
          -39 -104 -76 -78 -111 -39 rrcurveto
          -10 -3 -2 -5 -10 vvcurveto
          -17 -3 9 -55 29 hhcurveto
          159 384 rmoveto
          -47 -30 38 74 7 hvcurveto
          72 9 41 42 36 hhcurveto
          39 34 -33 -114 -12 hvcurveto
          -2 -20 -2 -18 -4 -19 rrcurveto
          -11 -19 -25 -11 -25 hhcurveto
          endchar
        </CharString>
        <CharString name="notequal">
          -63 404 361 rmoveto
          -47 hlineto
          25 39 rlineto
          30 19 -6 17 -39 hhcurveto
          -19 hlineto
          -25 -11 -10 -16 -11 hvcurveto
          -38 -60 rlineto
          -185 17 callsubr
          136 hlineto
          -51 -82 rlineto
          -94 18 callgsubr
          46 hlineto
          -32 -51 rlineto
          -22 -13 7 -16 37 hhcurveto
          19 hlineto
          25 10 7 19 11 hvcurveto
          40 63 rlineto
          187 19 callgsubr
          -139 hlineto
          52 82 rlineto
          95 17 callgsubr
          endchar
        </CharString>
        <CharString name="ntilde">
          142 584 rmoveto
          -104 callsubr
          309 -490 -98 callsubr
          endchar
        </CharString>
        <CharString name="numbersign">
          3 80 -2 rmoveto
          14 hlineto
          29 15 10 18 5 hvcurveto
          41 162 rlineto
          84 hlineto
          -26 -100 -14 -59 -1 -6 rrcurveto
          -17 -1 12 -8 25 hhcurveto
          15 hlineto
          28 16 10 18 5 hvcurveto
          40 162 rlineto
          73 hlineto
          19 9 13 29 3 hvcurveto
          1 13 8 callsubr
          -59 hlineto
          31 123 rlineto
          67 hlineto
          18 9 13 30 3 hvcurveto
          2 12 28 callgsubr
          -18 hhcurveto
          -53 hlineto
          38 152 rlineto
          17 4 -12 10 -27 hhcurveto
          -15 hlineto
          -29 -15 -10 -18 -6 hvcurveto
          -36 -151 rlineto
          -86 hlineto
          38 152 rlineto
          17 4 -11 10 -28 hhcurveto
          -14 hlineto
          -29 -16 -10 -18 -5 hvcurveto
          -37 -151 rlineto
          -70 8 callgsubr
          -2 -12 9 callsubr
          18 hhcurveto
          56 hlineto
          -31 -123 rlineto
          -67 7 callgsubr
          -4 hvcurveto
          -1 -13 rlineto
          -29 -3 7 -13 18 hhcurveto
          53 hlineto
          -26 -97 -15 -63 -1 -4 rrcurveto
          -18 -2 12 -8 27 hhcurveto
          128 288 rmoveto
          31 123 rlineto
          85 hlineto
          -31 -123 rlineto
          endchar
        </CharString>
        <CharString name="o">
          -34 211 -7 -95 callgsubr
        </CharString>
        <CharString name="oacute">
          -34 242 579 rmoveto
          -105 callsubr
          -31 -586 -95 callgsubr
        </CharString>
        <CharString name="oacute.loclPLK">
          -34 252 579 -79 callsubr
          -41 -586 -95 callgsubr
        </CharString>
        <CharString name="obreve">
          -34 272 -81 callgsubr
          -61 -586 -95 callgsubr
        </CharString>
        <CharString name="ocircumflex">
          -55 callgsubr
          endchar
        </CharString>
        <CharString name="odieresis">
          -34 199 589 -101 callgsubr
          -137 -596 -95 callgsubr
        </CharString>
        <CharString name="oe">
          211 646 139 rmoveto
          -73 callgsubr
          114 86 67 116 51 -28 89 -129 -65 -51 -23 -38 -38 hvcurveto
          40 -28 -43 21 -57 hhcurveto
          -138 -72 -95 -174 -18 hvcurveto
          -173 -18 53 -95 137 hhcurveto
          58 47 21 39 36 hvcurveto
          -41 34 53 -19 65 hhcurveto
          42 79 15 37 24 hvcurveto
          -61 callgsubr
          -425 -46 rmoveto
          -51 -16 48 121 13 hvcurveto
          120 12 26 48 52 hhcurveto
          45 19 -37 -89 -5 hvcurveto
          -4 -26 -3 -27 -1 -28 rrcurveto
          -92 -14 -26 -38 -47 hhcurveto
          320 337 -38 callsubr
        </CharString>
        <CharString name="ogonek">
          -255 138 -183 rmoveto
          21 21 5 10 18 hvcurveto
          11 6 4 10 13 vvcurveto
          21 -9 7 -17 vhcurveto
          20 callsubr
          -47 16 rlineto
          -30 -40 -8 -46 -25 vvcurveto
          -26 9 -66 86 vhcurveto
          endchar
        </CharString>
        <CharString name="ograve">
          -34 292 579 -97 callsubr
          -81 -586 -95 callgsubr
        </CharString>
        <CharString name="ohorn">
          -34 506 546 -90 callsubr
          endchar
        </CharString>
        <CharString name="ohungarumlaut">
          -34 180 579 -81 callsubr
          -120 -586 -95 callgsubr
        </CharString>
        <CharString name="omacron">
          -34 177 602 -86 callgsubr
          34 -609 -95 callgsubr
        </CharString>
        <CharString name="one">
          -52 43 hmoveto
          336 3 callsubr
          30 3 -7 13 -18 hhcurveto
          -95 hlineto
          61 579 rlineto
          12 1 -20 11 -16 hhcurveto
          -218 -42 -16 -3 -8 -8 -2 -14 rlinecurve
          -24 -3 1 -48 22 hhcurveto
          124 18 -50 -481 rlineto
          -117 hlineto
          -18 -10 -13 -30 -3 hvcurveto
          -1 -15 36 callsubr
          19 hhcurveto
          endchar
        </CharString>
        <CharString name="oneeighth">
          117 143 -66 callgsubr
          -4 -295 rmoveto
          15 hlineto
          16 13 7 17 7 hvcurveto
          284 655 rlineto
          1 28 callsubr
          6 -5 3 -12 vhcurveto
          -15 hlineto
          -15 -15 -6 -17 -6 hvcurveto
          -282 -656 rlineto
          -3 -5 -2 -5 -3 vvcurveto
          -7 6 -3 11 vhcurveto
          309 -3 rmoveto
          79 44 54 65 7 hvcurveto
          6 60 -24 29 -30 19 28 15 27 26 5 51 rrcurveto
          63 7 -39 39 -64 hhcurveto
          -68 -47 -41 -65 -6 hvcurveto
          -6 -47 18 -25 24 -19 -32 -16 -29 -31 -6 -57 rrcurveto
          -71 -7 36 -49 77 hhcurveto
          34 257 rmoveto
          -22 14 -17 15 3 32 rrcurveto
          30 3 19 14 19 hhcurveto
          20 14 -15 -30 -3 hvcurveto
          -3 -27 -13 -19 -20 -14 rrcurveto
          -29 -198 rmoveto
          -24 -17 19 45 5 hvcurveto
          3 34 14 20 21 15 27 -16 25 -17 -5 -42 rrcurveto
          -32 -2 -20 -26 -27 hhcurveto
          endchar
        </CharString>
        <CharString name="onehalf">
          130 143 -66 callgsubr
          -6 -42 callgsubr
          216 1 -62 callsubr
          endchar
        </CharString>
        <CharString name="onequarter">
          75 143 -66 callgsubr
          -10 -42 callgsubr
          322 -42 callsubr
        </CharString>
        <CharString name="ordfeminine">
          -230 128 438 rmoveto
          29 20 16 23 13 hvcurveto
          -28 5 18 -10 23 hhcurveto
          35 17 18 26 6 -1 8 -6 hvcurveto
          -9 hlineto
          -6 -3 2 9 1 hvcurveto
          14 7 61 6 53 vhcurveto
          2 19 4 30 7 vvcurveto
          8 -8 5 -19 vhcurveto
          -10 hlineto
          -23 -3 -6 -17 -6 hvcurveto
          10 -10 -15 16 -29 hhcurveto
          -52 -40 -44 -87 -10 hvcurveto
          -65 -8 14 -74 64 hhcurveto
          29 61 rmoveto
          -26 -3 36 41 5 hvcurveto
          54 6 14 18 25 hhcurveto
          13 7 -3 -5 6 hvcurveto
          -5 -34 -8 -79 rlineto
          -16 -7 -13 -12 -14 hhcurveto
          endchar
        </CharString>
        <CharString name="ordmasculine">
          -219 165 439 rmoveto
          77 48 49 86 9 hvcurveto
          86 9 -37 49 -78 hhcurveto
          -77 -47 -49 -86 -9 hvcurveto
          -86 -9 37 -49 77 hhcurveto
          8 71 rmoveto
          -25 -10 18 46 6 hvcurveto
          46 4 14 18 24 hhcurveto
          25 8 -18 -46 -4 hvcurveto
          -46 -6 -12 -18 -24 hhcurveto
          endchar
        </CharString>
        <CharString name="oslash">
          -34 438 490 -57 callsubr
        </CharString>
        <CharString name="oslashacute">
          -34 244 579 rmoveto
          -105 callsubr
          194 -89 -57 callsubr
        </CharString>
        <CharString name="otilde">
          -34 140 584 rmoveto
          -104 callsubr
          81 -595 -95 callgsubr
        </CharString>
        <CharString name="p">
          -27 64 -207 rmoveto
          22 hlineto
          36 17 10 19 2 hvcurveto
          22 18 callsubr
          170 18 -52 101 -90 hhcurveto
          -48 -42 -28 -44 -29 hvcurveto
          29 -2 0 35 -29 hhcurveto
          -19 -74 -7 -21 -2 hvcurveto
          -2 -15 9 -28 -11 -95 -55 -534 rcurveline
          -19 -3 15 -10 36 hhcurveto
          162 301 rmoveto
          -23 -18 10 15 -13 hvcurveto
          28 257 rlineto
          30 19 25 21 26 hhcurveto
          43 15 26 callsubr
        </CharString>
        <CharString name="paragraph">
          -45 187 -172 rmoveto
          31 callsubr
          78 hlineto
          -82 -783 rlineto
          -18 -3 8 -9 20 hhcurveto
          31 callsubr
          24 hlineto
          19 8 8 19 2 hvcurveto
          1 6 rlineto
          21 2 -7 8 -19 hhcurveto
          -201 hlineto
          -110 -99 -87 -155 -17 hvcurveto
          -14 -139 68 -88 97 -14 -38 -362 rcurveline
          -18 -3 8 -9 20 hhcurveto
          endchar
        </CharString>
        <CharString name="parenleft">
          -262 139 -209 rmoveto
          18 30 21 -39 callgsubr
          1 6 -1 7 -4 7 -70 130 -12 146 18 161 16 161 43 146 97 130 6 7 2 7 1 7 rrcurveto
          19 2 -28 19 -17 hhcurveto
          -9 -9 -4 -10 -9 hvcurveto
          -111 -122 -69 -175 -19 -185 -20 -186 32 -175 86 -121 rrcurveto
          -10 7 8 -4 9 hhcurveto
          endchar
        </CharString>
        <CharString name="parenright">
          -262 11 -209 rmoveto
          9 9 4 10 8 hvcurveto
          112 122 68 174 20 186 19 185 -31 176 -86 121 rrcurveto
          10 -7 -7 4 -9 hhcurveto
          -18 -32 -20 -13 callgsubr
          -1 -6 2 -7 4 -7 70 -130 11 -146 -17 -161 -17 -162 -43 -146 -96 -130 -6 -7 -2 -6 -1 -6 rrcurveto
          -19 -2 27 -20 18 hhcurveto
          endchar
        </CharString>
        <CharString name="partialdiff">
          -100 158 -9 rmoveto
          135 89 127 216 23 hvcurveto
          250 26 -72 151 -140 hhcurveto
          -86 -44 -36 -30 -3 hvcurveto
          -20 -2 24 -46 18 13 20 28 39 hhcurveto
          56 39 -76 -164 -8 hvcurveto
          22 -23 -31 9 -31 hhcurveto
          -92 -86 -88 -141 -15 hvcurveto
          -130 -14 59 -72 106 hhcurveto
          16 104 rmoveto
          -38 -16 34 66 6 hvcurveto
          68 8 35 56 43 hhcurveto
          24 18 -13 -25 17 hvcurveto
          -93 -9 -34 -93 -54 hhcurveto
          endchar
        </CharString>
        <CharString name="percent">
          175 -57 callgsubr
          7 2 callgsubr
          endchar
        </CharString>
        <CharString name="period">
          -323 52 -2 -7 callsubr
        </CharString>
        <CharString name="periodcentered">
          -297 114 296 -19 callsubr
        </CharString>
        <CharString name="perthousand">
          475 -57 callgsubr
          301 hmoveto
          62 74 28 138 14 hvcurveto
          137 14 -68 29 -61 hhcurveto
          -62 -73 -29 -137 -15 hvcurveto
          -138 -14 68 -28 61 hhcurveto
          -294 2 callgsubr
          301 hmoveto
          -36 -3 36 57 6 hvcurveto
          52 5 11 39 37 hhcurveto
          37 3 -39 -52 -6 hvcurveto
          -57 -6 -11 -36 -37 hhcurveto
          endchar
        </CharString>
        <CharString name="pi">
          -4 79 -2 rmoveto
          9 hlineto
          30 25 9 19 9 hvcurveto
          34 91 38 180 17 125 rrcurveto
          77 hlineto
          -34 -293 rlineto
          -67 -8 -5 -64 51 hhcurveto
          22 hlineto
          37 18 11 17 1 hvcurveto
          2 12 -3 38 8 78 28 268 rcurveline
          37 hlineto
          19 10 9 20 4 hvcurveto
          4 16 3 17 1 12 rrcurveto
          19 2 -9 8 -20 hhcurveto
          -323 hlineto
          -65 -62 -9 -39 -4 hvcurveto
          -13 -2 -5 -51 31 hhcurveto
          11 16 10 1 43 hvcurveto
          -18 -125 -41 -164 -37 -103 rrcurveto
          -2 -4 -1 -3 -3 vvcurveto
          -12 -2 20 -10 34 hhcurveto
          endchar
        </CharString>
        <CharString name="plus">
          -62 249 469 rmoveto
          -11 hlineto
          -31 -13 -8 -61 callsubr
          -17 -163 rlineto
          -111 hlineto
          -27 -5 -35 -25 -23 6 -10 17 hvcurveto
          111 hlineto
          -17 -161 rlineto
          -19 8 -8 32 vhcurveto
          11 hlineto
          29 15 8 19 2 hvcurveto
          17 161 rlineto
          118 hlineto
          28 4 33 26 23 -5 11 -17 hvcurveto
          -119 hlineto
          17 163 rlineto
          18 -9 8 -31 vhcurveto
          endchar
        </CharString>
        <CharString name="plusminus">
          -62 265 600 rmoveto
          -12 hlineto
          -29 -14 -9 -21 -2 hvcurveto
          -17 -159 rlineto
          -112 hlineto
          -30 -6 -40 -22 -21 7 -10 19 hvcurveto
          112 hlineto
          -16 -158 rlineto
          -20 8 -10 31 vhcurveto
          12 hlineto
          29 15 10 20 2 hvcurveto
          16 158 rlineto
          115 hlineto
          30 5 38 22 22 -7 11 -19 hvcurveto
          -114 hlineto
          17 159 rlineto
          21 -9 9 -31 vhcurveto
          107 -505 rmoveto
          -330 hlineto
          -29 -7 -41 -23 -21 7 -10 19 hvcurveto
          330 hlineto
          29 8 41 23 20 -8 11 -19 hvcurveto
          endchar
        </CharString>
        <CharString name="product">
          89 609 700 rmoveto
          -526 hlineto
          -23 -10 -27 -46 -25 6 -11 17 hvcurveto
          61 30 callsubr
          35 20 -66 callsubr
          69 667 rlineto
          154 30 callsubr
          36 19 -66 callsubr
          69 667 rlineto
          65 hlineto
          23 10 28 45 25 -6 11 -17 hvcurveto
          endchar
        </CharString>
        <CharString name="q">
          -30 301 -207 rmoveto
          22 hlineto
          36 17 10 19 2 hvcurveto
          71 675 -27 callsubr
          -9 hlineto
          -25 -16 -4 -17 -7 hvcurveto
          -15 -46 rlineto
          44 -19 -40 28 -46 hhcurveto
          -92 -74 -100 -169 -17 hvcurveto
          -173 -19 53 -95 105 hhcurveto
          42 30 17 20 22 hvcurveto
          -21 -208 rlineto
          -19 -3 15 -10 36 hhcurveto
          -78 301 rmoveto
          -49 -19 45 121 13 hvcurveto
          116 12 27 51 45 hhcurveto
          25 19 -19 -28 15 hvcurveto
          -28 -260 rlineto
          -16 -16 -20 -10 -24 hhcurveto
          endchar
        </CharString>
        <CharString name="question">
          -120 136 215 rmoveto
          20 hlineto
          30 12 6 18 7 hvcurveto
          14 55 37 36 43 39 48 46 50 45 8 80 rrcurveto
          103 12 -72 64 -120 hhcurveto
          -70 -97 -27 -45 -5 hvcurveto
          -18 -2 25 -53 22 12 37 32 50 hhcurveto
          54 24 -25 -46 -5 hvcurveto
          -4 -41 -42 -38 -45 -47 -47 -52 -30 -52 -5 -53 rrcurveto
          -19 -2 11 -8 30 hhcurveto
          -25 -217 rmoveto
          26 -26 callgsubr
          9 83 33 callsubr
          10 -37 hhcurveto
          -26 23 callgsubr
          -9 -83 0 callgsubr
          endchar
        </CharString>
        <CharString name="questiondown">
          -120 280 525 rmoveto
          -26 23 callgsubr
          -9 -83 0 callgsubr
          26 -26 callgsubr
          9 83 33 callsubr
          10 -37 hhcurveto
          -25 -217 rmoveto
          -20 hlineto
          -30 -12 -6 -18 -7 hvcurveto
          -14 -55 -37 -36 -43 -39 -48 -46 -50 -45 -8 -80 rrcurveto
          -103 -12 72 -64 120 hhcurveto
          70 97 27 45 5 hvcurveto
          18 2 -25 53 -22 -12 -37 -32 -50 hhcurveto
          -54 -24 25 46 5 hvcurveto
          4 41 42 38 45 47 47 52 30 52 5 53 rrcurveto
          19 2 -11 8 -30 hhcurveto
          endchar
        </CharString>
        <CharString name="quotedbl">
          -202 98 -12 callsubr
          143 hmoveto
          12 hlineto
          18 10 7 16 4 hvcurveto
          15 62 26 113 1 9 rrcurveto
          18 1 37 callgsubr
          -10 23 callgsubr
          -1 -8 4 -176 rlineto
          -16 1 8 -7 18 hhcurveto
          endchar
        </CharString>
        <CharString name="quotedblbase">
          -163 12 -122 -37 callgsubr
        </CharString>
        <CharString name="quotedblleft">
          -163 92 491 rmoveto
          -35 callsubr
          157 hmoveto
          -35 callsubr
          endchar
        </CharString>
        <CharString name="quotedblright">
          -163 68 497 -37 callgsubr
        </CharString>
        <CharString name="quoteleft">
          -301 100 491 rmoveto
          -35 callsubr
          endchar
        </CharString>
        <CharString name="quoteright">
          -301 86 497 -9 callgsubr
          endchar
        </CharString>
        <CharString name="quotesinglbase">
          -301 21 -122 -9 callgsubr
          endchar
        </CharString>
        <CharString name="quotesingle">
          -347 97 -12 callsubr
          endchar
        </CharString>
        <CharString name="quotesingle.loclGUA">
          -340 83 386 rmoveto
          24 2 60 109 18 165 rrcurveto
          22 2 -13 16 -31 hhcurveto
          -16 hlineto
          -36 -18 -16 -24 -3 hvcurveto
          -24 -254 rlineto
          -15 -2 24 -5 15 hhcurveto
          endchar
        </CharString>
        <CharString name="r">
          -174 89 -2 -31 callsubr
        </CharString>
        <CharString name="racute">
          -174 181 578 rmoveto
          -105 callsubr
          -92 -580 -31 callsubr
        </CharString>
        <CharString name="radical">
          -16 260 -154 rmoveto
          23 hlineto
          28 17 9 19 4 hvcurveto
          174 912 rlineto
          10 vlineto
          10 -11 8 -26 vhcurveto
          -25 hlineto
          -28 29 callsubr
          -119 -677 rlineto
          -6 -28 -6 -63 -8 vvcurveto
          -4 hlineto
          1 8 -12 50 -10 42 -61 257 rcurveline
          14 -3 -9 8 -11 hhcurveto
          -16 -60 -31 -21 -41 hvcurveto
          -15 -8 -6 -5 -12 vvcurveto
          -6 2 -7 11 -28 vhcurveto
          -14 6 7 -6 11 hhcurveto
          6 13 4 14 25 hvcurveto
          109 -396 rlineto
          -20 6 18 -7 27 hhcurveto
          endchar
        </CharString>
        <CharString name="rcaron">
          -174 206 575 -102 callgsubr
          -117 -577 -31 callsubr
        </CharString>
        <CharString name="rcommaaccent">
          -174 89 -2 -76 callgsubr
          -20 -238 -80 callsubr
          endchar
        </CharString>
        <CharString name="registered">
          80 -25 callsubr
          -76 101 rmoveto
          17 hlineto
          20 8 6 10 hvcurveto
          149 13 vlineto
          28 5 -12 -31 8 hvcurveto
          36 -111 rlineto
          -8 2 10 -3 15 hhcurveto
          20 hlineto
          19 8 4 6 3 0 3 -2 5 hvcurveto
          -37 121 -10 28 -13 22 -10 7 rlinecurve
          3 vlineto
          30 16 22 31 46 vvcurveto
          70 -33 35 -78 vhcurveto
          -88 hlineto
          -12 -7 -6 -15 hvcurveto
          -363 vlineto
          -10 9 -6 20 vhcurveto
          45 228 rmoveto
          109 36 vlineto
          20 13 -18 -34 -31 -14 -26 -16 hvcurveto
          endchar
        </CharString>
        <CharString name="ring">
          -255 159 -44 callgsubr
          endchar
        </CharString>
        <CharString name="s">
          -38 callgsubr
          endchar
        </CharString>
        <CharString name="sacute">
          -158 178 579 rmoveto
          -105 callsubr
          -46 -587 -88 callsubr
          endchar
        </CharString>
        <CharString name="sacute.loclPLK">
          -158 188 579 -79 callsubr
          -56 -587 -88 callsubr
          endchar
        </CharString>
        <CharString name="scaron">
          -158 203 576 -102 callgsubr
          -71 -584 -88 callsubr
          endchar
        </CharString>
        <CharString name="scedilla">
          -158 224 427 rmoveto
          35 22 -20 8 hhcurveto
          15 28 50 21 2 hvcurveto
          36 4 -71 17 -51 hhcurveto
          -92 -72 -59 -95 -11 hvcurveto
          -8 -85 43 -36 49 -27 40 -23 29 -19 -4 -41 rrcurveto
          -33 -3 -23 -17 -34 -43 -23 31 -11 hhcurveto
          -16 -36 -49 -22 -2 hvcurveto
          -4 -32 58 -27 61 -4 rrcurveto
          -17 -49 -5 -15 -8 -71 callsubr
          14 48 80 15 54 60 9 82 rlinecurve
          9 82 -39 38 -51 30 -36 22 -35 18 5 41 rrcurveto
          29 3 23 14 30 hhcurveto
          endchar
        </CharString>
        <CharString name="scircumflex">
          -158 108 -100 callgsubr
          24 -581 -88 callsubr
          endchar
        </CharString>
        <CharString name="scommaaccent">
          -38 callgsubr
          -20 -230 -80 callsubr
          endchar
        </CharString>
        <CharString name="section">
          -156 136 -7 rmoveto
          94 79 60 95 3 hvcurveto
          2 36 -10 29 -23 26 rrcurveto
          40 29 25 50 51 vvcurveto
          65 -30 36 -59 32 vhcurveto
          -32 16 -36 14 1 34 rrcurveto
          25 2 21 13 25 42 21 -21 9 hhcurveto
          16 29 55 18 35 -74 15 -43 -94 -76 -58 -95 -4 hvcurveto
          -1 -34 10 -31 23 -23 rrcurveto
          -44 -31 -22 -50 -49 vvcurveto
          -61 27 -38 56 -31 vhcurveto
          42 -24 33 -12 -2 -32 rrcurveto
          -24 -1 -19 -16 -28 -45 -21 27 -9 hhcurveto
          -16 -35 -54 -21 -35 74 -21 50 hvcurveto
          67 301 rmoveto
          -35 14 -30 14 4 41 2 22 12 15 17 9 36 -15 30 -14 -4 -40 -3 -23 -13 -15 -16 -8 rrcurveto
          endchar
        </CharString>
        <CharString name="semicolon">
          -323 90 386 rmoveto
          27 32 callsubr
          -13 -20 callsubr
          -28 16 callsubr
          -125 -508 -11 callgsubr
        </CharString>
        <CharString name="seven">
          -52 84 -2 rmoveto
          28 hlineto
          26 21 4 15 6 hvcurveto
          297 595 2 3 1 5 1 4 rlinecurve
          27 2 -11 49 -10 hhcurveto
          -349 8 callgsubr
          -2 -15 rlineto
          -30 -4 8 -13 18 hhcurveto
          237 hlineto
          -282 -564 -3 -7 -4 -7 -1 -5 rlinecurve
          -12 -1 15 -6 35 hhcurveto
          endchar
        </CharString>
        <CharString name="six">
          -52 204 -7 rmoveto
          104 105 69 150 16 hvcurveto
          147 16 -86 61 -74 hhcurveto
          -32 -31 -8 -19 -33 hvcurveto
          39 104 76 77 112 40 9 3 2 4 2 10 rrcurveto
          17 1 -8 55 -30 hhcurveto
          -31 -294 -102 -352 -37 hvcurveto
          -178 -18 84 -78 108 hhcurveto
          12 101 rmoveto
          -38 -34 33 114 12 hvcurveto
          2 19 3 19 3 19 rrcurveto
          11 19 25 10 25 hhcurveto
          46 31 -38 -73 -7 hvcurveto
          -73 -8 -41 -41 -38 hhcurveto
          endchar
        </CharString>
        <CharString name="slash">
          -191 18 -19 callgsubr
        </CharString>
        <CharString name="space">
          -374 endchar
        </CharString>
        <CharString name="sterling">
          -100 16 hmoveto
          323 3 callsubr
          30 3 -7 13 -18 hhcurveto
          -200 hlineto
          28 22 25 37 10 90 7 71 rcurveline
          86 hlineto
          18 10 13 30 3 hvcurveto
          2 15 28 callgsubr
          -18 hhcurveto
          -87 hlineto
          9 84 rlineto
          73 8 28 31 52 24 28 -9 4 hhcurveto
          16 22 42 24 2 hvcurveto
          34 4 -63 6 -36 hhcurveto
          -130 -68 -73 -133 -14 hvcurveto
          -8 -79 rlineto
          -41 hlineto
          -19 -9 -13 -30 -3 hvcurveto
          -2 -15 9 callsubr
          18 hhcurveto
          41 hlineto
          -16 -152 -8 -74 -79 1 -4 -42 rlinecurve
          -2 -18 -4 callgsubr
          endchar
        </CharString>
        <CharString name="summation">
          -37 475 700 rmoveto
          -376 hlineto
          -23 -12 -11 -23 -2 hvcurveto
          -3 -26 -2 -14 3 -11 5 -11 rlinecurve
          134 -288 -202 -321 -7 -11 -4 -10 -2 -14 rlinecurve
          -3 -26 rlineto
          -25 -2 8 -11 24 hhcurveto
          393 hlineto
          17 8 7 callsubr
          3 28 rlineto
          29 3 -6 14 -18 hhcurveto
          -257 hlineto
          -1 2 172 270 6 9 2 7 1 8 rlinecurve
          1 7 -2 8 -3 8 -114 257 rcurveline
          1 3 rlineto
          243 hlineto
          17 9 14 29 3 hvcurveto
          2 23 rlineto
          30 4 -6 13 -18 hhcurveto
          endchar
        </CharString>
        <CharString name="t">
          -213 172 -7 -72 callgsubr
          endchar
        </CharString>
        <CharString name="tbar">
          -213 260 336 rmoveto
          -58 hlineto
          2 26 4 29 3 31 rrcurveto
          29 hlineto
          38 15 56 25 14 -3 6 -13 hvcurveto
          -55 hlineto
          10 99 rlineto
          16 -14 12 -36 vhcurveto
          -19 hlineto
          -34 -19 3 callgsubr
          -11 -99 rlineto
          -20 hlineto
          -28 -6 -35 -33 -22 6 -11 17 hvcurveto
          21 hlineto
          -9 -86 rlineto
          -24 hlineto
          -18 -10 -8 callgsubr
          -13 rlineto
          -26 -2 6 -11 18 hhcurveto
          25 hlineto
          -8 -75 -5 -50 -15 5 callgsubr
          16 4 40 7 70 hvcurveto
          58 hlineto
          21 8 11 26 2 -14 callsubr
          3 -6 11 -20 hhcurveto
          endchar
        </CharString>
        <CharString name="tcaron">
          -213 312 568 -48 callsubr
          -140 -575 -72 callgsubr
          endchar
        </CharString>
        <CharString name="thorn">
          -28 63 -207 rmoveto
          22 hlineto
          36 16 10 19 2 hvcurveto
          23 18 callsubr
          171 17 -52 100 -90 hhcurveto
          -43 -39 -22 -37 -29 hvcurveto
          27 254 -4 callsubr
          -20 23 callgsubr
          -95 -903 rlineto
          -19 -2 15 -10 36 hhcurveto
          162 301 rmoveto
          -23 -18 10 15 -14 hvcurveto
          28 257 rlineto
          30 20 24 21 26 hhcurveto
          43 16 26 callsubr
        </CharString>
        <CharString name="three">
          -52 179 -7 rmoveto
          121 97 75 135 14 hvcurveto
          10 92 -41 65 -69 24 rrcurveto
          4 vlineto
          58 24 46 48 8 74 rrcurveto
          107 11 -66 66 -117 hhcurveto
          -79 -92 -23 -42 -5 hvcurveto
          -23 -2 22 -45 17 14 27 32 63 hhcurveto
          65 19 -41 -46 -5 hvcurveto
          -48 -5 -39 -52 -74 hhcurveto
          -29 hlineto
          -19 -9 -13 -30 -3 hvcurveto
          -2 -15 9 callsubr
          18 hhcurveto
          37 hlineto
          81 38 -34 -78 -9 hvcurveto
          -80 -8 -56 -33 -56 -69 -35 39 -15 hhcurveto
          -19 -30 -47 -13 callgsubr
          -49 -5 112 -24 78 hhcurveto
          endchar
        </CharString>
        <CharString name="threequarters">
          116 135 289 -78 callgsubr
          50 -290 rmoveto
          14 hlineto
          17 13 7 17 7 hvcurveto
          283 655 rlineto
          2 28 callsubr
          6 -5 3 -12 vhcurveto
          -15 hlineto
          -16 -13 -6 -17 -8 hvcurveto
          -282 -656 rlineto
          -2 -5 -3 -5 -3 vvcurveto
          -7 7 -3 11 vhcurveto
          327 -42 callsubr
        </CharString>
        <CharString name="tilde">
          -219 21 584 rmoveto
          -104 callsubr
          endchar
        </CharString>
        <CharString name="tildecomb">
          -511 -132 584 rmoveto
          -104 callsubr
          endchar
        </CharString>
        <CharString name="trademark">
          106 315 305 rmoveto
          14 hlineto
          21 8 5 11 hvcurveto
          228 5 vlineto
          59 -141 rlineto
          -7 2 8 -2 8 hhcurveto
          13 hlineto
          9 6 2 7 3 hvcurveto
          59 139 rlineto
          5 -226 hlineto
          -11 8 -5 21 vhcurveto
          14 hlineto
          21 8 5 11 hvcurveto
          364 vlineto
          11 -8 5 -21 vhcurveto
          -25 hlineto
          -12 -12 -3 -10 -5 hvcurveto
          -67 -160 -11 -32 -13 33 -64 159 rlineto
          10 -4 -12 3 -12 hhcurveto
          -26 hlineto
          -21 -8 -5 -11 hvcurveto
          -364 vlineto
          -11 8 -5 21 vhcurveto
          -176 hmoveto
          18 hlineto
          20 9 6 10 hvcurveto
          316 69 vlineto
          10 4 8 16 hvcurveto
          15 vlineto
          17 -4 7 -10 vhcurveto
          -213 hlineto
          -10 -4 -7 -17 hvcurveto
          -15 vlineto
          -16 4 -8 10 vhcurveto
          69 -316 hlineto
          -10 9 -6 19 vhcurveto
          endchar
        </CharString>
        <CharString name="two">
          -52 10 hmoveto
          354 3 callsubr
          29 3 -7 13 -18 hhcurveto
          -222 hlineto
          184 236 72 84 26 48 7 62 rlinecurve
          105 11 -66 72 -128 hhcurveto
          -83 -108 -33 -52 -6 hvcurveto
          -23 -2 21 -40 23 17 43 47 69 hhcurveto
          54 33 -28 -54 -6 hvcurveto
          -3 -34 -15 -28 -40 -51 -258 -323 rcurveline
          -3 -3 -1 -6 -1 -7 rrcurveto
          -25 -3 7 -47 14 hhcurveto
          endchar
        </CharString>
        <CharString name="u">
          442 99 rmoveto
          -74 callsubr
          76 7 76 9 76 rrcurveto
          19 1 -14 10 -35 hhcurveto
          -26 -103 callgsubr
          hhcurveto
          endchar
        </CharString>
        <CharString name="uacute">
          242 579 rmoveto
          -105 callsubr
          200 -480 rmoveto
          -74 callsubr
          76 7 76 9 76 rrcurveto
          19 1 -14 10 -35 hhcurveto
          -26 -103 callgsubr
          hhcurveto
          endchar
        </CharString>
        <CharString name="ubreve">
          272 -81 callgsubr
          170 -480 rmoveto
          -74 callsubr
          76 7 76 9 76 rrcurveto
          19 1 -14 10 -35 hhcurveto
          -26 -103 callgsubr
          hhcurveto
          endchar
        </CharString>
        <CharString name="ucircumflex">
          172 -100 callgsubr
          270 -474 rmoveto
          -74 callsubr
          76 7 76 9 76 rrcurveto
          19 1 -14 10 -35 hhcurveto
          -26 -103 callgsubr
          hhcurveto
          endchar
        </CharString>
        <CharString name="udieresis">
          199 589 -101 callgsubr
          94 -490 rmoveto
          -74 callsubr
          76 7 76 9 76 rrcurveto
          19 1 -14 10 -35 hhcurveto
          -26 -103 callgsubr
          hhcurveto
          endchar
        </CharString>
        <CharString name="ugrave">
          292 579 -97 callsubr
          150 -480 rmoveto
          -74 callsubr
          76 7 76 9 76 rrcurveto
          19 1 -14 10 -35 hhcurveto
          -26 -103 callgsubr
          hhcurveto
          endchar
        </CharString>
        <CharString name="uhorn">
          444 488 rmoveto
          60 7 26 35 48 vvcurveto
          -55 callsubr
          -29 -20 rlineto
          -8 -4 -54 callgsubr
          -18 -14 -15 -29 vhcurveto
          -44 -103 callgsubr
          -74 callsubr
          73 6 73 9 74 rrcurveto
          endchar
        </CharString>
        <CharString name="uhungarumlaut">
          180 579 -81 callsubr
          111 -480 rmoveto
          -74 callsubr
          76 7 76 9 76 rrcurveto
          19 1 -14 10 -35 hhcurveto
          -26 -103 callgsubr
          hhcurveto
          endchar
        </CharString>
        <CharString name="umacron">
          177 602 -86 callgsubr
          265 -503 rmoveto
          -74 callsubr
          76 7 76 9 76 rrcurveto
          19 1 -14 10 -35 hhcurveto
          -26 -103 callgsubr
          hhcurveto
          endchar
        </CharString>
        <CharString name="underscore">
          -84 -34 -141 rmoveto
          409 hlineto
          18 9 12 27 3 hvcurveto
          1 7 rlineto
          28 3 -7 11 -17 hhcurveto
          -410 hlineto
          -17 -10 -11 -28 -3 hvcurveto
          -7 vlineto
          -27 -3 6 -12 18 hhcurveto
          endchar
        </CharString>
        <CharString name="uni00A0">
          -374 endchar
        </CharString>
        <CharString name="uni00AD">
          -255 42 219 rmoveto
          163 hlineto
          17 9 12 30 4 hvcurveto
          1 8 rlineto
          30 2 -6 13 -18 hhcurveto
          -163 10 callgsubr
          -2 hvcurveto
          -1 -8 rlineto
          -30 -3 6 -12 18 hhcurveto
          endchar
        </CharString>
        <CharString name="uni00B2">
          -231 36 295 -62 callsubr
          endchar
        </CharString>
        <CharString name="uni00B3">
          -231 135 289 -78 callgsubr
          endchar
        </CharString>
        <CharString name="uni00B5">
          -58 -49 callgsubr
        </CharString>
        <CharString name="uni00B9">
          -231 158 -66 callgsubr
          endchar
        </CharString>
        <CharString name="uni0162">
          -57 463 700 rmoveto
          -379 6 callsubr
          -3 -25 -3 callgsubr
          123 hlineto
          -59 -563 -2 -15 10 -10 25 -2 rlinecurve
          -18 -54 -6 -15 -9 -71 callsubr
          15 50 28 2 13 10 1 16 rlinecurve
          60 563 rlineto
          123 hlineto
          18 10 13 30 2 hvcurveto
          4 24 callgsubr
          -18 hhcurveto
          endchar
        </CharString>
        <CharString name="uni0163">
          -213 240 422 rmoveto
          38 15 56 25 14 -3 6 -13 hvcurveto
          -55 hlineto
          10 99 rlineto
          16 -14 12 -36 vhcurveto
          -19 hlineto
          -34 -19 3 callgsubr
          -11 -99 rlineto
          -20 hlineto
          -28 -6 -35 -33 -22 6 -11 17 hvcurveto
          21 hlineto
          -18 -169 -13 -119 -24 vvcurveto
          -67 34 -35 46 -11 vhcurveto
          -19 -53 -5 -14 -9 -71 callsubr
          14 46 rlineto
          44 5 28 24 45 vvcurveto
          17 -7 13 -13 vhcurveto
          -22 callgsubr
          endchar
        </CharString>
        <CharString name="uni018F">
          49 235 -4 rmoveto
          150 97 96 242 25 hvcurveto
          253 27 -68 120 -172 hhcurveto
          -86 -118 -36 -44 -5 hvcurveto
          -20 -2 22 -48 18 16 56 44 80 hhcurveto
          79 43 -46 -186 -16 hvcurveto
          -288 hlineto
          -12 -36 -37 -15 -2 hvcurveto
          -201 -21 60 -122 153 hhcurveto
          11 103 rmoveto
          -80 -17 62 121 14 hvcurveto
          210 hlineto
          -138 -25 -38 -45 -64 hhcurveto
          endchar
        </CharString>
        <CharString name="uni01C4">
          573 880 753 -102 callgsubr
          -812 -753 rmoveto
          182 hlineto
          166 98 108 242 25 hvcurveto
          242 26 -75 108 -166 hhcurveto
          -182 -10 callgsubr
          -67 -628 rlineto
          -25 -2 9 -11 23 hhcurveto
          541 -60 callsubr
          -429 111 rmoveto
          51 478 rlineto
          77 hlineto
          79 36 -64 -175 -18 hvcurveto
          -175 -19 -49 -64 -79 hhcurveto
          endchar
        </CharString>
        <CharString name="uni01C5">
          471 810 576 -102 callgsubr
          -742 -576 rmoveto
          -74 callgsubr
          345 -111 rmoveto
          -93 callgsubr
          endchar
        </CharString>
        <CharString name="uni01C6">
          375 -80 callgsubr
          553 583 -102 callgsubr
          -207 -576 rmoveto
          -93 callgsubr
          -295 96 -24 callgsubr
        </CharString>
        <CharString name="uni01C7">
          207 189 702 rmoveto
          -25 hlineto
          -35 -52 callsubr
          -67 -643 rlineto
          -23 8 -8 25 vhcurveto
          268 hlineto
          28 5 36 42 23 -7 10 -15 hvcurveto
          -173 hlineto
          59 563 rlineto
          24 -29 4 -21 vhcurveto
          443 hmoveto
          -25 hlineto
          -36 -18 -75 callgsubr
          -67 -623 rlineto
          -78 -8 -33 -33 -72 -43 -13 9 -8 hhcurveto
          -8 -10 -13 -71 -32 52 -7 41 148 70 84 127 13 hvcurveto
          69 637 rlineto
          24 -29 4 -21 vhcurveto
          endchar
        </CharString>
        <CharString name="uni01C8">
          146 71 hmoveto
          -71 callgsubr
          492 -82 callgsubr
          -145 -801 -84 callgsubr
        </CharString>
        <CharString name="uni01C9">
          8 154 -7 -77 callgsubr
          270 596 -106 callsubr
          -144 -801 -84 callgsubr
        </CharString>
        <CharString name="uni01CA">
          434 667 -7 -70 callsubr
          -585 5 -98 callgsubr
          endchar
        </CharString>
        <CharString name="uni01CB">
          328 -48 callgsubr
          663 591 -106 callsubr
          -145 -801 -84 callgsubr
        </CharString>
        <CharString name="uni01CC">
          220 636 -82 callgsubr
          -195 -491 -98 callsubr
          51 -310 -84 callgsubr
        </CharString>
        <CharString name="uni01EA">
          88 347 707 rmoveto
          -172 -98 -108 -248 -26 hvcurveto
          -248 -25 94 -110 151 hhcurveto
          15 hlineto
          -15 -31 -5 -32 -19 -65 callsubr
          -32 callsubr
          20 5 27 13 26 hvcurveto
          124 30 72 111 21 208 rrcurveto
          247 26 -92 109 -153 hhcurveto
          85 -356 rmoveto
          -184 -19 -48 -63 -81 hhcurveto
          -81 -36 63 184 19 hvcurveto
          183 20 48 62 82 hhcurveto
          80 36 -62 -183 -20 hvcurveto
          endchar
        </CharString>
        <CharString name="uni01EB">
          -34 267 530 rmoveto
          -132 -78 -95 -174 -18 hvcurveto
          -18 -169 56 -95 125 -4 rrcurveto
          -18 -33 -5 -35 -20 -65 callsubr
          27 callsubr
          27 hvcurveto
          100 22 60 91 15 149 rrcurveto
          174 18 -58 95 -131 hhcurveto
          44 -268 rmoveto
          -121 -13 -27 -48 -50 hhcurveto
          -51 -16 48 121 13 hvcurveto
          120 12 26 48 51 hhcurveto
          51 17 -48 -120 -13 hvcurveto
          endchar
        </CharString>
        <CharString name="uni01F1">
          573 68 hmoveto
          182 hlineto
          166 98 108 242 25 hvcurveto
          242 26 -75 108 -166 hhcurveto
          -182 -10 callgsubr
          -67 -628 rlineto
          -25 -2 9 -11 23 hhcurveto
          541 -60 callsubr
          -429 111 rmoveto
          51 478 rlineto
          77 hlineto
          79 36 -64 -175 -18 hvcurveto
          -175 -19 -49 -64 -79 hhcurveto
          endchar
        </CharString>
        <CharString name="uni01F2">
          471 -27 callgsubr
          345 -111 rmoveto
          -93 callgsubr
          endchar
        </CharString>
        <CharString name="uni01F3">
          375 -80 callgsubr
          346 7 rmoveto
          -93 callgsubr
          -295 96 -24 callgsubr
        </CharString>
        <CharString name="uni021A">
          -57 184 -2 -65 callgsubr
          -19 -236 -80 callsubr
          endchar
        </CharString>
        <CharString name="uni021B">
          -213 172 -7 -72 callgsubr
          -40 -231 -80 callsubr
          endchar
        </CharString>
        <CharString name="uni0237">
          -262 10 -212 -84 callgsubr
        </CharString>
        <CharString name="uni0259">
          -57 220 530 rmoveto
          -42 -79 -15 -37 -24 hvcurveto
          -11 -16 -4 -21 -19 vvcurveto
          -21 6 -17 12 vhcurveto
          17 35 46 69 hhcurveto
          54 36 -25 -94 hvcurveto
          3 -19 -22 2 -30 hhcurveto
          -114 -86 -67 -116 -51 28 -89 129 166 75 146 179 hvcurveto
          148 1 -77 64 -120 hhcurveto
          -37 -437 rmoveto
          -30 -18 21 34 63 50 23 59 hvcurveto
          39 hlineto
          -78 -12 -28 -63 -60 hhcurveto
          endchar
        </CharString>
        <CharString name="uni02BC">
          -421 61 534 -80 callsubr
          endchar
        </CharString>
        <CharString name="uni02C9">
          -255 65 602 -86 callgsubr
          endchar
        </CharString>
        <CharString name="uni0302">
          -511 -63 -100 callgsubr
          endchar
        </CharString>
        <CharString name="uni0304">
          -511 -61 602 -86 callgsubr
          endchar
        </CharString>
        <CharString name="uni0306">
          -511 33 -81 callgsubr
          endchar
        </CharString>
        <CharString name="uni0307">
          -511 36 -82 callgsubr
          endchar
        </CharString>
        <CharString name="uni0308">
          -511 -40 589 -101 callgsubr
          endchar
        </CharString>
        <CharString name="uni030A">
          -511 31 -44 callgsubr
          endchar
        </CharString>
        <CharString name="uni030B">
          -511 -131 579 -81 callsubr
          endchar
        </CharString>
        <CharString name="uni030C">
          -511 36 576 -102 callgsubr
          endchar
        </CharString>
        <CharString name="uni0326">
          -511 -165 -238 -80 callsubr
          endchar
        </CharString>
        <CharString name="uni0327">
          -511 18 -52 rmoveto
          17 58 rlineto
          -56 hlineto
          -21 -60 -6 -16 -9 -71 callsubr
          endchar
        </CharString>
        <CharString name="uni0394">
          70 -34 callsubr
        </CharString>
        <CharString name="uni03A9">
          88 -58 callsubr
        </CharString>
        <CharString name="uni03BC">
          -44 -49 callgsubr
        </CharString>
        <CharString name="uni1E0C">
          -29 callgsubr
          -34 -304 -106 callsubr
          endchar
        </CharString>
        <CharString name="uni1E0D">
          -30 -80 callgsubr
          51 103 -50 callsubr
          39 -289 -106 callsubr
          endchar
        </CharString>
        <CharString name="uni1E24">
          90 89 -2 -63 callgsubr
          164 -191 -106 callsubr
          endchar
        </CharString>
        <CharString name="uni1E25">
          -26 370 -6 -69 callgsubr
          -160 -187 -106 callsubr
          endchar
        </CharString>
        <CharString name="uni1E44">
          79 348 766 -106 callsubr
          -266 -768 -98 callgsubr
          endchar
        </CharString>
        <CharString name="uni1E45">
          275 -82 callgsubr
          166 -491 -98 callsubr
          endchar
        </CharString>
        <CharString name="uni1E5A">
          2 87 -2 -86 callsubr
          -69 -588 -106 callsubr
          endchar
        </CharString>
        <CharString name="uni1E5B">
          -174 89 -2 -76 callgsubr
          -6 -193 -106 callsubr
          endchar
        </CharString>
        <CharString name="uni1E62">
          -43 callgsubr
          -25 -186 -106 callsubr
          endchar
        </CharString>
        <CharString name="uni1E63">
          -38 callgsubr
          -6 -185 -106 callsubr
          endchar
        </CharString>
        <CharString name="uni1E6C">
          -57 184 -2 -65 callgsubr
          -5 -191 -106 callsubr
          endchar
        </CharString>
        <CharString name="uni1E6D">
          -213 172 -7 -72 callgsubr
          -26 -186 -106 callsubr
          endchar
        </CharString>
        <CharString name="uni1E92">
          -4 32 -60 callsubr
          176 -193 -106 callsubr
          endchar
        </CharString>
        <CharString name="uni1E93">
          -106 26 hmoveto
          -93 callgsubr
          128 -193 -106 callsubr
          endchar
        </CharString>
        <CharString name="uni1E9E">
          82 343 -7 rmoveto
          107 93 69 143 15 hvcurveto
          14 127 -57 53 -65 25 119 186 rcurveline
          2 2 0 3 4 vvcurveto
          3 24 -13 52 -13 2 rrcurveto
          12 -50 -77 12 -74 hhcurveto
          -159 1 -93 -91 -19 -180 -42 -411 rcurveline
          -18 -3 19 callsubr
          25 -26 callgsubr
          43 410 rlineto
          107 11 41 53 76 hhcurveto
          35 30 -5 -5 24 hvcurveto
          -117 -181 -2 -3 -1 -4 -1 -4 rlinecurve
          -24 -3 14 -52 15 hhcurveto
          23 hlineto
          57 31 -34 -78 -9 hvcurveto
          -81 -8 -41 -32 -43 -44 -22 30 -16 hhcurveto
          -19 -30 -48 -61 callsubr
          -41 -5 88 -23 54 hhcurveto
          endchar
        </CharString>
        <CharString name="uni1EA0">
          -6 23 -2 -106 callgsubr
          -115 -451 -106 callsubr
          endchar
        </CharString>
        <CharString name="uni1EA1">
          -30 162 -8 -107 callgsubr
          -5 -288 -106 callsubr
          endchar
        </CharString>
        <CharString name="uni1EA2">
          -6 318 744 -89 callgsubr
          -295 -746 -106 callgsubr
          endchar
        </CharString>
        <CharString name="uni1EA3">
          -30 282 567 -89 callgsubr
          -120 -575 -105 callgsubr
        </CharString>
        <CharString name="uni1EA4">
          -6 417 852 rmoveto
          28 12 6 10 8 hvcurveto
          61 79 11 13 10 vvcurveto
          16 -12 4 -25 -31 -26 -6 -21 -10 vhcurveto
          -28 -69 -10 -20 -9 vvcurveto
          -10 6 -3 16 vhcurveto
          -204 -102 -64 callsubr
        </CharString>
        <CharString name="uni1EA5">
          -30 373 714 rmoveto
          -105 callsubr
          -196 -141 -83 callsubr
        </CharString>
        <CharString name="uni1EA6">
          -6 461 852 -40 callgsubr
          -248 -102 -64 callsubr
        </CharString>
        <CharString name="uni1EA7">
          -30 424 714 -97 callsubr
          -247 -141 -83 callsubr
        </CharString>
        <CharString name="uni1EA8">
          -6 436 859 -59 callgsubr
          -223 -109 -64 callsubr
        </CharString>
        <CharString name="uni1EA9">
          -30 415 702 -89 callgsubr
          -238 -129 -83 callsubr
        </CharString>
        <CharString name="uni1EAA">
          -6 208 885 -88 callgsubr
          14 -139 rmoveto
          24 hlineto
          22 8 5 12 12 hvcurveto
          33 46 22 -46 rlineto
          -12 9 8 -5 23 hhcurveto
          25 hlineto
          13 7 5 7 1 hvcurveto
          3 -3 9 -4 8 vhcurveto
          -41 71 rlineto
          15 -10 -13 5 -26 hhcurveto
          -8 hlineto
          -28 -14 -5 -15 -12 hvcurveto
          -57 -71 rlineto
          -5 -8 -5 -9 -3 vvcurveto
          -8 -1 6 -4 14 hhcurveto
          -190 -752 -106 callgsubr
          endchar
        </CharString>
        <CharString name="uni1EAB">
          -30 178 757 -88 callgsubr
          1 -188 -107 callsubr
          -8 -82 callsubr
        </CharString>
        <CharString name="uni1EAC">
          -6 206 750 -107 callsubr
          -183 -752 -106 callgsubr
          -115 -451 -106 callsubr
          endchar
        </CharString>
        <CharString name="uni1EAD">
          -30 170 -100 callgsubr
          -8 -581 -107 callgsubr
          -5 -288 -106 callsubr
          endchar
        </CharString>
        <CharString name="uni1EAE">
          -6 299 858 rmoveto
          28 12 6 10 8 hvcurveto
          61 79 11 13 10 vvcurveto
          16 -12 4 -25 -31 -26 -6 -21 -10 vhcurveto
          -28 -69 -10 -20 -9 vvcurveto
          -10 6 -3 16 vhcurveto
          7 -102 rmoveto
          79 51 47 47 5 hvcurveto
          23 3 -14 7 -17 hhcurveto
          -15 -7 -8 -12 -6 hvcurveto
          -13 -8 -14 -24 -50 hhcurveto
          -47 -10 22 14 -6 hvcurveto
          13 -5 -5 8 -16 hhcurveto
          -18 -13 -7 -24 -3 hvcurveto
          -47 -5 42 -46 79 hhcurveto
          -283 -758 -106 callgsubr
          endchar
        </CharString>
        <CharString name="uni1EAF">
          -30 257 737 rmoveto
          -105 callsubr
          13 -158 -95 callsubr
        </CharString>
        <CharString name="uni1EB0">
          -6 343 858 -40 callgsubr
          -37 -102 rmoveto
          79 51 47 47 5 hvcurveto
          23 3 -14 7 -17 hhcurveto
          -15 -7 -8 -12 -6 hvcurveto
          -13 -8 -14 -24 -50 hhcurveto
          -47 -10 22 14 -6 hvcurveto
          13 -5 -5 8 -16 hhcurveto
          -18 -13 -7 -24 -3 hvcurveto
          -47 -5 42 -46 79 hhcurveto
          -283 -758 -106 callgsubr
          endchar
        </CharString>
        <CharString name="uni1EB1">
          -30 307 737 -97 callsubr
          -37 -158 -95 callsubr
        </CharString>
        <CharString name="uni1EB2">
          -6 318 865 -59 callgsubr
          -12 -109 rmoveto
          79 51 47 47 5 hvcurveto
          23 3 -14 7 -17 hhcurveto
          -15 -7 -8 -12 -6 hvcurveto
          -13 -8 -14 -24 -50 hhcurveto
          -47 -10 22 14 -6 hvcurveto
          13 -5 -5 8 -16 hhcurveto
          -18 -13 -7 -24 -3 hvcurveto
          -47 -5 42 -46 79 hhcurveto
          -283 -758 -106 callgsubr
          endchar
        </CharString>
        <CharString name="uni1EB3">
          -30 299 725 -89 callgsubr
          -29 -146 -95 callsubr
        </CharString>
        <CharString name="uni1EB4">
          -6 212 925 -88 callgsubr
          103 -173 rmoveto
          79 51 47 47 5 hvcurveto
          23 3 -14 7 -17 hhcurveto
          -15 -7 -8 -12 -6 hvcurveto
          -13 -8 -14 -24 -50 hhcurveto
          -47 -10 22 14 -6 hvcurveto
          13 -5 -5 8 -16 hhcurveto
          -18 -13 -7 -24 -3 hvcurveto
          -47 -5 42 -46 79 hhcurveto
          -283 -758 -106 callgsubr
          endchar
        </CharString>
        <CharString name="uni1EB5">
          -30 177 759 -88 callgsubr
          102 -184 -95 callsubr
        </CharString>
        <CharString name="uni1EB6">
          -6 306 -72 callsubr
          -283 -758 -106 callgsubr
          -115 -451 -106 callsubr
          endchar
        </CharString>
        <CharString name="uni1EB7">
          -30 270 579 -94 callgsubr
          -5 -288 -106 callsubr
          endchar
        </CharString>
        <CharString name="uni1EB8">
          -54 71 hmoveto
          -104 callgsubr
          123 -193 -106 callsubr
          endchar
        </CharString>
        <CharString name="uni1EB9">
          -57 376 139 -100 callsubr
          -46 -510 -70 callgsubr
        </CharString>
        <CharString name="uni1EBA">
          -54 312 744 -89 callgsubr
          -241 -744 rmoveto
          -104 callgsubr
          endchar
        </CharString>
        <CharString name="uni1EBB">
          -57 232 681 -64 callgsubr
          144 -542 -100 callsubr
          endchar
        </CharString>
        <CharString name="uni1EBC">
          -54 168 761 rmoveto
          -104 callsubr
          -87 -765 rmoveto
          -104 callgsubr
          endchar
        </CharString>
        <CharString name="uni1EBD">
          -57 137 588 rmoveto
          10 -4 rlineto
          -104 callsubr
          239 -449 -100 callsubr
          endchar
        </CharString>
        <CharString name="uni1EBE">
          -54 411 -69 callsubr
          -136 -750 rmoveto
          -104 callgsubr
          endchar
        </CharString>
        <CharString name="uni1EBF">
          -57 480 868 rmoveto
          -33 -28 -7 -19 -9 hvcurveto
          -40 -80 -14 -25 -10 vvcurveto
          -10 6 -3 20 41 14 10 12 9 vhcurveto
          77 103 7 4 12 vvcurveto
          10 -17 3 -33 vhcurveto
          -294 -295 -103 callsubr
          50 -73 callsubr
        </CharString>
        <CharString name="uni1EC0">
          -54 456 852 -40 callgsubr
          -249 -68 callgsubr
          -136 -750 rmoveto
          -104 callgsubr
          endchar
        </CharString>
        <CharString name="uni1EC1">
          -57 407 842 rmoveto
          19 -11 -28 7 -33 hhcurveto
          -33 -17 -3 -10 -12 6 -5 80 -102 hvcurveto
          -11 8 13 -11 41 hhcurveto
          21 5 3 10 10 -12 24 -40 81 hvcurveto
          -221 -269 -103 callsubr
          50 -73 callsubr
        </CharString>
        <CharString name="uni1EC2">
          -54 431 -51 callsubr
          -136 -750 rmoveto
          -104 callgsubr
          endchar
        </CharString>
        <CharString name="uni1EC3">
          -57 417 886 rmoveto
          -35 -44 -18 -13 -14 19 -25 8 hvcurveto
          8 11 12 25 hhcurveto
          17 17 -8 -16 hvcurveto
          -37 -66 -22 -22 vvcurveto
          -8 28 -13 19 -53 callgsubr
          vhcurveto
          -231 -313 -103 callsubr
          50 -73 callsubr
        </CharString>
        <CharString name="uni1EC4">
          -54 202 885 -88 callgsubr
          14 -139 rmoveto
          24 hlineto
          22 8 5 12 12 hvcurveto
          33 46 22 -46 rlineto
          -12 9 8 -5 23 hhcurveto
          25 hlineto
          13 7 5 7 1 hvcurveto
          3 -3 9 -4 8 vhcurveto
          -41 71 rlineto
          15 -10 -13 5 -26 hhcurveto
          -8 hlineto
          -28 -14 -5 -15 -12 hvcurveto
          -57 -71 rlineto
          -5 -8 -5 -9 -3 vvcurveto
          -8 -1 6 -4 14 hhcurveto
          -136 -750 rmoveto
          -104 callgsubr
          endchar
        </CharString>
        <CharString name="uni1EC5">
          -57 422 863 rmoveto
          -8 3 rlineto
          1 -4 -4 1 -3 hhcurveto
          -10 -6 -5 -11 -7 9 callgsubr
          -49 33 -34 hhcurveto
          -38 -26 -27 -42 -15 hvcurveto
          -2 -7 -1 -4 -4 vvcurveto
          -8 4 -9 13 -4 vhcurveto
          9 -4 rlineto
          -1 4 4 -1 4 hhcurveto
          8 6 6 10 7 hvcurveto
          17 10 8 3 9 27 49 -33 34 hhcurveto
          37 28 28 42 14 hvcurveto
          2 4 1 -18 callgsubr
          -243 -290 -107 callsubr
          57 -73 callsubr
        </CharString>
        <CharString name="uni1EC6">
          -54 200 750 -107 callsubr
          -129 -750 rmoveto
          -104 callgsubr
          123 -193 -106 callsubr
          endchar
        </CharString>
        <CharString name="uni1EC7">
          -57 179 -100 callgsubr
          197 -434 -100 callsubr
          -46 -510 -70 callgsubr
        </CharString>
        <CharString name="uni1EC8">
          -249 196 744 -89 callgsubr
          -108 -747 -85 callgsubr
          endchar
        </CharString>
        <CharString name="uni1EC9">
          -257 165 567 -89 callgsubr
          -35 -573 -97 callgsubr
          endchar
        </CharString>
        <CharString name="uni1ECA">
          -249 88 -3 -85 callgsubr
          -5 -190 -106 callsubr
          endchar
        </CharString>
        <CharString name="uni1ECB">
          -257 152 -82 callgsubr
          -22 -595 -97 callgsubr
          -30 -187 -106 callsubr
          endchar
        </CharString>
        <CharString name="uni1ECC">
          88 271 -7 -102 callsubr
          -32 -297 -106 callsubr
          endchar
        </CharString>
        <CharString name="uni1ECD">
          -34 211 -7 -101 callsubr
          -27 -286 -106 callsubr
          endchar
        </CharString>
        <CharString name="uni1ECE">
          88 364 744 -89 callgsubr
          -93 -751 -102 callsubr
          endchar
        </CharString>
        <CharString name="uni1ECF">
          -34 284 567 -89 callgsubr
          -73 -574 -95 callgsubr
        </CharString>
        <CharString name="uni1ED0">
          88 463 -69 callsubr
          12 -757 -102 callsubr
          endchar
        </CharString>
        <CharString name="uni1ED1">
          -34 375 714 rmoveto
          -105 callsubr
          -196 -141 -76 callsubr
        </CharString>
        <CharString name="uni1ED2">
          88 508 852 -40 callgsubr
          -249 -68 callgsubr
          12 -757 -102 callsubr
          endchar
        </CharString>
        <CharString name="uni1ED3">
          -34 426 714 -97 callsubr
          -247 -141 -76 callsubr
        </CharString>
        <CharString name="uni1ED4">
          88 483 -51 callsubr
          12 -757 -102 callsubr
          endchar
        </CharString>
        <CharString name="uni1ED5">
          -34 417 702 -89 callgsubr
          -238 -129 -76 callsubr
        </CharString>
        <CharString name="uni1ED6">
          88 254 885 -88 callgsubr
          14 -139 rmoveto
          24 hlineto
          22 8 5 12 12 hvcurveto
          33 46 22 -46 rlineto
          -12 9 8 -5 23 hhcurveto
          25 hlineto
          13 7 5 7 1 hvcurveto
          3 -3 9 -4 8 vhcurveto
          -41 71 rlineto
          15 -10 -13 5 -26 hhcurveto
          -8 hlineto
          -28 -14 -5 -15 -12 hvcurveto
          -57 -71 rlineto
          -5 -8 -5 -9 -3 vvcurveto
          -8 -1 6 -4 14 hhcurveto
          12 -757 -102 callsubr
          endchar
        </CharString>
        <CharString name="uni1ED7">
          -34 180 757 -88 callgsubr
          1 -188 -53 callsubr
          endchar
        </CharString>
        <CharString name="uni1ED8">
          88 252 750 -107 callsubr
          19 -757 -102 callsubr
          -32 -297 -106 callsubr
          endchar
        </CharString>
        <CharString name="uni1ED9">
          -55 callgsubr
          -27 -286 -106 callsubr
          endchar
        </CharString>
        <CharString name="uni1EDA">
          88 330 756 rmoveto
          -105 callsubr
          302 -50 -91 callsubr
          endchar
        </CharString>
        <CharString name="uni1EDB">
          -34 242 579 rmoveto
          -105 callsubr
          264 -33 -90 callsubr
          endchar
        </CharString>
        <CharString name="uni1EDC">
          88 372 756 -97 callsubr
          260 -50 -91 callsubr
          endchar
        </CharString>
        <CharString name="uni1EDD">
          -34 292 579 -97 callsubr
          214 -33 -90 callsubr
          endchar
        </CharString>
        <CharString name="uni1EDE">
          88 364 744 -89 callgsubr
          268 -38 -91 callsubr
          endchar
        </CharString>
        <CharString name="uni1EDF">
          -34 284 567 -89 callgsubr
          222 -21 -90 callsubr
          endchar
        </CharString>
        <CharString name="uni1EE0">
          88 233 761 rmoveto
          -79 callgsubr
          408 -59 -91 callsubr
          endchar
        </CharString>
        <CharString name="uni1EE1">
          -34 153 584 rmoveto
          -79 callgsubr
          362 -42 -90 callsubr
          endchar
        </CharString>
        <CharString name="uni1EE2">
          88 632 706 -91 callsubr
          -180 -544 -106 callsubr
          endchar
        </CharString>
        <CharString name="uni1EE3">
          -34 506 546 -90 callsubr
          -27 -286 -106 callsubr
          endchar
        </CharString>
        <CharString name="uni1EE4">
          72 264 -7 rmoveto
          -43 callsubr
          50 473 -27 callsubr
          -30 -99 callgsubr
          -19 -186 -106 callsubr
          endchar
        </CharString>
        <CharString name="uni1EE5">
          442 99 rmoveto
          -74 callsubr
          76 7 76 9 76 rrcurveto
          19 1 -14 10 -35 hhcurveto
          -26 -103 callgsubr
          hhcurveto
          -260 -292 -106 callsubr
          endchar
        </CharString>
        <CharString name="uni1EE6">
          72 356 744 -89 callgsubr
          -92 -751 rmoveto
          -43 callsubr
          50 473 -27 callsubr
          -30 -99 callgsubr
          endchar
        </CharString>
        <CharString name="uni1EE7">
          284 567 -89 callgsubr
          158 -468 rmoveto
          -74 callsubr
          76 7 76 9 76 rrcurveto
          19 1 -14 10 -35 hhcurveto
          -26 -103 callgsubr
          hhcurveto
          endchar
        </CharString>
        <CharString name="uni1EE8">
          72 314 756 rmoveto
          -105 callsubr
          336 -1 -15 callgsubr
          -29 -20 rlineto
          -8 -4 -54 callgsubr
          -18 -14 -15 -29 vhcurveto
          -44 -99 callgsubr
          -43 callsubr
          49 464 rlineto
          57 9 25 34 47 vvcurveto
          endchar
        </CharString>
        <CharString name="uni1EE9">
          242 579 rmoveto
          -105 callsubr
          202 -91 rmoveto
          60 7 26 35 48 vvcurveto
          -55 callsubr
          -29 -20 rlineto
          -8 -4 -54 callgsubr
          -18 -14 -15 -29 vhcurveto
          -44 -103 callgsubr
          -74 callsubr
          73 6 73 9 74 rrcurveto
          endchar
        </CharString>
        <CharString name="uni1EEA">
          72 364 756 -97 callsubr
          286 -1 -15 callgsubr
          -29 -20 rlineto
          -8 -4 -54 callgsubr
          -18 -14 -15 -29 vhcurveto
          -44 -99 callgsubr
          -43 callsubr
          49 464 rlineto
          57 9 25 34 47 vvcurveto
          endchar
        </CharString>
        <CharString name="uni1EEB">
          292 579 -97 callsubr
          152 -91 rmoveto
          60 7 26 35 48 vvcurveto
          -55 callsubr
          -29 -20 rlineto
          -8 -4 -54 callgsubr
          -18 -14 -15 -29 vhcurveto
          -44 -103 callgsubr
          -74 callsubr
          73 6 73 9 74 rrcurveto
          endchar
        </CharString>
        <CharString name="uni1EEC">
          72 297 858 -64 callgsubr
          353 -103 -15 callgsubr
          -29 -20 rlineto
          -8 -4 -54 callgsubr
          -18 -14 -15 -29 vhcurveto
          -44 -99 callgsubr
          -43 callsubr
          49 464 rlineto
          57 9 25 34 47 vvcurveto
          endchar
        </CharString>
        <CharString name="uni1EED">
          225 681 -64 callgsubr
          219 -193 rmoveto
          60 7 26 35 48 vvcurveto
          -55 callsubr
          -29 -20 rlineto
          -8 -4 -54 callgsubr
          -18 -14 -15 -29 vhcurveto
          -44 -103 callgsubr
          -74 callsubr
          73 6 73 9 74 rrcurveto
          endchar
        </CharString>
        <CharString name="uni1EEE">
          72 202 765 rmoveto
          10 -4 rlineto
          -104 callsubr
          448 -10 -15 callgsubr
          -29 -20 rlineto
          -8 -4 -54 callgsubr
          -18 -14 -15 -29 vhcurveto
          -44 -99 callgsubr
          -43 callsubr
          49 464 rlineto
          57 9 25 34 47 vvcurveto
          endchar
        </CharString>
        <CharString name="uni1EEF">
          143 588 rmoveto
          9 -4 rlineto
          -79 callgsubr
          301 -100 rmoveto
          60 7 26 35 48 vvcurveto
          -55 callsubr
          -29 -20 rlineto
          -8 -4 -54 callgsubr
          -18 -14 -15 -29 vhcurveto
          -44 -103 callgsubr
          -74 callsubr
          73 6 73 9 74 rrcurveto
          endchar
        </CharString>
        <CharString name="uni1EF0">
          72 650 755 -15 callgsubr
          -29 -20 rlineto
          -8 -4 -54 callgsubr
          -18 -14 -15 -29 vhcurveto
          -44 -99 callgsubr
          -43 callsubr
          49 464 rlineto
          57 9 25 34 47 vvcurveto
          -394 -835 -70 callgsubr
        </CharString>
        <CharString name="uni1EF1">
          444 488 rmoveto
          60 7 26 35 48 vvcurveto
          -55 callsubr
          -29 -20 rlineto
          -8 -4 -54 callgsubr
          -18 -14 -15 -29 vhcurveto
          -44 -103 callgsubr
          -74 callsubr
          73 6 73 9 74 rrcurveto
          -250 -568 -70 callgsubr
        </CharString>
        <CharString name="uni1EF4">
          -27 199 -2 -90 callgsubr
          -4 -191 -106 callsubr
          endchar
        </CharString>
        <CharString name="uni1EF4.loclGUA">
          -13 441 701 -96 callgsubr
          -222 -781 -70 callgsubr
        </CharString>
        <CharString name="uni1EF5">
          -106 369 525 -96 callsubr
          -89 -634 -70 callgsubr
        </CharString>
        <CharString name="uni1EF5.loclGUA">
          444 497 rmoveto
          18 3 -15 10 -37 hhcurveto
          -93 callsubr
          37 -171 -70 callgsubr
        </CharString>
        <CharString name="uni1EF6">
          -27 306 744 -89 callgsubr
          -107 -746 -90 callgsubr
          endchar
        </CharString>
        <CharString name="uni1EF6.loclGUA">
          -13 254 858 -64 callgsubr
          187 -157 -96 callgsubr
          endchar
        </CharString>
        <CharString name="uni1EF7">
          -106 184 681 -64 callgsubr
          185 -156 -96 callsubr
          endchar
        </CharString>
        <CharString name="uni1EF7.loclGUA">
          224 681 -64 callgsubr
          171 -156 rmoveto
          -93 callsubr
          44 414 -4 callsubr
          endchar
        </CharString>
        <CharString name="uni1EF8">
          -27 162 761 rmoveto
          -104 callsubr
          47 -767 -90 callgsubr
          endchar
        </CharString>
        <CharString name="uni1EF8.loclGUA">
          -13 159 765 rmoveto
          10 -4 rlineto
          -104 callsubr
          282 -64 -96 callgsubr
          endchar
        </CharString>
        <CharString name="uni1EF9">
          -106 89 588 rmoveto
          10 -4 rlineto
          -104 callsubr
          280 -63 -96 callsubr
          endchar
        </CharString>
        <CharString name="uni1EF9.loclGUA">
          129 588 rmoveto
          10 -4 rlineto
          -104 callsubr
          266 -63 rmoveto
          -93 callsubr
          44 414 -4 callsubr
          endchar
        </CharString>
        <CharString name="uni2002">
          -25 endchar
        </CharString>
        <CharString name="uni2003">
          375 endchar
        </CharString>
        <CharString name="uni2004">
          -178 endchar
        </CharString>
        <CharString name="uni2005">
          -261 endchar
        </CharString>
        <CharString name="uni20B2">
          -56 callsubr
          -90 -33 80 165 17 hvcurveto
          159 17 49 82 101 hhcurveto
          endchar
        </CharString>
        <CharString name="uni20B2.bold">
          -56 callsubr
          -6 -6 0 1 -6 hvcurveto
          51 483 rlineto
          1 9 9 1 10 hhcurveto
          -133 -458 rmoveto
          -35 36 -10 72 11 109 11 103 25 71 43 37 rrcurveto
          endchar
        </CharString>
        <CharString name="uni2113">
          -168 146 -7 rmoveto
          38 72 13 39 4 hvcurveto
          10 1 -4 53 -18 -11 -19 -15 -23 hhcurveto
          -22 -10 13 39 4 hvcurveto
          16 145 98 85 76 134 12 115 rlinecurve
          72 7 -25 59 -76 hhcurveto
          -67 -107 -27 -272 -29 hvcurveto
          -17 -171 -19 -13 -19 -12 -18 -12 rlinecurve
          -12 -7 -6 -12 -1 -10 -1 -7 1 -7 3 -5 rrcurveto
          -12 6 8 -7 9 hhcurveto
          5 5 2 4 7 hvcurveto
          23 15 -6 -58 rlineto
          -111 -12 49 -40 78 hhcurveto
          38 396 rmoveto
          265 28 30 16 26 hhcurveto
          21 7 -18 -30 -4 hvcurveto
          -9 -83 -47 -87 -52 -63 rrcurveto
          endchar
        </CharString>
        <CharString name="uni2126">
          74 -58 callsubr
        </CharString>
        <CharString name="uni2153">
          123 143 -66 callgsubr
          -3 -42 callgsubr
          308 -5 -78 callgsubr
          endchar
        </CharString>
        <CharString name="uni2154">
          181 36 296 -62 callsubr
          180 -297 rmoveto
          14 hlineto
          17 13 7 17 7 hvcurveto
          283 655 rlineto
          2 28 callsubr
          6 -5 3 -12 vhcurveto
          -15 hlineto
          -15 -15 -6 -17 -7 hvcurveto
          -282 -656 rlineto
          -2 -5 -3 -5 -3 vvcurveto
          -7 7 -3 11 vhcurveto
          328 -5 -78 callgsubr
          endchar
        </CharString>
        <CharString name="uni2206">
          55 -34 callsubr
        </CharString>
        <CharString name="uni2215">
          -290 -14 -19 callgsubr
        </CharString>
        <CharString name="uni2219">
          -286 117 296 rmoveto
          37 24 28 35 3 hvcurveto
          36 4 -18 28 -37 hhcurveto
          -36 -25 -28 -36 -4 hvcurveto
          -35 -4 20 -28 36 hhcurveto
          endchar
        </CharString>
        <CharString name="uogonek">
          474 -100 4 callgsubr
          18 4 23 10 23 hvcurveto
          26 11 15 21 2 28 rrcurveto
          -37 callsubr
          -11 -74 callsubr
          76 7 76 9 76 rrcurveto
          19 1 33 callgsubr
          -34 -17 -9 callsubr
          -37 -354 rlineto
          -25 -17 -25 -21 -28 hhcurveto
          -36 -11 23 40 4 hvcurveto
          35 337 rlineto
          19 2 25 callgsubr
          -25 hlineto
          -36 -16 -10 -19 -1 hvcurveto
          -39 -363 rlineto
          -91 -9 37 -50 79 hhcurveto
          58 47 36 43 32 hvcurveto
          7 -48 26 -21 32 -6 rrcurveto
          -13 -30 -4 -28 -18 -65 callsubr
          endchar
        </CharString>
        <CharString name="uring">
          269 -44 callgsubr
          167 -508 rmoveto
          -74 callsubr
          76 7 76 9 76 rrcurveto
          19 1 -14 10 -35 hhcurveto
          -26 -103 callgsubr
          hhcurveto
          endchar
        </CharString>
        <CharString name="utilde">
          140 584 rmoveto
          -104 callsubr
          312 -489 rmoveto
          -74 callsubr
          76 7 76 9 76 rrcurveto
          19 1 -14 10 -35 hhcurveto
          -26 -103 callgsubr
          hhcurveto
          endchar
        </CharString>
        <CharString name="v">
          -99 156 -2 rmoveto
          46 hlineto
          24 19 5 14 5 hvcurveto
          171 471 rlineto
          3 7 1 5 5 vvcurveto
          13 2 -13 7 -32 hhcurveto
          -30 hlineto
          -25 -21 -5 -14 -4 hvcurveto
          -73 -249 -11 -41 -12 -51 -11 -46 rlinecurve
          -5 hlineto
          -2 46 -2 50 -3 42 -22 249 rcurveline
          14 -2 -18 5 -25 hhcurveto
          -29 hlineto
          -33 -15 -7 -13 -2 hvcurveto
          -5 -1 -5 1 -7 vhcurveto
          75 -471 rlineto
          -14 3 17 -5 24 hhcurveto
          endchar
        </CharString>
        <CharString name="w">
          105 132 -2 -91 callgsubr
        </CharString>
        <CharString name="wacute">
          105 311 579 rmoveto
          -105 callsubr
          -179 -581 -91 callgsubr
        </CharString>
        <CharString name="wcircumflex">
          105 241 -100 callgsubr
          -109 -575 -91 callgsubr
        </CharString>
        <CharString name="wdieresis">
          105 268 589 -101 callgsubr
          -285 -591 -91 callgsubr
        </CharString>
        <CharString name="wgrave">
          105 361 579 -97 callsubr
          -229 -581 -91 callgsubr
        </CharString>
        <CharString name="x">
          -107 17 1 rmoveto
          51 -1 rlineto
          22 16 -1 17 8 hvcurveto
          67 137 6 11 3 10 5 11 rlinecurve
          2 -11 3 -10 4 -12 44 -137 rcurveline
          -17 4 18 2 25 hhcurveto
          46 hlineto
          15 17 4 11 1 hvcurveto
          1 6 -3 8 -5 9 -101 220 rcurveline
          140 226 6 10 4 7 1 6 rlinecurve
          11 1 -16 7 -35 hhcurveto
          -27 hlineto
          -24 -21 -1 -17 -7 hvcurveto
          -62 -123 -7 -14 -3 -11 -4 -11 rlinecurve
          -3 12 -3 11 -4 13 -40 124 rcurveline
          17 -5 -19 0 -24 hhcurveto
          -24 hlineto
          -36 -16 -7 -11 -1 hvcurveto
          -1 -6 2 -7 4 -10 99 -211 rcurveline
          -147 -235 -6 -10 -4 -8 -1 -6 rlinecurve
          -10 11 -3 23 vhcurveto
          endchar
        </CharString>
        <CharString name="y">
          -106 369 525 -96 callsubr
          endchar
        </CharString>
        <CharString name="y.loclGUA">
          395 525 rmoveto
          -93 callsubr
          44 414 -4 callsubr
          endchar
        </CharString>
        <CharString name="yacute">
          -106 201 579 rmoveto
          -105 callsubr
          168 -54 -96 callsubr
          endchar
        </CharString>
        <CharString name="yacute.loclGUA">
          241 579 rmoveto
          -105 callsubr
          154 -54 rmoveto
          -93 callsubr
          44 414 -4 callsubr
          endchar
        </CharString>
        <CharString name="ycircumflex">
          -106 131 -100 callgsubr
          238 -48 -96 callsubr
          endchar
        </CharString>
        <CharString name="ycircumflex.loclGUA">
          171 -100 callgsubr
          224 -48 rmoveto
          -93 callsubr
          44 414 -4 callsubr
          endchar
        </CharString>
        <CharString name="ydieresis">
          -106 158 589 -101 callgsubr
          62 -64 -96 callsubr
          endchar
        </CharString>
        <CharString name="ydieresis.loclGUA">
          198 589 -101 callgsubr
          48 -64 rmoveto
          -93 callsubr
          44 414 -4 callsubr
          endchar
        </CharString>
        <CharString name="yen">
          -41 468 702 rmoveto
          -33 hlineto
          -24 -20 -3 -14 -7 hvcurveto
          -129 -282 -64 281 rlineto
          15 -3 -20 3 -24 hhcurveto
          -38 hlineto
          -36 -17 -7 -12 -1 hvcurveto
          -1 -6 3 -7 4 -9 90 -258 rcurveline
          -70 hlineto
          -18 -9 -9 -21 -2 hvcurveto
          -1 -12 rlineto
          -21 -2 7 -9 17 hhcurveto
          103 hlineto
          8 -24 -6 -52 rlineto
          -113 hlineto
          -18 -8 -9 -21 -2 hvcurveto
          -2 -12 rlineto
          -21 -2 7 -9 17 hhcurveto
          114 hlineto
          -17 -157 -52 callgsubr
          -16 callgsubr
          17 157 rlineto
          101 hlineto
          18 9 9 21 2 hvcurveto
          1 12 rlineto
          21 2 -6 9 -18 hhcurveto
          -101 hlineto
          5 49 14 26 rlineto
          90 hlineto
          18 9 10 21 2 hvcurveto
          1 12 rlineto
          21 2 -7 9 -17 hhcurveto
          -57 hlineto
          142 258 rlineto
          5 9 4 7 6 vvcurveto
          12 1 -15 7 -37 hhcurveto
          endchar
        </CharString>
        <CharString name="ygrave">
          -106 251 579 -97 callsubr
          118 -54 -96 callsubr
          endchar
        </CharString>
        <CharString name="ygrave.loclGUA">
          291 579 -97 callsubr
          104 -54 rmoveto
          -93 callsubr
          44 414 -4 callsubr
          endchar
        </CharString>
        <CharString name="z">
          -106 26 hmoveto
          -93 callgsubr
          endchar
        </CharString>
        <CharString name="zacute">
          -106 208 579 rmoveto
          -105 callsubr
          -182 -579 rmoveto
          -93 callgsubr
          endchar
        </CharString>
        <CharString name="zacute.loclPLK">
          -106 218 579 -79 callsubr
          -192 -579 rmoveto
          -93 callgsubr
          endchar
        </CharString>
        <CharString name="zcaron">
          -106 233 576 -102 callgsubr
          -207 -576 rmoveto
          -93 callgsubr
          endchar
        </CharString>
        <CharString name="zdotaccent">
          -106 239 -82 callgsubr
          -213 -589 rmoveto
          -93 callgsubr
          endchar
        </CharString>
        <CharString name="zero">
          -52 201 -7 rmoveto
          129 85 121 236 24 hvcurveto
          236 25 -59 121 -129 hhcurveto
          -129 -85 -121 -236 -25 hvcurveto
          -236 -24 59 -121 129 hhcurveto
          10 100 rmoveto
          -44 -22 51 206 21 hvcurveto
          206 22 33 51 44 hhcurveto
          44 23 -51 -206 -22 hvcurveto
          -206 -21 -34 -51 -44 hhcurveto
          endchar
        </CharString>
      <CharString index="0">
        rmoveto
        52 40 28 53 27 hvcurveto
        -61 7 37 -19 42 hhcurveto
        55 31 31 47 13 -3 14 -9 hvcurveto
        -44 callsubr
        -7 7 24 1 hvcurveto
        3 37 14 123 10 103 rrcurveto
        4 37 8 62 13 vvcurveto
        15 -14 9 -32 vhcurveto
        -10 hlineto
        -42 -5 -15 -32 -11 hvcurveto
        21 -18 -30 31 -55 hhcurveto
        -95 -75 -92 -171 -19 hvcurveto
        -131 -14 24 -144 115 hhcurveto
        48 103 rmoveto
        -52 -4 86 86 9 hvcurveto
        111 12 28 51 53 hhcurveto
        27 16 -14 -13 12 hvcurveto
        -3 -14 -4 -22 -3 -26 -17 -162 rcurveline
        -55 -16 -28 -28 -30 hhcurveto
        return
      </CharString>
      <CharString index="1">
        rmoveto
        -77 callsubr
        18 -137 rlineto
        -12 callgsubr
        23 hhcurveto
        38 hlineto
        29 13 8 12 1 hvcurveto
        5 0 5 -1 6 vhcurveto
        -101 643 rlineto
        17 -3 -16 8 -32 hhcurveto
        -47 hlineto
        -30 -19 -8 -17 -7 hvcurveto
        -233 -643 rlineto
        -2 -6 -2 -5 -5 vvcurveto
        -12 -1 12 -8 31 hhcurveto
        159 260 rmoveto
        81 238 8 23 6 25 6 23 rlinecurve
        5 hlineto
        -23 2 -25 3 -23 vhcurveto
        29 -238 rlineto
        return
      </CharString>
      <CharString index="2">
        -107 callgsubr
        endchar
      </CharString>
</ttFont>
